<svg xmlns="http://www.w3.org/2000/svg" width="500" height="491.278" viewBox="0 0 500 491.278">
  <g id="Group_3835" data-name="Group 3835" transform="translate(-30.66 -144.739)">
    <ellipse id="Ellipse_6" data-name="Ellipse 6" cx="250" cy="44.116" rx="250" ry="44.116" transform="translate(30.66 547.786)" fill="#e2e5e0"/>
    <g id="Group_3793" data-name="Group 3793" transform="translate(393.686 144.739)">
      <path id="Path_8763" data-name="Path 8763" d="M256.645,184.891a6.87,6.87,0,0,0,2.785-2.26,4.161,4.161,0,0,1,1.032-1.322,8.818,8.818,0,0,0,1.324-1.4,3.449,3.449,0,0,1,1.441-1.247c.766-.233.539.762.292,1.4-.268.7-2.22,1.978-1.968,2.727s2.534-.959,2.982-1.3c1.06-.819.937-1.816,1.439-2.919.294-.645.624-.851,1.03-.14a2.114,2.114,0,0,1-.154,1.717,7.227,7.227,0,0,1-1.92,2.966A8.455,8.455,0,0,0,267,180.529c.3-.557,1.147-3.154,2.064-2.765,1.843.784-1.749,5.8-2.739,6.337a9.944,9.944,0,0,0,2.254-2.463c.395-.531,1.271-1.828,1.691-.718.624,1.634-2.426,3.545-3.635,4.64a11.646,11.646,0,0,0,2.585-1.843c1.105-.876,1.362.241.387,1.332a15.87,15.87,0,0,1-1.595,1.4,10.765,10.765,0,0,1-6.542,2.335c-.981.095-2.676,1.3-3.369.8C256.767,188.623,256.884,186.269,256.645,184.891Z" transform="translate(-173.672 -112.625)" fill="#e8a393"/>
      <path id="Path_8764" data-name="Path 8764" d="M280.667,192.764s-21.042,5.864-23.172,5.725-7.061-18.656-9.035-27.8c-.184-.851-2.984-.9-6.152-3.572-1.308-1.1-5.181,1.007-6.479,0a8.813,8.813,0,0,0-1.662,9.757c4.794,10.592,8.915,30.92,19.951,31.131,14.591.28,29.391-7.34,29.391-7.34Z" transform="translate(-196.33 -123.269)" fill="#406"/>
      <path id="Path_8765" data-name="Path 8765" d="M261.6,184.206a20.185,20.185,0,0,1-.987-1.861c-.253-.75,1.7-2.031,1.968-2.727.247-.639.474-1.634-.292-1.4a3.448,3.448,0,0,0-1.441,1.247,8.817,8.817,0,0,1-1.324,1.4,4.139,4.139,0,0,0-1.032,1.322,4.308,4.308,0,0,1-.888,1.007C258.4,183.906,261.6,184.206,261.6,184.206Z" transform="translate(-172.736 -112.181)" fill="#e8a393"/>
      <path id="Path_8766" data-name="Path 8766" d="M262.358,216.15s1.954,9.061,3.77,9.909,20.863-3.831,21.962-5.982-.454-4.4-4.523-4.239c-3.657.138-6.055,1.492-9.021,1.05-2.6-.387-5.145-5.329-5.145-5.329Z" transform="translate(-168.11 -79.685)" fill="#242263"/>
      <path id="Path_8767" data-name="Path 8767" d="M248.055,224.321s-4.883,7.881-4.164,9.751,17.683,11.719,19.967,10.936,2.724-3.481-.316-6.193c-2.729-2.437-5.4-3.128-7.225-5.5-1.6-2.084-.006-7.407-.006-7.407Z" transform="translate(-186.159 -67.26)" fill="#242263"/>
      <path id="Path_8768" data-name="Path 8768" d="M247.147,191.711s7.683,4,11.267,3.531,34.238,1.948,37.822,4.906-11.082,62.075-11.082,62.075L273,260.2s4.356-43.218,3.627-43.529-19.075-.243-50.36-.243c-7.634,0-16.148-16.043-6.489-27.259Z" transform="translate(-213.76 -101.485)" fill="#82cec2"/>
      <path id="Path_8769" data-name="Path 8769" d="M276.2,203.772a34.9,34.9,0,0,1-3.418-8.289c-10.614-1.3-26.616-1.743-29.122-1.415-3.584.468-11.267-3.531-11.267-3.531l-1.766-.164c2.2,3.15,4.786,5.9,8.011,6.61,3.864.855,7.928,1.072,11.745,2.084,6.6,1.747,13.142,5.21,16.091,11.79,3.543,7.908,7.336,16.2,9.783,25.033,2-8.96,4.042-18.364,5.226-25.82C279.151,208.944,277.472,205.874,276.2,203.772Z" transform="translate(-199.004 -100.311)" fill="#00a1cc" opacity="0.65" style="mix-blend-mode: multiply;isolation: isolate"/>
      <path id="Path_8770" data-name="Path 8770" d="M235.13,187.115s36.5,2.181,39.981,5.607,26.969,43.853,26.969,43.853l-9.678,6.981s-19.244-28.374-28.514-39.434a13.723,13.723,0,0,0-8.253-4.727,140.749,140.749,0,0,0-14.04-1.766c-7.243-.389-10.527-4-10.527-4Z" transform="translate(-198.575 -103.483)" fill="#82cec2"/>
      <path id="Path_8771" data-name="Path 8771" d="M242.836,159.748a13.783,13.783,0,0,1-3.01-2.425c-.894,3.511-3,9.937-7.044,12.949,0,0,7.164,3.991,13.5,3.345,0,0,.253-8.459,2.009-12.412A12.281,12.281,0,0,1,242.836,159.748Z" transform="translate(-196.903 -132.489)" fill="#fcd4ca"/>
      <path id="Path_8772" data-name="Path 8772" d="M237.958,169.509a9.2,9.2,0,0,1,9.351-5.023,17.151,17.151,0,0,1,.983-3.282,12.281,12.281,0,0,1-5.455-1.457,13.783,13.783,0,0,1-3.01-2.425c-.894,3.511-3,9.937-7.044,12.949a31.493,31.493,0,0,0,4.3,1.887A11.385,11.385,0,0,1,237.958,169.509Z" transform="translate(-196.903 -132.489)" fill="#e8a393"/>
      <path id="Path_8773" data-name="Path 8773" d="M246.1,147.543s9.371.586,11.38,3.25,2.074,8.642.45,11.5.507,7.721.176,8.854c-.266.908-3.227.5-3.444.8s-2.5,5.775-6.525,5.3c-5.66-.667-10.961-7.462-12.132-11.49S237.517,146.395,246.1,147.543Z" transform="translate(-194.023 -142.069)" fill="#fcd4ca"/>
      <path id="Path_8774" data-name="Path 8774" d="M259.006,156.55a11.216,11.216,0,0,1-1.188-2.437,11.948,11.948,0,0,0-.077-1.689c-.407-1.715-.247-2.795-3.61-5.459-2.921-2.317-7.618-2.747-11.066-1.65a10.355,10.355,0,0,0-3.509,1.879c-.308.255-1.228.933-1.222,1.328.008.5,1.133,1.271,1.431,1.642a16.957,16.957,0,0,1,1.3,2.248c2.625,4.563,7.314,10.172,13.168,7.486a19.067,19.067,0,0,0,2.27-1.206,12.1,12.1,0,0,1-.977,6,5.332,5.332,0,0,0,2.737-2.033C259.908,160.077,259.658,158.013,259.006,156.55Z" transform="translate(-191.498 -144.739)" fill="#242263"/>
      <path id="Path_8775" data-name="Path 8775" d="M246.069,148c-.8-.935-2.771-1.486-3.91-1.662a5.141,5.141,0,0,0-5.386,2.767,21.707,21.707,0,0,0-1.9,3.77,16.14,16.14,0,0,0-1.3,6.317,15.258,15.258,0,0,0,1.36,6.888c.965,1.91,3.276,4.573,4.95,4.547.649-.01,3.014-3.734,3.264-4.843.243-1.064-.249-1.267-.868-2.019-1.044-1.271-1.96-3.333-.365-4.573,2.274-1.768,4.452.278,4.16,3.821,0,0,.324,2.177,1.007,2.112S253.8,157.016,246.069,148Z" transform="translate(-196.139 -143.245)" fill="#242263"/>
      <path id="Path_8776" data-name="Path 8776" d="M238.205,153.169a2.37,2.37,0,0,1,2.228,1.6c.551,1.545-.643,3.243-1.356,2.161s-.087-1.543-.038-2.187A1.954,1.954,0,0,0,238.205,153.169Z" transform="translate(-191.625 -136.533)" fill="#e8a393"/>
      <path id="Path_8777" data-name="Path 8777" d="M214.6,217.866s10.9,11.743,39.618,3.643a61.458,61.458,0,0,1,4.016-14.228c3.045-7.061,7.989-20.938,8.964-28.455,1.1-8.488-3.112-12.864-3.112-12.864s-5.429,4.016-12.023-2.814c0,0-14.2,1.66-22.509,16.614S214.6,217.866,214.6,217.866Z" transform="translate(-214.603 -126.817)" fill="#652d90"/>
      <path id="Path_8778" data-name="Path 8778" d="M237.445,169.854c-.1-.351-.174-.72-.257-1.085-6.88,3.353-6.012,10-4.36,20.006,1.271,7.7,4.962,19.856,5.7,22.582a58.464,58.464,0,0,1,3.1-9.548c1.405-3.26,3.213-7.975,4.851-12.842a49.806,49.806,0,0,1-5.68-11.859C239.91,174.6,238.154,172.446,237.445,169.854Z" transform="translate(-197.99 -121.345)" fill="#406"/>
      <g id="Group_3792" data-name="Group 3792" transform="translate(86.401 50.825)">
        <path id="Path_8779" data-name="Path 8779" d="M258.382,184.883l24.135-14.391s8.8,8.627,11.291,20.387l-27.4,12.836S262.138,193.658,258.382,184.883Z" transform="translate(-258.382 -170.492)" fill="#ebebeb"/>
        <path id="Path_8780" data-name="Path 8780" d="M277.044,188.054a25.119,25.119,0,0,1-14.4-11.557l-4.259,2.54c3.756,8.775,8.03,18.832,8.03,18.832l20-9.371A19.9,19.9,0,0,1,277.044,188.054Z" transform="translate(-258.382 -164.646)" fill="#b2b2b2"/>
        <g id="Group_3791" data-name="Group 3791" transform="translate(4.283 14.667)">
          <g id="Group_3790" data-name="Group 3790">
            <path id="Path_8781" data-name="Path 8781" d="M260.552,179.067l10.315-1.11.316-.034.161.246,1.448,2.208-.4-.217H280.1l.082.379.623,2.88-.543-.373,5.312-.824.147.95-5.312.825-.448.069-.1-.443-.623-2.881.47.379h-7.581l-.142-.217-1.448-2.208.477.211-10.154,2.13Z" transform="translate(-260.552 -177.924)" fill="#f05260"/>
            <g id="Group_3789" data-name="Group 3789" transform="translate(23.584 3.748)">
              <path id="Path_8782" data-name="Path 8782" d="M273.416,180.942l-.914-1.085.037-.034,2.072.474c.7.043,1.407.087,2.112.132q-.986.382-1.972.766l-1.833,1.078-.043-.014Z" transform="translate(-272.502 -179.823)" fill="#f05260"/>
            </g>
          </g>
        </g>
        <path id="Path_8783" data-name="Path 8783" d="M274.3,174.16a.441.441,0,0,0-.588-.144L271.8,175l-.9-1.638a.45.45,0,0,0-.6-.13.422.422,0,0,0-.237.555l.872,1.658-2.086,1.078a.534.534,0,0,0-.3.649.411.411,0,0,0,.444.227.6.6,0,0,0,.207-.069l2.128-1.133.969,1.841a.427.427,0,0,0,.448.217.552.552,0,0,0,.209-.077.516.516,0,0,0,.213-.667l-.973-1.776,1.9-1.014A.413.413,0,0,0,274.3,174.16Z" transform="translate(-248.507 -167.879)" fill="#29286a"/>
      </g>
      <path id="Path_8784" data-name="Path 8784" d="M259.039,186.216a6.88,6.88,0,0,0,3.558-.442,4.144,4.144,0,0,1,1.575-.574,8.7,8.7,0,0,0,1.867-.487,3.457,3.457,0,0,1,1.883-.294c.772.209.053.932-.5,1.344-.6.45-2.931.5-3.114,1.269s2.658.531,3.221.474c1.332-.132,1.756-1.042,2.767-1.711.59-.393.979-.391.947.426-.024.61-.6,1.028-1.04,1.374a7.244,7.244,0,0,1-3.2,1.5,8.471,8.471,0,0,0,3.126-1.087c.547-.316,2.645-2.068,3.215-1.251,1.149,1.64-4.555,3.993-5.68,3.921a9.908,9.908,0,0,0,3.217-.894c.616-.243,2.045-.876,1.816.288-.337,1.717-3.935,1.719-5.542,2.009a11.628,11.628,0,0,0,3.17-.2c1.4-.156,1.026.928-.379,1.336a16.084,16.084,0,0,1-2.094.341,10.746,10.746,0,0,1-6.785-1.486c-.882-.44-2.96-.316-3.282-1.105C257.164,189.445,258.512,187.511,259.039,186.216Z" transform="translate(-172.715 -106.16)" fill="#fcd4ca"/>
      <path id="Path_8785" data-name="Path 8785" d="M284.494,201.386l.7,8.1s-34.812,2.8-38.8.257-5.891-6.677-7.152-10.389c-2.524-7.423-12.463-27.875-3.505-30.991,2.806-.977,6.521-.953,8.4,2.714,4.2,8.2,8.7,26.5,9.88,27.275C255.678,199.442,284.494,201.386,284.494,201.386Z" transform="translate(-197.601 -122.272)" fill="#652d90"/>
    </g>
    <g id="Group_3797" data-name="Group 3797" transform="translate(435.726 372.524)">
      <g id="Group_3794" data-name="Group 3794">
        <path id="Path_8786" data-name="Path 8786" d="M293.666,297.719a29.446,29.446,0,1,1-20.2-36.417A29.446,29.446,0,0,1,293.666,297.719Z" transform="translate(-235.904 -260.156)" fill="#fbd804"/>
        <path id="Path_8787" data-name="Path 8787" d="M285.791,293.558a24.033,24.033,0,1,1-16.485-29.722A24.033,24.033,0,0,1,285.791,293.558Z" transform="translate(-233.233 -257.485)" fill="#ffb900"/>
      </g>
      <g id="Group_3796" data-name="Group 3796" transform="translate(17.069 10.554)">
        <g id="Group_3795" data-name="Group 3795">
          <path id="Path_8788" data-name="Path 8788" d="M257.594,271.723c5.046-.107,9.825,1.595,10.336,6.6l-8.346.853c-.237-1.889-2.22-2.1-3.438-1.972-.766.077-3.247.332-3.091,1.863.349,3.428,15.368-1.7,16.359,7.993.594,5.818-3.742,8.451-9.294,9.426l.993,6.144-5.1.521-.32-6.258c-5.242-.012-10.318-1.954-10.853-7.188l8.346-.851.018.18c.28,2.3,2.9,2.485,4.2,2.351,1.265-.128,3.736-.47,3.564-2.141-.363-3.562-15.412,1.255-16.371-8.127-.553-5.412,3.432-7.918,8.573-8.9l-.951-6.193,5.1-.521Z" transform="translate(-244.553 -265.504)" fill="#fbd804"/>
        </g>
      </g>
    </g>
    <g id="Group_3801" data-name="Group 3801" transform="translate(205.299 212.915)">
      <g id="Group_3798" data-name="Group 3798">
        <path id="Path_8789" data-name="Path 8789" d="M176.91,216.846a29.447,29.447,0,1,1-20.2-36.417A29.446,29.446,0,0,1,176.91,216.846Z" transform="translate(-119.148 -179.283)" fill="#fbd804"/>
        <path id="Path_8790" data-name="Path 8790" d="M169.035,212.684a24.033,24.033,0,1,1-16.485-29.722A24.033,24.033,0,0,1,169.035,212.684Z" transform="translate(-116.477 -176.613)" fill="#ffb900"/>
      </g>
      <g id="Group_3800" data-name="Group 3800" transform="translate(17.069 10.552)">
        <g id="Group_3799" data-name="Group 3799">
          <path id="Path_8791" data-name="Path 8791" d="M140.838,190.849c5.046-.1,9.824,1.595,10.336,6.6l-8.346.851c-.237-1.889-2.218-2.1-3.438-1.972-.766.079-3.247.332-3.091,1.863.349,3.43,15.368-1.7,16.359,7.995.594,5.818-3.742,8.449-9.294,9.424l.993,6.146-5.1.521-.322-6.26c-5.242-.012-10.318-1.954-10.851-7.188l8.344-.851.018.18c.28,2.3,2.9,2.485,4.2,2.353,1.267-.13,3.738-.472,3.564-2.141-.361-3.564-15.412,1.255-16.371-8.127-.551-5.414,3.432-7.92,8.573-8.9l-.949-6.2,5.1-.521Z" transform="translate(-127.797 -184.63)" fill="#fbd804"/>
        </g>
      </g>
    </g>
    <g id="Group_3805" data-name="Group 3805" transform="translate(45.67 321.586)">
      <g id="Group_3802" data-name="Group 3802">
        <path id="Path_8792" data-name="Path 8792" d="M96.025,271.909a29.446,29.446,0,1,1-20.2-36.417A29.445,29.445,0,0,1,96.025,271.909Z" transform="translate(-38.265 -234.346)" fill="#fbd804"/>
        <path id="Path_8793" data-name="Path 8793" d="M88.152,267.747a24.033,24.033,0,1,1-16.485-29.722A24.034,24.034,0,0,1,88.152,267.747Z" transform="translate(-35.594 -231.675)" fill="#ffb900"/>
      </g>
      <g id="Group_3804" data-name="Group 3804" transform="translate(17.067 10.554)">
        <g id="Group_3803" data-name="Group 3803">
          <path id="Path_8794" data-name="Path 8794" d="M59.954,245.913c5.048-.107,9.824,1.595,10.338,6.6l-8.348.851c-.237-1.887-2.218-2.1-3.438-1.97-.766.077-3.247.332-3.091,1.863.351,3.428,15.37-1.705,16.359,7.993.594,5.818-3.74,8.451-9.292,9.426l.991,6.144-5.1.521-.322-6.258c-5.242-.012-10.318-1.954-10.851-7.188l8.344-.853.018.182c.28,2.3,2.9,2.485,4.206,2.351,1.265-.128,3.736-.472,3.564-2.141-.363-3.564-15.414,1.255-16.373-8.127-.551-5.412,3.434-7.918,8.575-8.9l-.951-6.193,5.1-.521Z" transform="translate(-46.913 -239.694)" fill="#fbd804"/>
        </g>
      </g>
    </g>
    <g id="Group_3815" data-name="Group 3815" transform="translate(94.159 259.923)">
      <g id="Group_3806" data-name="Group 3806">
        <path id="Path_8795" data-name="Path 8795" d="M204.69,396.087h-66.6l5.474-80.288h55.654Z" transform="translate(10.43 -93.383)" fill="#242263"/>
        <path id="Path_8796" data-name="Path 8796" d="M148.9,376.131c16.657-5.53,36.349-9.5,52.669-17.571L198.656,315.8H143l-4.342,63.662C142.1,378.356,145.523,377.254,148.9,376.131Z" transform="translate(10.989 -93.382)" fill="#181745"/>
        <path id="Path_8797" data-name="Path 8797" d="M223.055,350.919a4.35,4.35,0,0,0-3.616-1.93H142.61a4.356,4.356,0,0,0-3.616,1.93l-10.061,15.013a4.353,4.353,0,0,0,3.616,6.777H229.5a4.353,4.353,0,0,0,3.616-6.777Z" transform="translate(0.793 -61.069)" fill="#242263"/>
        <path id="Rectangle_3482" data-name="Rectangle 3482" d="M9.5,0H354.14a9.5,9.5,0,0,1,9.5,9.5V234.263a9.5,9.5,0,0,1-9.5,9.5H9.5a9.5,9.5,0,0,1-9.5-9.5V9.5A9.5,9.5,0,0,1,9.5,0Z" fill="#242263"/>
        <rect id="Rectangle_3483" data-name="Rectangle 3483" width="330.153" height="208.938" transform="translate(16.742 16.15)" fill="#fff"/>
      </g>
      <g id="Group_3814" data-name="Group 3814" transform="translate(58.41 50.689)">
        <path id="Path_8798" data-name="Path 8798" d="M238.334,402.891V240.811a12.025,12.025,0,0,0-12.025-12.025H213.925c-20.521,0-17.713,46.227-17.713,46.227V402.891Z" transform="translate(8.483 -228.786)" fill="#82cec2"/>
        <path id="Path_8799" data-name="Path 8799" d="M321.1,228.786H110.273c-20.521,0-17.713,46.227-17.713,46.227V402.891H303.39V275.013S300.581,228.786,321.1,228.786Z" transform="translate(-92.43 -228.786)" fill="#ebebeb"/>
        <g id="Group_3808" data-name="Group 3808" transform="translate(25.161 72.364)">
          <rect id="Rectangle_3484" data-name="Rectangle 3484" width="168.778" height="27.866" fill="#fff"/>
          <g id="Group_3807" data-name="Group 3807" transform="translate(5.076 3.744)">
            <rect id="Rectangle_3485" data-name="Rectangle 3485" width="28.154" height="20.377" fill="#82cec2"/>
            <rect id="Rectangle_3486" data-name="Rectangle 3486" width="28.154" height="20.377" transform="translate(32.618)" fill="#82cec2"/>
            <rect id="Rectangle_3487" data-name="Rectangle 3487" width="28.154" height="20.377" transform="translate(65.236)" fill="#82cec2"/>
            <rect id="Rectangle_3488" data-name="Rectangle 3488" width="28.154" height="20.377" transform="translate(97.854)" fill="#ebebeb"/>
            <rect id="Rectangle_3489" data-name="Rectangle 3489" width="28.154" height="20.377" transform="translate(130.472)" fill="#ebebeb"/>
          </g>
        </g>
        <g id="Group_3810" data-name="Group 3810" transform="translate(31.523 148.833)">
          <g id="Group_3809" data-name="Group 3809">
            <rect id="Rectangle_3490" data-name="Rectangle 3490" width="29.162" height="11.881" fill="#f05260"/>
            <rect id="Rectangle_3491" data-name="Rectangle 3491" width="29.162" height="11.881" transform="translate(42.298)" fill="#f05260"/>
            <rect id="Rectangle_3492" data-name="Rectangle 3492" width="29.162" height="11.881" transform="translate(84.596)" fill="#f05260"/>
            <rect id="Rectangle_3493" data-name="Rectangle 3493" width="29.162" height="11.881" transform="translate(126.893)" fill="#f05260"/>
          </g>
        </g>
        <g id="Group_3812" data-name="Group 3812" transform="translate(23.721 22.753)">
          <rect id="Rectangle_3494" data-name="Rectangle 3494" width="171.658" height="29.666" fill="#f8931d"/>
          <g id="Group_3811" data-name="Group 3811" transform="translate(91.058 3.614)">
            <path id="Path_8800" data-name="Path 8800" d="M159.562,262.03v3.564h-3.1v-3.588a12.025,12.025,0,0,1-5.873-2.495l1.654-3.335a10.408,10.408,0,0,0,5.921,2.471c1.259,0,2.053-.466,2.053-1.326,0-2.775-8.6-1.1-8.6-6.878,0-2.585,1.865-4.381,4.849-4.871v-3.426h3.1v3.4a12.092,12.092,0,0,1,5.106,1.749l-1.608,3.379a12.7,12.7,0,0,0-5.269-1.745c-1.026,0-1.7.371-1.7,1.117,0,2.7,8.6,1.164,8.6,7.04C164.689,259.954,162.5,261.631,159.562,262.03Z" transform="translate(-150.588 -242.146)" fill="#fff"/>
            <path id="Path_8801" data-name="Path 8801" d="M165.033,249.827c3.845,0,6.339,2.027,6.339,4.94,0,3.45-2.633,5.688-6.665,5.688a12.02,12.02,0,0,1-6.481-2.052l1.7-3.308a5.941,5.941,0,0,0,4.267,2.053c1.656,0,2.585-.746,2.585-2.076,0-1.235-.93-1.934-2.562-1.934-.862,0-3.545.024-4.571.091v-9.321h10.979v3.45h-7.061v2.493C163.914,249.827,164.707,249.827,165.033,249.827Z" transform="translate(-143.152 -240.432)" fill="#fff"/>
            <path id="Path_8802" data-name="Path 8802" d="M178.5,255.095c0,3.146-2.587,5.337-6.645,5.337a11.107,11.107,0,0,1-6.432-2.005l1.725-3.284a6.116,6.116,0,0,0,4.381,2.025c1.8,0,2.8-.746,2.8-2.025,0-1.307-1-1.981-2.82-1.981H168.76v-2.285l3.823-3.661h-6.294l-.024-3.284h11.423V246.4l-4.407,4.1.815.116C176.686,251.015,178.5,252.6,178.5,255.095Z" transform="translate(-136.141 -240.409)" fill="#fff"/>
            <path id="Path_8803" data-name="Path 8803" d="M185.221,248.241a3.886,3.886,0,0,1-1.958,3.353,4.553,4.553,0,0,1,2.8,4.152c0,2.937-2.585,4.8-6.6,4.8-3.987,0-6.55-1.839-6.55-4.733a4.628,4.628,0,0,1,2.984-4.22,4.126,4.126,0,0,1-2.169-3.472c0-2.633,2.262-4.31,5.712-4.31C182.983,243.812,185.221,245.537,185.221,248.241Zm-8.323,7.131c0,1.33.91,2.053,2.564,2.053,1.681,0,2.613-.722,2.613-2.053,0-1.307-.932-2.029-2.589-2.029C177.808,253.342,176.9,254.065,176.9,255.371Zm.4-6.9c0,1.117.768,1.747,2.167,1.747,1.425,0,2.195-.63,2.195-1.747,0-1.164-.77-1.8-2.195-1.8C178.063,246.678,177.3,247.309,177.3,248.474Z" transform="translate(-128.854 -240.524)" fill="#fff"/>
            <path id="Path_8804" data-name="Path 8804" d="M186.886,249.827c3.847,0,6.341,2.027,6.341,4.94,0,3.45-2.637,5.688-6.669,5.688a12.025,12.025,0,0,1-6.481-2.052l1.705-3.308a5.927,5.927,0,0,0,4.263,2.053c1.658,0,2.589-.746,2.589-2.076,0-1.235-.932-1.934-2.566-1.934-.861,0-3.541.024-4.567.091v-9.321h10.979v3.45h-7.063v2.493C185.769,249.827,186.558,249.827,186.886,249.827Z" transform="translate(-121.878 -240.432)" fill="#fff"/>
          </g>
        </g>
        <rect id="Rectangle_3495" data-name="Rectangle 3495" width="70.312" height="28.514" transform="translate(123.627 109.159)" fill="#652d90"/>
        <g id="Group_3813" data-name="Group 3813" transform="translate(135.016 114.953)">
          <path id="Path_8805" data-name="Path 8805" d="M168.511,290.271c-2.54,0-3.775,1.634-3.73,4.291a4.373,4.373,0,0,1,3.8-1.749,4.94,4.94,0,0,1,5.222,5.293c0,3.45-2.426,5.641-6.015,5.641-4.336,0-6.947-3.1-6.947-8.111,0-5.222,2.913-8.6,7.413-8.6a10.508,10.508,0,0,1,5.2,1.352l-1.561,2.937A5.772,5.772,0,0,0,168.511,290.271Zm-3.286,7.882a2.162,2.162,0,0,0,2.4,2.238,2.118,2.118,0,0,0,2.333-2.309,2.068,2.068,0,0,0-2.285-2.214A2.213,2.213,0,0,0,165.225,298.153Z" transform="translate(-160.842 -287.032)" fill="#fff"/>
          <path id="Path_8806" data-name="Path 8806" d="M180.876,295.343c0,5.337-2.285,8.3-6.387,8.3-4.15,0-6.41-2.962-6.41-8.3s2.26-8.275,6.41-8.275C178.59,287.068,180.876,290,180.876,295.343Zm-8.717,0c0,3.73.675,5.293,2.331,5.293,1.632,0,2.307-1.563,2.307-5.293,0-3.754-.675-5.293-2.307-5.293C172.833,290.05,172.158,291.59,172.158,295.343Z" transform="translate(-153.796 -286.997)" fill="#fff"/>
          <path id="Path_8807" data-name="Path 8807" d="M184.464,292.032c0,3.055-1.772,4.966-4.567,4.966s-4.569-1.91-4.569-4.966c0-3.031,1.772-4.94,4.569-4.94S184.464,289,184.464,292.032Zm-6.5,0c0,1.678.724,2.7,1.936,2.7s1.934-1.026,1.934-2.7-.722-2.68-1.934-2.68S177.961,290.354,177.961,292.032Zm16.341-4.871L182.672,303.5h-3.9l11.632-16.339Zm3.545,11.47c0,3.051-1.772,4.964-4.571,4.964s-4.569-1.912-4.569-4.964c0-3.031,1.772-4.946,4.569-4.946S197.847,295.6,197.847,298.631Zm-6.5,0c0,1.678.724,2.7,1.934,2.7s1.934-1.024,1.934-2.7-.722-2.684-1.934-2.684S191.342,296.95,191.342,298.631Z" transform="translate(-146.739 -286.974)" fill="#fff"/>
        </g>
      </g>
    </g>
    <g id="Group_3828" data-name="Group 3828" transform="translate(306.538 416.928)">
      <g id="Group_3820" data-name="Group 3820" transform="translate(60.432)">
        <path id="Path_8808" data-name="Path 8808" d="M221.8,357.015a16.882,16.882,0,0,1,3.841,4.693,28.636,28.636,0,0,1,1.032,5.331H254.76c.176-2.7.493-4.687,1.115-5.173,2.305-1.8,30.273-19.55,23.044-46.275s-25.366-31.757-33.776-32.825-38.422,5.216-43.521,33.742C197.457,339.8,217.962,352.32,221.8,357.015Z" transform="translate(-201.066 -282.656)" fill="#fbd804"/>
        <g id="Group_3818" data-name="Group 3818" transform="translate(21.487 34.115)">
          <g id="Group_3817" data-name="Group 3817">
            <path id="Path_8809" data-name="Path 8809" d="M223.984,348.015s.008-21.662-1.583-24.755-8.881-13.918-10.12-16.2,1.3-4.934,3.245-1.557c1.662,2.885,8.755,12.763,10.336,16.805S228.8,349.1,228.8,349.1Z" transform="translate(-211.953 -296.086)" fill="#82cec2"/>
            <path id="Path_8810" data-name="Path 8810" d="M226.507,348.015s-.006-21.662,1.583-24.755,8.881-13.918,10.121-16.2-1.3-4.934-3.245-1.557c-1.662,2.885-8.753,12.763-10.336,16.805s-2.937,26.785-2.937,26.785Z" transform="translate(-202.47 -296.086)" fill="#82cec2"/>
            <g id="Group_3816" data-name="Group 3816" transform="translate(2.382)">
              <path id="Path_8811" data-name="Path 8811" d="M245.3,310.178c-2.929,1.37-7.924,1.537-11.613.418l-.1.075c-3.041,2.256-7.275,1.393-10.4-.886a34.066,34.066,0,0,1-10.018,1.721l-.014-2.07a34.067,34.067,0,0,0,8.281-1.208c-2.151-2.333-2.609-4.855-1.172-6.574,1.808-2.175,4.1-2.033,5.546-.931a4.837,4.837,0,0,1,.947,6.562A5.587,5.587,0,0,1,225.3,308.7a7.256,7.256,0,0,0,6.108.93,5.692,5.692,0,0,1-1.585-1.322c-.63-.789-1.453-2.453.144-4.658a3.845,3.845,0,0,1,3.852-1.875,3.58,3.58,0,0,1,2.645,2.958,5.369,5.369,0,0,1-1.115,4.2c3,.659,6.842.547,9.221-.558Zm-13-6.1a3.384,3.384,0,0,0-.72.758c-.8,1.111-.515,1.747-.176,2.175a4.769,4.769,0,0,0,1.9,1.3,3.643,3.643,0,0,0,1.2-3.134,1.67,1.67,0,0,0-1.143-1.4A1.35,1.35,0,0,0,232.3,304.077Zm-8.755,3.325a4.087,4.087,0,0,0,1.532-1.237,2.778,2.778,0,0,0-.511-3.779c-.864-.651-1.857-.436-2.72.592s.1,2.753,1.18,3.908C223.194,307.063,223.369,307.235,223.549,307.4Z" transform="translate(-213.16 -299.941)" fill="#82cec2"/>
            </g>
          </g>
        </g>
        <g id="Group_3819" data-name="Group 3819" transform="translate(23.83 78.587)">
          <path id="Path_8812" data-name="Path 8812" d="M228.832,325.161c-7.847,0-14.555-2.053-15.692-2.686.087.156.184.308.262.466,1.056,2.159,2.368,20.127,5.191,27.064a5.43,5.43,0,0,0,1.646,2.495,19.449,19.449,0,0,0,17.186,0A5.429,5.429,0,0,0,239.069,350c2.822-6.937,4.137-24.9,5.192-27.064.079-.158.174-.31.263-.466C243.387,323.109,236.677,325.161,228.832,325.161Z" transform="translate(-213.14 -322.475)" fill="#1e1ea4"/>
          <path id="Path_8813" data-name="Path 8813" d="M228.387,331.68a50.18,50.18,0,0,0,13.981-2.037c.3-2.132.562-4.054.807-5.524a41.7,41.7,0,0,1-29.578,0c.245,1.47.513,3.393.809,5.524A50.179,50.179,0,0,0,228.387,331.68Z" transform="translate(-212.695 -320.874)" fill="#242263"/>
          <path id="Path_8814" data-name="Path 8814" d="M227.7,336.081a52.387,52.387,0,0,0,12.524-1.618c.316-1.794.6-3.643.868-5.453a41.693,41.693,0,0,1-26.787,0c.266,1.81.553,3.659.87,5.453A52.362,52.362,0,0,0,227.7,336.081Z" transform="translate(-212.007 -316.113)" fill="#242263"/>
          <path id="Path_8815" data-name="Path 8815" d="M215.176,333.949a33.212,33.212,0,0,0,1.435,4.885c.087.209.176.395.264.584a49.264,49.264,0,0,0,19.949,0c.089-.189.178-.375.262-.584a32.724,32.724,0,0,0,1.435-4.885A41.78,41.78,0,0,1,215.176,333.949Z" transform="translate(-211.158 -311.304)" fill="#242263"/>
        </g>
      </g>
      <g id="Group_3827" data-name="Group 3827" transform="translate(0 92.923)">
        <g id="Group_3824" data-name="Group 3824">
          <g id="Group_3823" data-name="Group 3823">
            <g id="Group_3821" data-name="Group 3821">
              <path id="Path_8816" data-name="Path 8816" d="M217.526,329.739H200.319l-29.874,30.113H189.8Z" transform="translate(-170.445 -329.739)" fill="#f8931d"/>
            </g>
            <g id="Group_3822" data-name="Group 3822" transform="translate(153.277)">
              <path id="Path_8817" data-name="Path 8817" d="M248.11,329.739h17.207l29.874,30.113H275.833Z" transform="translate(-248.11 -329.739)" fill="#f8931d"/>
            </g>
          </g>
        </g>
        <g id="Group_3826" data-name="Group 3826" transform="translate(37.683)">
          <rect id="Rectangle_3496" data-name="Rectangle 3496" width="124.992" height="104.2" fill="#fbd804"/>
          <g id="Group_3825" data-name="Group 3825" transform="translate(15.702 39.144)">
            <path id="Path_8818" data-name="Path 8818" d="M205.531,374.592H197.5V349.573h8.036Z" transform="translate(-197.495 -349.573)" fill="#fff"/>
            <path id="Path_8819" data-name="Path 8819" d="M215.314,349.573c8.546,0,13.128,3.963,13.128,12.509s-4.583,12.51-13.128,12.51H204.477V349.573Zm-2.8,6v13.02h2.654c3.527,0,5.054-2,5.054-5.419v-2.181c0-3.42-1.528-5.419-5.054-5.419Z" transform="translate(-190.697 -349.573)" fill="#fff"/>
            <path id="Path_8820" data-name="Path 8820" d="M218.809,374.592V349.573h21.636v6h-13.6v3.456h11.638v5.745H226.845v3.819H240.7v6Z" transform="translate(-176.744 -349.573)" fill="#fff"/>
            <path id="Path_8821" data-name="Path 8821" d="M258.531,374.592h-8.508l-1.056-3.527H240.2l-1.054,3.527h-8.22l9.128-25.019H249.4Zm-14-18.036-2.654,8.909h5.419l-2.619-8.909Z" transform="translate(-164.943 -349.573)" fill="#fff"/>
          </g>
        </g>
      </g>
    </g>
    <g id="Group_3834" data-name="Group 3834" transform="translate(114.718 373.773)">
      <path id="Path_8822" data-name="Path 8822" d="M77.383,373.581s-5.1,10.008-3.967,12.086,22.523,10.953,25.072,9.678,2.684-4.954-1.411-7.9c-4.391-3.166-7.281-2.718-9.876-5.127s0-6.939,0-6.939Z" transform="translate(-73.252 -150.977)" fill="#242263"/>
      <path id="Path_8823" data-name="Path 8823" d="M111.735,377.08s-.255,10.942,1.6,12.416,25.007,1.352,26.862-.813.689-5.173-4.024-6.116c-4.237-.847-7.363.043-10.647-1.279-2.879-1.162-4.439-7.535-4.439-7.535Z" transform="translate(-35.797 -150.809)" fill="#242263"/>
      <path id="Path_8824" data-name="Path 8824" d="M117.128,315.987l-30.172,1.855s25.357,56.908,28.473,63.425,18.98,53.541,18.98,53.541l12.252-4.533s-13.951-49.008-15.65-53.259S117.128,315.987,117.128,315.987Z" transform="translate(-59.91 -207.049)" fill="#f05260"/>
      <path id="Path_8825" data-name="Path 8825" d="M106.9,338.1c.983-5.05,1.674-11.6,2.775-16.631.436-1.993,3.223-2.094,3.434-4.079a5.749,5.749,0,0,1-1.208-1.239l-24.946,1.533s25.357,56.908,28.473,63.425c.308.643.744,1.7,1.275,3.049-.014-1.093-.057-2.185-.138-3.272C115.912,372.1,105.784,343.835,106.9,338.1Z" transform="translate(-59.91 -206.891)" fill="#ca0045" opacity="0.32" style="mix-blend-mode: multiply;isolation: isolate"/>
      <path id="Path_8826" data-name="Path 8826" d="M120.756,317.279H94.977A39.09,39.09,0,0,0,92,337.676c1.557,11.048,1.934,36.29,1.747,39.122S76.484,418.346,74.5,428.922l11.881,4.249s23.42-47.875,24.174-49.008S120.756,317.279,120.756,317.279Z" transform="translate(-72.036 -205.792)" fill="#f05260"/>
      <path id="Path_8827" data-name="Path 8827" d="M101.6,318.1s5.1,7.365,8.64,6.8,25.07-15.439,25.07-15.439l-1.981-4.816s-19.688,13.458-21.672,12.889-4.533-5.948-4.533-5.948Z" transform="translate(-45.654 -218.09)" fill="#fcd4ca"/>
      <path id="Path_8828" data-name="Path 8828" d="M101.6,318.1s5.1,7.365,8.64,6.8,25.07-15.439,25.07-15.439l-1.981-4.816s-19.688,13.458-21.672,12.889-4.533-5.948-4.533-5.948Z" transform="translate(-45.654 -218.09)" fill="#e8a393"/>
      <path id="Path_8829" data-name="Path 8829" d="M88.341,353.567s25.874,5.854,45.7-1.322c0,0-4.437-18.319-6-28.518s-3.635-26.251-9.489-30.218-9.775-4.579-9.775-4.579-1.133,3.823-4.673,4.673-10.766-4.673-10.766-4.673-16.43,7.567-18.3,10.632c-3.831,6.278,11.506,23.646,13.772,32.852S88.341,353.567,88.341,353.567Z" transform="translate(-72.104 -233.392)" fill="#f8931d"/>
      <path id="Path_8830" data-name="Path 8830" d="M101.34,323.089c-1.206-4.212-1.087-13.618-6.071-18.372-2.877-2.747-6.394-7.006-10.667-7.746-5.161-.894-5.5.174-10.119-.9.963,7.786,12.347,21.536,14.279,29.383,2.266,9.207-.472,21.153-.472,21.153a112.429,112.429,0,0,0,22.7,2.248C106.337,341,103.728,331.442,101.34,323.089Z" transform="translate(-72.053 -226.435)" fill="#d66900"/>
      <path id="Path_8831" data-name="Path 8831" d="M82.364,284.527s5.806,10.34,2.974,13.456c0,0,7.79,7.081,13.88,4.107s2.56-5.646,2.56-5.646-4.259-1.861-6.383-10.784S82.364,284.527,82.364,284.527Z" transform="translate(-64.38 -240.745)" fill="#fcd4ca"/>
      <path id="Path_8832" data-name="Path 8832" d="M88.514,300.306A12.8,12.8,0,0,1,99,293.909a21.627,21.627,0,0,1-3.6-8.25c-2.126-8.925-13.032-1.133-13.032-1.133s5.806,10.34,2.974,13.456A24.348,24.348,0,0,0,88.514,300.306Z" transform="translate(-64.38 -240.745)" fill="#e8a393"/>
      <path id="Path_8833" data-name="Path 8833" d="M87.26,275.851a6.636,6.636,0,1,1-6.635-6.586A6.61,6.61,0,0,1,87.26,275.851Z" transform="translate(-72.535 -252.537)" fill="#242263"/>
      <path id="Path_8834" data-name="Path 8834" d="M92.309,272.578s4.3,1.275,5.3,5.029.5,2.195,1.344,2.69,5.313,3.825,4.958,4.391a14.375,14.375,0,0,1-3.187,2.266s.993,1.7,2.268,4.038-7.012,5.24-9.915,4.178S82.942,289.5,82.66,282.562,85.527,270.523,92.309,272.578Z" transform="translate(-64.11 -249.759)" fill="#fcd4ca"/>
      <path id="Path_8835" data-name="Path 8835" d="M79.147,275.26s5.37-2.55,7.89-3.683,5.447-2.834,9.13-1.983,7.022,4.664,5.068,8.99c0,0-2.613-3.56-5.163-2.828s-1.983,4.6-3.4,6.586,1.322,9,2.832,10.732c0,0,9.823.764,11.062-.876,0,0,.884,1.334,2.159,3.742s3.4,5.879.353,7.508-12.252-.071-13.032-.851-3.3-7.383-6.162-6.373-2.06,2.662-2.06,2.662-1.764,1.16-5.8-2.238-4.348-7.64-3.541-11.261A51.989,51.989,0,0,0,79.147,275.26Z" transform="translate(-68.505 -252.441)" fill="#242263"/>
      <path id="Path_8836" data-name="Path 8836" d="M88.536,283.516a20.3,20.3,0,0,0-3.2-4.4c-1.6-1.439-4.1.278-3.462,3.4S89.519,285.15,88.536,283.516Z" transform="translate(-64.954 -243.443)" fill="#fcd4ca"/>
      <g id="Group_3833" data-name="Group 3833" transform="translate(32.931)">
        <path id="Path_8837" data-name="Path 8837" d="M105.727,323.275a19.7,19.7,0,0,1,0,7.075c-.756,3.211-17.36,26.44-15.668,31.729s16.612,14.164,20.579,13.219,18.846-22.552,22.256-22.475,41.767,4.723,54.986-24.739.568-47.4-6.231-54.581-38.532-23.679-64.212-1.7C96.473,289.745,105.727,316.2,105.727,323.275Z" transform="translate(-89.938 -260.789)" fill="#fbd804"/>
        <g id="Group_3831" data-name="Group 3831" transform="translate(19.184 33.672)">
          <g id="Group_3830" data-name="Group 3830">
            <path id="Path_8838" data-name="Path 8838" d="M99.658,326.417s16.01-19.546,16.86-23.513,2.266-19.12,2.832-22.1,4.819-3.491,4.079.993c-.632,3.831-1.53,17.989-3.087,22.8S103.2,330.95,103.2,330.95Z" transform="translate(-99.658 -277.214)" fill="#82cec2"/>
            <path id="Path_8839" data-name="Path 8839" d="M108.117,324.724s14.776-20.5,18.39-22.335,17.9-7.1,20.628-8.417,2.135-5.554-2.007-3.687c-3.541,1.595-16.993,6.1-21.246,8.844s-21.056,23.334-21.056,23.334Z" transform="translate(-96.574 -266.2)" fill="#82cec2"/>
            <g id="Group_3829" data-name="Group 3829" transform="translate(21.159)">
              <path id="Path_8840" data-name="Path 8840" d="M140.216,302.738c-3.635-.774-8.384-4.111-11.048-7.7h-.14c-4.22,0-7.472-3.667-8.784-7.825-4.393-1.2-9.152-4.527-9.864-5.041l1.318-1.839a36.7,36.7,0,0,0,8,4.322c-.4-3.491.8-6.023,3.154-6.615a4.272,4.272,0,0,1,5.5,2.763,5.322,5.322,0,0,1-3.322,6.523,5.991,5.991,0,0,1-2.212.312c1,2.351,2.751,4.358,4.9,4.956a6.7,6.7,0,0,1-.586-2.281c-.061-1.145.259-3.205,3.1-4.139a4.262,4.262,0,0,1,4.689.87,4.158,4.158,0,0,1,.547,4.486,5.812,5.812,0,0,1-3.708,3.114c2.339,2.678,5.986,5.25,8.928,5.875Zm-8.141-14.616a3.663,3.663,0,0,0-1.135.205c-1.437.474-1.581,1.245-1.547,1.865a5.634,5.634,0,0,0,.9,2.479,3.914,3.914,0,0,0,3.1-2.06,1.936,1.936,0,0,0-.154-2.045A1.515,1.515,0,0,0,132.075,288.122Zm-9.984-2.816a4.384,4.384,0,0,0,2.151-.1,3.056,3.056,0,0,0,1.948-3.724c-.355-1.143-1.372-1.595-2.787-1.241s-1.662,2.518-1.445,4.261C121.992,284.765,122.035,285.035,122.09,285.306Z" transform="translate(-110.379 -277.85)" fill="#82cec2"/>
            </g>
          </g>
        </g>
        <g id="Group_3832" data-name="Group 3832" transform="translate(0 68.945)">
          <path id="Path_8841" data-name="Path 8841" d="M118.182,309.881c-3.381-3.006-8.479-5.751-10.535-9.971-.671-1.374-1.253-2.777-1.812-4.188-.036.205-.061.415-.109.616-.756,3.211-17.36,26.44-15.668,31.729s16.612,14.164,20.579,13.219c3.564-.849,15.915-18.335,20.863-21.826A68.826,68.826,0,0,1,118.182,309.881Z" transform="translate(-89.938 -295.723)" fill="#1e1ea4"/>
          <path id="Path_8842" data-name="Path 8842" d="M118.924,325.064c1.338-1.571,2.625-3.039,3.8-4.306-13.28-5.3-21.265-17.944-24-22.974-.91,1.559-2.1,3.5-3.4,5.641C101.618,313.7,113.617,321.811,118.924,325.064Z" transform="translate(-84.688 -293.717)" fill="#242263"/>
          <path id="Path_8843" data-name="Path 8843" d="M115.072,328.378c1.158-1.336,2.362-2.757,3.578-4.2-12.288-5.53-19.779-17.2-22.5-22.161-1.119,1.855-2.262,3.777-3.349,5.69C98.7,317.176,109.386,324.776,115.072,328.378Z" transform="translate(-87.153 -289.595)" fill="#242263"/>
          <path id="Path_8844" data-name="Path 8844" d="M114.337,327.464c-11.161-5.6-18.106-16.154-20.88-21.113a60.358,60.358,0,0,0-2.964,6.221c5.3,7.983,13.845,14.547,19.562,18.372a.312.312,0,0,1,.043,0C111.015,330.721,112.531,329.371,114.337,327.464Z" transform="translate(-89.398 -285.376)" fill="#242263"/>
        </g>
      </g>
      <path id="Path_8845" data-name="Path 8845" d="M88.109,304.052s7.365,15.157,8.925,15.3,28.4-1.983,30.346-3.116a22.915,22.915,0,0,0,3-2.495,15.186,15.186,0,0,1,1.387-1.091,15.73,15.73,0,0,0,1.733-.979c.414-.349,1.881-2.526,2.708-2.321.655.162.6.663.486,1.19-.152.679-1.084,1.324-1.535,1.81-.259.276-1.028,1.06-.892,1.5.182.6,1.512-.452,1.814-.643a5.224,5.224,0,0,0,1.237-1.066,16.92,16.92,0,0,0,1.133-1.5c.215-.314.422-.649.632-.961.353-.529.669-1,.975-1.559.231-.416.6-.892,1.127-.61.59.318.01,1.3-.221,1.725a14.594,14.594,0,0,0-.657,1.36c-.13.312-.645.839-.468,1.206a7.354,7.354,0,0,0,1.468-1.68c.27-.361,1.646-2.619,2.276-2.179,1,.7-.2,2.177-.659,2.8a6.609,6.609,0,0,1-1.028,1.145c-.172.14-.908.934-.778.922.947-.093,1.63-1.526,2.216-2.2.363-.416,1.514-1.63,1.676-.418a1.885,1.885,0,0,1-.489,1.277,6.7,6.7,0,0,1-1.482,1.6,5.378,5.378,0,0,0-.965,1.087c.707-.018,2.1-1.816,2.741-1.334.416.314-.039,1.172-.27,1.431-1.63,1.822-4.111,3.043-6.231,4.192a65.434,65.434,0,0,1-7.142,3.314c-3.479,1.376-33,10.622-36.543,10.2s-12.889-18.518-15.581-23.778S88.109,304.052,88.109,304.052Z" transform="translate(-68.002 -218.769)" fill="#fcd4ca"/>
      <path id="Path_8846" data-name="Path 8846" d="M82.587,322.819s9.347-3.464,14.731-8.319c0,0-12.055-27.091-20.618-20.294S82.587,322.819,82.587,322.819Z" transform="translate(-72.535 -229.32)" fill="#f8931d"/>
      <path id="Path_8847" data-name="Path 8847" d="M82.72,279.488a2.475,2.475,0,0,1,2.678,1.03c.967,1.419.211,3.45-.8,2.546s-.5-1.537-.616-2.2A2.05,2.05,0,0,0,82.72,279.488Z" transform="translate(-64.034 -242.657)" fill="#e8a393"/>
      <path id="Path_8848" data-name="Path 8848" d="M118.335,308.852c.464-.3,1.1.028,1.9.724-1.052-1.312-2.309-2.672-1.072-2.852,1.2-.176,2.025,1.676,2.893,2.252-.464-.645-3.205-2.552-2.137-3.985.634-.851,3.566,2.481,4.176,3.146-.572-.543-3.043-3.146-1.731-3.681,1.182-.484,2.876,1.743,3.716,2.453.618.519,1.486.949,1.63,1.8.28,1.656-2.139,2.787-3.395,3.14a6.516,6.516,0,0,1-4.942-.827C118.523,310.525,117.87,309.154,118.335,308.852Z" transform="translate(-29.51 -218.341)" fill="#fcd4ca"/>
    </g>
  </g>
</svg>
