<svg xmlns="http://www.w3.org/2000/svg" xmlns:xlink="http://www.w3.org/1999/xlink" width="500" height="403.32" viewBox="0 0 500 403.32">
  <defs>
    <clipPath id="clip-path">
      <rect width="500" height="403.32" fill="none"/>
    </clipPath>
  </defs>
  <g id="Repeat_Grid_1" data-name="Repeat Grid 1" clip-path="url(#clip-path)">
    <g id="Group_3878" data-name="Group 3878" transform="translate(-640.737 -168.934)">
      <g id="Group_3839" data-name="Group 3839" transform="translate(755.999 189.379)">
        <g id="Group_3836" data-name="Group 3836" transform="translate(0 0)">
          <circle id="Ellipse_7" data-name="Ellipse 7" cx="26.777" cy="26.777" r="26.777" transform="matrix(0.683, -0.731, 0.731, 0.683, 0, 39.13)" fill="#fbd804"/>
          <path id="Path_8849" data-name="Path 8849" d="M756.738,217.111a21.854,21.854,0,1,1-14.991-27.028A21.855,21.855,0,0,1,756.738,217.111Z" transform="translate(-697.883 -173.248)" fill="#ffb900"/>
        </g>
        <g id="Group_3838" data-name="Group 3838" transform="translate(26.584 20.659)">
          <g id="Group_3837" data-name="Group 3837">
            <path id="Path_8850" data-name="Path 8850" d="M731.633,197.492c4.589-.1,8.932,1.45,9.4,6l-7.589.774c-.217-1.717-2.019-1.906-3.126-1.793-.7.072-2.952.3-2.811,1.694.318,3.119,13.975-1.549,14.874,7.27.54,5.291-3.4,7.683-8.449,8.57l.9,5.589-4.636.474-.291-5.693c-4.767-.011-9.382-1.777-9.869-6.534l7.59-.775.016.163c.253,2.089,2.633,2.259,3.823,2.137,1.15-.117,3.4-.427,3.241-1.945-.33-3.241-14.016,1.141-14.887-7.39-.5-4.923,3.121-7.2,7.8-8.092l-.865-5.632,4.636-.474Z" transform="translate(-719.774 -191.837)" fill="#fbd804"/>
          </g>
        </g>
      </g>
      <g id="Group_3843" data-name="Group 3843" transform="translate(666.189 330.021)">
        <g id="Group_3840" data-name="Group 3840">
          <path id="Path_8851" data-name="Path 8851" d="M708.19,281.57A26.777,26.777,0,1,1,677.8,258.982,26.778,26.778,0,0,1,708.19,281.57Z" transform="translate(-654.919 -258.693)" fill="#fbd804"/>
          <path id="Path_8852" data-name="Path 8852" d="M701.139,280.108a21.854,21.854,0,1,1-24.806-18.435A21.854,21.854,0,0,1,701.139,280.108Z" transform="translate(-652.739 -256.513)" fill="#ffb900"/>
        </g>
        <g id="Group_3842" data-name="Group 3842" transform="translate(14.308 10.98)">
          <g id="Group_3841" data-name="Group 3841">
            <path id="Path_8853" data-name="Path 8853" d="M671.15,269.861c4.14-1.981,8.736-2.365,11.037,1.59l-6.594,3.835c-.9-1.475-2.626-.9-3.588-.343-.607.352-2.564,1.493-1.861,2.7,1.576,2.71,12.091-7.177,16.549.484,2.676,4.6.072,8.4-4.162,11.294l3.128,4.718-4.027,2.342-2.613-5.063c-4.347,1.956-9.28,2.252-11.685-1.883l6.594-3.837.081.142c1.093,1.8,3.333.973,4.366.372,1-.582,2.918-1.793,2.148-3.112-1.637-2.816-12.3,6.823-16.61-.589-2.487-4.279-.127-7.848,3.763-10.587l-3.11-4.774,4.025-2.344Z" transform="translate(-662.891 -264.811)" fill="#fbd804"/>
          </g>
        </g>
      </g>
      <g id="Group_3847" data-name="Group 3847" transform="translate(1069.451 337.015)">
        <g id="Group_3844" data-name="Group 3844" transform="translate(0 0)">
          <circle id="Ellipse_8" data-name="Ellipse 8" cx="26.777" cy="26.777" r="26.777" transform="translate(0 16.997) rotate(-18.505)" fill="#fbd804"/>
          <path id="Path_8854" data-name="Path 8854" d="M926.411,303.2a21.854,21.854,0,1,1-6.175-30.283A21.855,21.855,0,0,1,926.411,303.2Z" transform="translate(-874.291 -257.261)" fill="#ffb900"/>
        </g>
        <g id="Group_3846" data-name="Group 3846" transform="translate(21.804 16.662)">
          <g id="Group_3845" data-name="Group 3845">
            <path id="Path_8855" data-name="Path 8855" d="M907.889,278.283c4.408,1.287,8.085,4.067,7.163,8.55l-7.473-1.543c.31-1.7-1.351-2.425-2.443-2.649-.685-.142-2.907-.6-3.191.772-.634,3.069,13.8,2.723,12,11.4-1.075,5.208-5.553,6.306-10.635,5.635l-.818,5.6-4.564-.94,1.432-5.517c-4.542-1.441-8.413-4.514-7.446-9.2l7.469,1.542-.034.16c-.384,2.069,1.834,2.949,3,3.189,1.132.233,3.37.614,3.677-.883.659-3.191-13.711-3.123-11.979-11.522,1-4.846,5.142-5.931,9.867-5.375l.869-5.632,4.564.942Z" transform="translate(-891.769 -271.874)" fill="#fbd804"/>
          </g>
        </g>
      </g>
      <ellipse id="Ellipse_9" data-name="Ellipse 9" cx="250" cy="40.116" rx="250" ry="40.116" transform="translate(640.736 492.021)" fill="#e2e5e0"/>
      <rect id="Rectangle_3497" data-name="Rectangle 3497" width="317.782" height="46.661" transform="translate(735.739 459.658)" fill="#242263"/>
      <g id="Group_3850" data-name="Group 3850" transform="translate(705.586 238.127)">
        <rect id="Rectangle_3498" data-name="Rectangle 3498" width="378.087" height="253.447" rx="10.859" fill="#242263"/>
        <rect id="Rectangle_3499" data-name="Rectangle 3499" width="343.272" height="217.24" transform="translate(17.408 16.791)" fill="#fff"/>
        <path id="Path_8856" data-name="Path 8856" d="M985.92,422.619a146.321,146.321,0,1,0-278.46,0Z" transform="translate(-658.198 -188.588)" fill="#2d3192"/>
        <path id="Path_8857" data-name="Path 8857" d="M985.92,422.619a146.321,146.321,0,1,0-278.46,0Z" transform="translate(-658.198 -188.588)" fill="#82cec2"/>
        <g id="Group_3849" data-name="Group 3849" transform="translate(61.527 42.71)">
          <g id="Group_3848" data-name="Group 3848">
            <path id="Path_8858" data-name="Path 8858" d="M711.274,329.9c9.295.257,4.013,4.731,4.381,12.092.47,9.417,8.087,7.841,13.189,14.02,1.63,1.976,1.673,4.42,3.132,6.511,2.125,3.044,5.416,4.171,8.492,6.009,5.176,3.094,9.207,9.641,14.663,11.644,13.91,5.1-.736-16.748,0-21.186.5-3.013,2.773-3.047,1.552-5.982-1.123-2.7-3.83-3.308-6.086-3.153-1.617.111-3.6,3.563-5.607,2.076-2.685-1.987,1.689-4.512,2.1-5.933,1.567-5.409-6.292-9.2-9.169-4.652-1.256,1.985.815,7.408-2.913,6.2-2.486-.806-4.418-9.3-4.176-11.576,1.027-9.628,8.078-11.432,16.608-11.506,5.946-.05,9,.962,10.271,7.387,1.222,6.158-1.517,8.185,3.889,11.631,6.019,3.839,10.1,1.149,7.112-6.134-1.5-3.652-6.073-8.51-4.34-12.895.659-1.667,3.259-2.843,4.34-4.217,2.024-2.575.055-2.261,3.151-4.284,2.959-1.933,5.924-1.382,7.118-6.009,1.028-3.984-.5-4.146,2.507-7.137,6.036-6.009,10.6,1.463,16.154-1.5a25.031,25.031,0,0,1-2.909-6.283c1.326-1.637,14.986-.572,7.066-7.121,4.9-2.918,3.991,5.4,8.063,4.553,5.492-1.138-3.8-6.113-3.989-7.035-.808-3.851,5.285-3.887,7.507-2.414,3.2,2.123,1.917,8.412,7.017,7.486.574,4.5,6.193,2.936,6.2-.574.005-3.281-3.92-2.563-3.973-6.511-.056-4.226,3.3-4.015.872-7.913-1.612-2.588-5.249-1.041-4.6-5.535-2-.151-3.8,3.34-4.485,1.428-1.77-4.953-3.934-15.235-10.632-7.965-2.769-2.209-3.894-6.113-7.6-6.057-4.892.074-4.295,5.738-7.092,9.04-1.262,1.49-3.453,2.365-4.707,3.954-1.389,1.761.418,3.959-2.888,4.557-5.511,1-3.844-6.346-3.117-8.952-8.238-.908-5.355-7.934,1.091-8.108,2.417-.065,5.969,1.8,8.621-.09,2.409-1.712,1.587-5.346,4.979-5.33.786,8.833,7.074,1.143,11.139.488-.355,1.007.013,2.85-.352,3.866,13.106,2.014.14-16.066,9.038-19.355,5.795-2.141,6.834,3.019,6.61,7.536-.255,5.151.014,7.376,3.116,10.894,3.293,3.736,6.473,7.8,9.641,1,.591-1.265.242-5.072.967-5.908,1.265-1.459,5.2-1.129,7.014-2.468,6.256-4.619,2.464-12.507-3.062-17.2a145.915,145.915,0,0,0-50.441,9.278,7.643,7.643,0,0,0-1.787,3.186,7.162,7.162,0,0,1-4.851-.506,146.835,146.835,0,0,0-68.531,60.929,18.045,18.045,0,0,0,.149,2.3,6.165,6.165,0,0,0,.407,1.143c.643,1.766,2.146,6.111,2.01,9.214C713.93,321.474,710.477,325.494,711.274,329.9Z" transform="translate(-711.155 -231.287)" fill="#fbd804"/>
            <path id="Path_8859" data-name="Path 8859" d="M908.29,420.507a146.162,146.162,0,0,0-27.053-138.019c-3.722-.17-6.687,1.644-8.458,5.9-1.158,2.776-.824,11.753-4.673,12.529-4.126.831-7.512-22.071-15.723-9.4-1.086,1.676-.493,3.923-1.367,5.52-1.229,2.249-2.191,2.2-3.871,3.08,2.557-5-4.445-16.527,2.757-16.186,1.637-3.53-.933-7.259.088-10.942,1.988-7.164,3.516-.741,5.093,2.478.919,1.875,4.763,9.054,8.11,6.572,2.444-1.813-.589-9.544-.465-11.978,2.984.515,3.8,4.684,6.987,5.429a13.726,13.726,0,0,0,5.594.357,146.061,146.061,0,0,0-75.993-42.787,9.281,9.281,0,0,1,.029,3.9c-.511,3.053-2.058,2.5,0,5.51,1.642,2.394,6.082,2.893,8.124,4.982,1.319,1.348,1.642,2.97,3,4.383,1.725,1.789,4.348,2.288,5.707,4.618a28.069,28.069,0,0,1,1.863,2.941c-3.1.632-7.841-4.234-9.62-1.438-1.94,3.053,3.381,6.335,4.112,8.525.9,2.69-1.736,7.186,3.013,7.536,4.417.325,2.846-4.752,2.609-7.46,4.989-.61,5.578,3.561,7.649,6.3,2.771,3.661,6.667,2.8,9.494,5.61,5.829,5.795-.96,4.266-3.519,4.408-2.4.133-3.553-.623-5.484,1.651-2.479,2.918-.951,1.321.282,4.106,1.055,2.387,3.6,9.9,5.169,11.3,1.141,1.025,9.837,2.426,12.575,2.2-2.365,2.12-3.554,4.517-5.984,7.43-4.768,5.714-2.338,4.051-1.495,10.5.727,5.571-3.767,7.317-5.226,12.019-1.682,5.418,2.487,11.771,3.15,16.637.621,4.567,2.888,5.215,4.733,8.765,1.429,2.749,1.28,5.616,3.3,8.677,2.9,4.393,10.2,12.236,16.3,11.5,4.273-.511,2.545-4.2,5.154-6.055,2.744-1.949,6.821,1.177,6.57-4.393,1.621.054,5.712,3.01,7.028,2.487,2.432-.969,1.457-5.391,1.583-7.5,6.434-1.084,5.305,7.719,3.85,10.942-.709,1.57-2.811,3.882-2.911,5.535-.183,3.008,1.748,2.168,3.074,4.98,1.48,3.142-.379,8.451-.546,12.019-.113,2.41-.736,3.019-.379,5.51.325,2.265,2,4.189,1.784,6.509-.49,5.368-6.482,6.418-8,10.517a12.389,12.389,0,0,0-.648,3h32.279C908.06,420.973,908.175,420.738,908.29,420.507Z" transform="translate(-641.9 -229.883)" fill="#fbd804"/>
            <path id="Path_8860" data-name="Path 8860" d="M848.356,359.477c2.394-4.02,1.219-10.493-3.442-12.433-2.4-1-5.757.9-8.1-.44-3.638-2.078-1.657-3.762-6.066-4.655-2.766-.558-5.321.791-8,.391-2.807-.422-5.723-4.128-9.228-3.9-5.422-4.388-5.574-9.876-9.244-15.535-3.963-6.111-6.4-4.137-12-3.995-5.531.14-9.253-5.271-14.738-6.524a18.831,18.831,0,0,0-5.682-.135c-2.581.142-3.187.429-6.471-.224-1.676-.334-4.4-.047-5.939-.517a19.461,19.461,0,0,1-2.288.036c-.96-.235-.307-2.565-1.865-2.7-1.945-.165-12.065,5.133-12.821,6.56-1.8,3.4,1.735,4.8,2.085,7.507.406,3.121-.809,3.471-2.43,5.648-2.99,4.024-5.379,7.687-5.608,12.992-.165,3.812,1.57,5.041,2.949,8.377,1.385,3.354.691,6.217,1.127,9.666a13.271,13.271,0,0,0,.316,1.371H847.254A17.271,17.271,0,0,0,848.356,359.477Z" transform="translate(-691.014 -169.651)" fill="#fbd804"/>
          </g>
        </g>
      </g>
      <path id="Path_8861" data-name="Path 8861" d="M876.487,352.4H663.568c.111.438-.522,15.251,10.615,23.937,4.173,3.255,10.077,4.872,16.118,4.872h372.37c6.042,0,11.945-1.617,16.12-4.872,11.136-8.686,10.5-23.5,10.614-23.937Z" transform="translate(18.143 145.793)" fill="#242263"/>
      <g id="Group_3854" data-name="Group 3854" transform="translate(766.985 353.153)">
        <path id="Path_8862" data-name="Path 8862" d="M803.563,281.474H792.868v121.4h10.695a8.617,8.617,0,0,0,8.831-8.386V289.861A8.617,8.617,0,0,0,803.563,281.474Z" transform="translate(-646.091 -263.721)" fill="#cbcbcb"/>
        <path id="Path_8863" data-name="Path 8863" d="M812.394,311.964v-22.1a8.617,8.617,0,0,0-8.831-8.386H792.868v30.49Z" transform="translate(-646.091 -263.721)" fill="#242263"/>
        <rect id="Rectangle_3500" data-name="Rectangle 3500" width="157.898" height="127.843" rx="4.921" transform="translate(0 17.388)" fill="#ebebeb"/>
        <path id="Path_8864" data-name="Path 8864" d="M868.554,281.271H719.915a8.831,8.831,0,0,0-8.832,8.831v21.764h157.9v-15.54a7.846,7.846,0,0,1,.077-1.111c.63-4.512,7.609-4.519,8.25-.007a8.252,8.252,0,0,1,.077,1.118v-6.3A8.923,8.923,0,0,0,868.554,281.271Z" transform="translate(-711.083 -263.883)" fill="#f05260"/>
        <rect id="Rectangle_3501" data-name="Rectangle 3501" width="157.898" height="2.845" transform="translate(0 45.139)" fill="#f8931d"/>
        <g id="Group_3851" data-name="Group 3851" transform="translate(33.235)">
          <path id="Path_8865" data-name="Path 8865" d="M751.443,289.262h-8.665s.969-12.155-2.457-14.937v-2.651S751.443,272.839,751.443,289.262Z" transform="translate(-721.084 -271.509)" fill="#242263"/>
          <path id="Path_8866" data-name="Path 8866" d="M729.6,289.335h14.987s-1.678-12.155,4.25-14.937l3.6-1.368a8.745,8.745,0,0,0-5.379-1.448C742.292,271.582,729.6,272.382,729.6,289.335Z" transform="translate(-729.602 -271.582)" fill="#fff"/>
        </g>
        <g id="Group_3852" data-name="Group 3852" transform="translate(101.241)">
          <path id="Path_8867" data-name="Path 8867" d="M789.336,289.262h-8.665s.969-12.155-2.457-14.937v-2.651S789.336,272.839,789.336,289.262Z" transform="translate(-758.977 -271.509)" fill="#242263"/>
          <path id="Path_8868" data-name="Path 8868" d="M767.5,289.335h14.987s-1.678-12.155,4.25-14.937l3.6-1.368a8.75,8.75,0,0,0-5.38-1.448C780.185,271.582,767.5,272.382,767.5,289.335Z" transform="translate(-767.495 -271.582)" fill="#fff"/>
        </g>
        <rect id="Rectangle_3502" data-name="Rectangle 3502" width="16.915" height="12.823" transform="translate(10.863 55.349)" fill="#fff"/>
        <rect id="Rectangle_3503" data-name="Rectangle 3503" width="16.915" height="12.823" transform="translate(34.714 55.349)" fill="#fff"/>
        <rect id="Rectangle_3504" data-name="Rectangle 3504" width="16.915" height="12.823" transform="translate(58.566 55.349)" fill="#fff"/>
        <rect id="Rectangle_3505" data-name="Rectangle 3505" width="16.915" height="12.823" transform="translate(82.417 55.349)" fill="#fff"/>
        <rect id="Rectangle_3506" data-name="Rectangle 3506" width="16.915" height="12.823" transform="translate(106.269 55.349)" fill="#fff"/>
        <rect id="Rectangle_3507" data-name="Rectangle 3507" width="16.915" height="12.823" transform="translate(130.12 55.349)" fill="#fff"/>
        <rect id="Rectangle_3508" data-name="Rectangle 3508" width="16.915" height="12.823" transform="translate(10.863 77.244)" fill="#fff"/>
        <rect id="Rectangle_3509" data-name="Rectangle 3509" width="16.915" height="12.823" transform="translate(34.714 77.244)" fill="#fff"/>
        <rect id="Rectangle_3510" data-name="Rectangle 3510" width="16.915" height="12.823" transform="translate(58.566 77.244)" fill="#fff"/>
        <rect id="Rectangle_3511" data-name="Rectangle 3511" width="16.915" height="12.823" transform="translate(82.417 77.244)" fill="#fff"/>
        <rect id="Rectangle_3512" data-name="Rectangle 3512" width="16.915" height="12.823" transform="translate(106.269 77.244)" fill="#fff"/>
        <rect id="Rectangle_3513" data-name="Rectangle 3513" width="16.915" height="12.823" transform="translate(130.12 77.244)" fill="#fff"/>
        <rect id="Rectangle_3514" data-name="Rectangle 3514" width="16.915" height="12.823" transform="translate(10.863 99.14)" fill="#fff"/>
        <rect id="Rectangle_3515" data-name="Rectangle 3515" width="16.915" height="12.823" transform="translate(34.714 99.14)" fill="#fff"/>
        <rect id="Rectangle_3516" data-name="Rectangle 3516" width="16.915" height="12.823" transform="translate(58.566 99.14)" fill="#fff"/>
        <rect id="Rectangle_3517" data-name="Rectangle 3517" width="16.915" height="12.823" transform="translate(82.417 99.14)" fill="#fff"/>
        <rect id="Rectangle_3518" data-name="Rectangle 3518" width="16.915" height="12.823" transform="translate(106.269 99.14)" fill="#fff"/>
        <rect id="Rectangle_3519" data-name="Rectangle 3519" width="16.915" height="12.823" transform="translate(130.12 99.14)" fill="#fff"/>
        <rect id="Rectangle_3520" data-name="Rectangle 3520" width="16.915" height="12.823" transform="translate(10.863 121.035)" fill="#fff"/>
        <rect id="Rectangle_3521" data-name="Rectangle 3521" width="16.915" height="12.823" transform="translate(34.714 121.035)" fill="#fff"/>
        <rect id="Rectangle_3522" data-name="Rectangle 3522" width="16.915" height="12.823" transform="translate(58.566 121.035)" fill="#fff"/>
        <rect id="Rectangle_3523" data-name="Rectangle 3523" width="16.915" height="12.823" transform="translate(82.417 121.035)" fill="#fff"/>
        <path id="Path_8869" data-name="Path 8869" d="M724.3,303.055l1.31,4.031h4.238l-3.429,2.491,1.309,4.031-3.429-2.491-3.429,2.491,1.31-4.031-3.429-2.491H723Z" transform="translate(-704.985 -246.571)" fill="#fbd804"/>
        <path id="Path_8870" data-name="Path 8870" d="M724.3,315.391l1.31,4.031h4.238l-3.429,2.491,1.309,4.031-3.429-2.491-3.429,2.491,1.31-4.031-3.429-2.491H723Z" transform="translate(-704.985 -236.769)" fill="#fbd804"/>
        <path id="Path_8871" data-name="Path 8871" d="M737.6,303.055l1.31,4.031h4.238l-3.429,2.491,1.309,4.031-3.429-2.491-3.429,2.491,1.31-4.031-3.429-2.491h4.238Z" transform="translate(-694.424 -246.571)" fill="#fbd804"/>
        <path id="Path_8872" data-name="Path 8872" d="M750.885,303.055l1.31,4.031h4.238L753,309.577l1.31,4.031-3.429-2.491-3.429,2.491,1.31-4.031-3.429-2.491h4.238Z" transform="translate(-683.862 -246.571)" fill="#fbd804"/>
        <path id="Path_8873" data-name="Path 8873" d="M750.885,315.255l1.31,4.031h4.238L753,321.777l1.31,4.031-3.429-2.491-3.429,2.491,1.31-4.031-3.429-2.491h4.238Z" transform="translate(-683.862 -236.876)" fill="#fbd804"/>
        <path id="Path_8874" data-name="Path 8874" d="M764.176,303.055l1.31,4.031h4.238l-3.429,2.491,1.31,4.031-3.429-2.491-3.429,2.491,1.31-4.031-3.429-2.491h4.238Z" transform="translate(-673.301 -246.571)" fill="#fbd804"/>
        <path id="Path_8875" data-name="Path 8875" d="M764.176,315.255l1.31,4.031h4.238l-3.429,2.491,1.31,4.031-3.429-2.491-3.429,2.491,1.31-4.031-3.429-2.491h4.238Z" transform="translate(-673.301 -236.876)" fill="#fbd804"/>
        <path id="Path_8876" data-name="Path 8876" d="M777.466,303.055l1.31,4.031h4.238l-3.429,2.491,1.309,4.031-3.429-2.491-3.429,2.491,1.31-4.031-3.429-2.491h4.238Z" transform="translate(-662.74 -246.571)" fill="#fbd804"/>
        <path id="Path_8877" data-name="Path 8877" d="M737.6,327.607l1.31,4.031h4.238l-3.429,2.491,1.309,4.031-3.429-2.491-3.429,2.491,1.31-4.031-3.429-2.491h4.238Z" transform="translate(-694.424 -227.061)" fill="#fbd804"/>
        <path id="Path_8878" data-name="Path 8878" d="M737.6,339.656l1.31,4.031h4.238l-3.429,2.491,1.309,4.031-3.429-2.491-3.429,2.491,1.31-4.031-3.429-2.491h4.238Z" transform="translate(-694.424 -217.486)" fill="#fbd804"/>
        <path id="Path_8879" data-name="Path 8879" d="M764.176,327.456l1.31,4.031h4.238l-3.429,2.491,1.31,4.031-3.429-2.491-3.429,2.491,1.31-4.031-3.429-2.491h4.238Z" transform="translate(-673.301 -227.181)" fill="#fbd804"/>
        <path id="Path_8880" data-name="Path 8880" d="M777.466,327.456l1.31,4.031h4.238l-3.429,2.491,1.309,4.031-3.429-2.491-3.429,2.491,1.31-4.031-3.429-2.491h4.238Z" transform="translate(-662.74 -227.181)" fill="#fbd804"/>
        <g id="Group_3853" data-name="Group 3853" transform="translate(125.964 36.461)">
          <circle id="Ellipse_10" data-name="Ellipse 10" cx="26.1" cy="26.1" r="26.1" transform="translate(0 51.254) rotate(-79.07)" fill="#652d90"/>
          <circle id="Ellipse_11" data-name="Ellipse 11" cx="18.923" cy="18.923" r="18.923" transform="translate(11.652 11.652)" fill="#fff"/>
          <path id="Path_8881" data-name="Path 8881" d="M802.866,314.178c-.438-.011-4.191-10.795-5.459-10.371-1.782.594-6.655,2.947-6.775,4.978s9.829,19.515,11.493,19.515c3.5,0,18.194-19.4,17-21.6s-6.732-5.23-7.565-4.4C810.951,302.922,803.243,314.187,802.866,314.178Z" transform="translate(-773.834 -283.738)" fill="#f8931d"/>
        </g>
      </g>
      <g id="Group_3859" data-name="Group 3859" transform="translate(702.963 345.944)">
        <path id="Path_8882" data-name="Path 8882" d="M727.013,293.957c21.326,27.336,15.782,21.836,19.723,25.312s29.89,18.537,29.89,18.537l-2.78,12.975s-31.744-18.072-35.683-21.317-19.115-19.695-19.115-19.695Z" transform="translate(-640.731 -246.592)" fill="#652d90"/>
        <path id="Path_8883" data-name="Path 8883" d="M764.1,328.484a5.252,5.252,0,0,1-5.576.185,127.085,127.085,0,0,1-12.782-7.5,39.935,39.935,0,0,1-6.8-5.176,103.353,103.353,0,0,1-10.5-11.193c-1.674-2.139-4.007-3.869-5.958-5.84l-3.44,6.834s15.176,16.452,19.115,19.695,35.683,21.317,35.683,21.317l2.751-12.841C772.429,332.361,768.224,330.514,764.1,328.484Z" transform="translate(-640.731 -242.616)" fill="#406"/>
        <path id="Path_8884" data-name="Path 8884" d="M721.338,378.347A26.293,26.293,0,0,0,720,385.209c-.014,2.994.2,6.174,1.12,6.926,1.836,1.5,25.05,1.7,26.94-.447s.63-5.614-4.287-6.814c-5.271-1.285-6.007-.736-9.325-2s-2.514-4.987-2.514-4.987Z" transform="translate(-639.976 -179.894)" fill="#242263"/>
        <path id="Path_8885" data-name="Path 8885" d="M694.718,375.714a26.339,26.339,0,0,0-3.7,5.935c-1.079,2.792-2.01,5.842-1.422,6.872,1.179,2.058,22.8,10.513,25.33,9.183s2.59-5.023-1.578-7.895c-4.467-3.081-5.35-2.83-8-5.19s-.573-5.558-.573-5.558Z" transform="translate(-664.278 -181.623)" fill="#242263"/>
        <path id="Path_8886" data-name="Path 8886" d="M734.511,323.167l-31.279,3.476s27.973,44.719,30.089,51.9-.779,46.225-.779,46.225h14.164s3.04-46.11,2.346-49.585S734.511,323.167,734.511,323.167Z" transform="translate(-653.3 -223.38)" fill="#f05260"/>
        <path id="Path_8887" data-name="Path 8887" d="M743.274,324.458H707.565s-4.171,10.949-2.26,19.289,3.186,26.068,3.013,29.2-17.611,44.834-17.611,44.834l13,4.835s17.929-39.764,19.668-44.281S743.274,324.458,743.274,324.458Z" transform="translate(-663.252 -222.354)" fill="#f05260"/>
        <path id="Path_8888" data-name="Path 8888" d="M726.167,284.053a31.8,31.8,0,0,1-8.622-.684,12.839,12.839,0,0,1-2.931-1.028c-.3,3.588-1.312,11.96-4.282,15.111,0,0,.406,4.228,7.819,5.271s8.946-4.46,8.946-4.46S725.667,289.338,726.167,284.053Z" transform="translate(-647.657 -255.823)" fill="#fcd4ca"/>
        <path id="Path_8889" data-name="Path 8889" d="M710.356,297.587c.014.075.039.179.077.307l.013.039a4.2,4.2,0,0,0,.178.461l.009.022a5.384,5.384,0,0,0,.312.574l.054.084a6.205,6.205,0,0,0,1.2,1.337l.09.075a7.754,7.754,0,0,0,.94.651c.045.027.1.054.144.081a10.092,10.092,0,0,0,1.247.607,10.556,10.556,0,0,1,2.843-5A13.212,13.212,0,0,1,726.433,293a50.78,50.78,0,0,1-.266-8.948,31.8,31.8,0,0,1-8.622-.684,12.839,12.839,0,0,1-2.931-1.028c-.3,3.588-1.312,11.96-4.282,15.111l.014.092Z" transform="translate(-647.657 -255.823)" fill="#e8a393"/>
        <path id="Path_8890" data-name="Path 8890" d="M714.1,272s12.421-3.056,14.237,0,1.242,7.836,1.958,9.986,3.656,4.515,3.941,5.375-2.15,2.365-2.507,3.01-1.911,7.525-4.11,8.959-13.422-3.153-16-8.672S710.734,273.628,714.1,272Z" transform="translate(-647.629 -265.118)" fill="#fcd4ca"/>
        <path id="Path_8891" data-name="Path 8891" d="M736.538,290.9s-8.72,4.332-15.8-.872c0,0-13.48,2.356-15.133,3.028-1.371.558,2.233,19.747.668,29.391s-7.819,33.018-7.819,33.018,16.509,12.685,44.834,4.691c0,0,.924-32.774.623-41.88-.443-13.324-.535-21.2-.535-21.2A82.022,82.022,0,0,0,736.538,290.9Z" transform="translate(-657.096 -249.713)" fill="#652d90"/>
        <path id="Path_8892" data-name="Path 8892" d="M715.914,341.307c-1.235-5.066-2.1-10.012-1.21-15.251.962-5.675-3.108-13.153-3.869-18.927-.813-6.175-1.448-10.37-5.506-13.787.275,5.824,2.159,19,.946,26.473-1.563,9.645-7.819,33.018-7.819,33.018s10.484,8,29.03,7.254C720.176,355.67,717.959,349.712,715.914,341.307Z" transform="translate(-657.096 -247.08)" fill="#406"/>
        <path id="Path_8893" data-name="Path 8893" d="M675.409,344.7l20.506,55.146,125.121-43.792-19.927-54.451Z" transform="translate(-675.409 -240.514)" fill="#f8931d"/>
        <path id="Path_8894" data-name="Path 8894" d="M681.748,345.974l14.191,39.592,109.893-39.143-14.511-39.4Z" transform="translate(-670.372 -236.209)" fill="#fff"/>
        <path id="Path_8895" data-name="Path 8895" d="M748.205,324.351a6.865,6.865,0,1,1-6.865-6.865A6.864,6.864,0,0,1,748.205,324.351Z" transform="translate(-628.471 -227.894)" fill="#f8931d"/>
        <path id="Path_8896" data-name="Path 8896" d="M703.372,339.276a6.865,6.865,0,1,1-6.865-6.865A6.865,6.865,0,0,1,703.372,339.276Z" transform="translate(-664.099 -216.034)" fill="#f8931d"/>
        <g id="Group_3858" data-name="Group 3858" transform="translate(54.605 90.473)">
          <g id="Group_3855" data-name="Group 3855" transform="translate(0 0)">
            <path id="Path_8897" data-name="Path 8897" d="M740.972,336.779a17.1,17.1,0,1,1-16.335-17.83A17.1,17.1,0,0,1,740.972,336.779Z" transform="translate(-705.077 -317.218)" fill="#f8931d"/>
            <circle id="Ellipse_12" data-name="Ellipse 12" cx="13.955" cy="13.955" r="13.955" transform="matrix(0.46, -0.888, 0.888, 0.46, 0, 24.777)" fill="#fff"/>
          </g>
          <g id="Group_3857" data-name="Group 3857" transform="translate(11.113 8.089)">
            <g id="Group_3856" data-name="Group 3856">
              <path id="Path_8898" data-name="Path 8898" d="M718.381,325.959c2.837-.743,5.765-.429,6.73,2.329l-4.6,1.61c-.389-1.034-1.536-.883-2.207-.648-.422.147-1.789.626-1.493,1.47.662,1.89,8.448-3.042,10.319,2.3,1.124,3.205-.969,5.276-3.971,6.579l1.391,3.336-2.807.984-1.028-3.491c-2.961.7-6.091.293-7.1-2.592l4.6-1.61.034.1c.47,1.258,1.972,1.01,2.694.757.7-.244,2.046-.772,1.723-1.691-.687-1.963-8.533,2.794-10.346-2.374-1.043-2.981.867-4.935,3.638-6.184l-1.375-3.369,2.809-.984Z" transform="translate(-712.028 -322.484)" fill="#f8931d"/>
            </g>
          </g>
        </g>
        <path id="Path_8899" data-name="Path 8899" d="M722.359,274.89a12.181,12.181,0,0,1-1.581,6.274c-.8,1.43,2.681,5.5,1.581,7.222-.732,1.149-1.71.8-2.505-1.567a3.542,3.542,0,0,0-1.9-1.784c-2.941-1.436-3.848,3.1-1.22,4.585,1.84,1.037.5,5.752.5,5.752-2.093,1.463-8.688-.72-7.733-5.563.609-3.085.869-4.259-.185-5.065-1.908-1.461-4.3-5.379-.906-8.455,4.67-4.235.66-5.833,5.885-6.877S723.638,271.715,722.359,274.89Z" transform="translate(-650.544 -266.252)" fill="#242263"/>
        <path id="Path_8900" data-name="Path 8900" d="M710.4,273.173c.343-1.113,2.446-2.471,3.489-3.178a14.934,14.934,0,0,1,5.4-2.143,13.654,13.654,0,0,1,5.9.072c1.66.4,3.031,1.206,4.738,1.479a5.546,5.546,0,0,0,4.311-.632,10.933,10.933,0,0,1,.032,3.885,12.125,12.125,0,0,1-2.4,4.162c-2.656,3.6-9.513,5.339-14.192,3.16-2.261-1.052-4.291-1.965-5.33-4.02A11.989,11.989,0,0,0,710.4,273.173Z" transform="translate(-647.606 -267.565)" fill="#242263"/>
        <path id="Path_8901" data-name="Path 8901" d="M758.564,328.617c2.611-1.353,3.169-5.1,2.609-7.563-.45-1.994-2.446-2.462-5.346-3.255-1.96-.535-3.823-.955-4.524-.538-2.166,2.06,4.476,3.32,6.089,4.015,0,0-6.865-2.172-7.69-1.043-1.477,2.129,5.036,3.207,6.608,3.758-1.463-.705-4.306-1.263-4.785-1.028-1.26-.21-1.185.793-1.086,1.05.5,1.312,5.822,2.259,5.822,2.259-.942-.169-4.286-1.52-3.851.131.284,1.075,1.779,1.4,2.548,1.737A5.266,5.266,0,0,0,758.564,328.617Z" transform="translate(-616.544 -228.208)" fill="#fcd4ca"/>
        <path id="Path_8902" data-name="Path 8902" d="M707.325,319.919c2.451-.1,5.432.366,7.959.366,1.154,0,2.346-.169,3.489-.235.723-.043,2.191-.287,2.615.52.463.885-.987,1.2-1.558,1.324-.825.18-2.536.066-2.69,1.172-.226,1.6,2.778,2.033,3.95,2.547,1.086.477,3.966,1.491,2.078,2.556-1.272.716-3.95-.919-5.032-1.357a16.569,16.569,0,0,1,3.939,1.642c.737.424,2.188,1.009,2.188,1.838,0,1.217-2.69.486-3.354.2a11.976,11.976,0,0,1-2.994-1.655c1.131.6,5.276,2.355,3.92,3.792-.829.878-4.069-1.59-5.361-2.114.709.655,2.836,1,2.663,2.383-.088.7-1.29.142-1.868-.172-.813-.443-1.54-1.089-2.358-1.477a11.775,11.775,0,0,1-1.757-1.174c-1.468-1.044-2.8-1.292-4.068-2.653a45.528,45.528,0,0,0-3.526-3.606C707.919,322.947,705.514,321.186,707.325,319.919Z" transform="translate(-651.45 -225.972)" fill="#fcd4ca"/>
        <path id="Path_8903" data-name="Path 8903" d="M725.253,341.736l-3.476,8.033S685.889,338.127,687.57,328.7c1.477-8.272,22.36-35.987,26.909-36.981,6.114-1.337,8.562,13.232,5.05,16.764-7.4,7.448-17.97,17.923-17.1,19.612S725.253,341.736,725.253,341.736Z" transform="translate(-665.791 -248.437)" fill="#652d90"/>
      </g>
      <g id="Group_3870" data-name="Group 3870" transform="translate(922.537 358.96)">
        <path id="Path_8904" data-name="Path 8904" d="M856.708,297.262s-6.321,22.8-9.431,26.531-13.264,9.223-13.264,9.223l2.694,4.767s18.456-9.406,21.66-17.1a58.179,58.179,0,0,0,3.731-11.814c.508-2.821,2.593-9.84,1.554-12.642C862.974,294.4,858.159,293.427,856.708,297.262Z" transform="translate(-768.947 -259.081)" fill="#82cec2"/>
        <path id="Path_8905" data-name="Path 8905" d="M856.708,297.262s-6.321,22.8-9.431,26.531-13.264,9.223-13.264,9.223l2.694,4.767s18.456-9.406,21.66-17.1a58.179,58.179,0,0,0,3.731-11.814c.508-2.821,2.593-9.84,1.554-12.642C862.974,294.4,858.159,293.427,856.708,297.262Z" transform="translate(-768.947 -259.081)" fill="#29286a"/>
        <path id="Path_8906" data-name="Path 8906" d="M822.18,358.9l-4.659-4.352s-18.629-1.369-19.718.266,17.667,10.481,20.073,10.321S821.864,360.692,822.18,358.9Z" transform="translate(-797.758 -211.889)" fill="#82cec2"/>
        <path id="Path_8907" data-name="Path 8907" d="M847.58,322.745s-17.618-4.483-19.068-1.583S808.77,381.42,808.77,381.42l4.659,4.352s19.614-48.409,25.294-53.47S850.205,324.743,847.58,322.745Z" transform="translate(-789.007 -238.765)" fill="#fcd4ca"/>
        <path id="Path_8908" data-name="Path 8908" d="M847.58,322.745s-17.618-4.483-19.068-1.583S808.77,381.42,808.77,381.42l4.659,4.352s19.614-48.409,25.294-53.47S850.205,324.743,847.58,322.745Z" transform="translate(-789.007 -238.765)" fill="#e8a393"/>
        <g id="Group_3866" data-name="Group 3866" transform="translate(35.306 101.781)">
          <g id="Group_3860" data-name="Group 3860" transform="translate(14.751 74.973)">
            <rect id="Rectangle_3524" data-name="Rectangle 3524" width="87.046" height="14.995" fill="#fbd804"/>
            <rect id="Rectangle_3525" data-name="Rectangle 3525" width="4.382" height="14.995" transform="translate(4.868)" fill="#ffb900"/>
            <rect id="Rectangle_3526" data-name="Rectangle 3526" width="4.381" height="14.995" transform="translate(14.069)" fill="#ffb900"/>
            <rect id="Rectangle_3527" data-name="Rectangle 3527" width="4.381" height="14.995" transform="translate(23.271)" fill="#ffb900"/>
            <rect id="Rectangle_3528" data-name="Rectangle 3528" width="4.381" height="14.995" transform="translate(32.472)" fill="#ffb900"/>
            <rect id="Rectangle_3529" data-name="Rectangle 3529" width="4.381" height="14.995" transform="translate(41.673)" fill="#ffb900"/>
            <rect id="Rectangle_3530" data-name="Rectangle 3530" width="4.381" height="14.995" transform="translate(50.874)" fill="#ffb900"/>
            <rect id="Rectangle_3531" data-name="Rectangle 3531" width="4.381" height="14.995" transform="translate(60.076)" fill="#ffb900"/>
            <rect id="Rectangle_3532" data-name="Rectangle 3532" width="4.381" height="14.995" transform="translate(69.277)" fill="#ffb900"/>
            <rect id="Rectangle_3533" data-name="Rectangle 3533" width="4.381" height="14.995" transform="translate(78.478)" fill="#ffb900"/>
          </g>
          <g id="Group_3861" data-name="Group 3861" transform="translate(3.7 59.978)">
            <rect id="Rectangle_3534" data-name="Rectangle 3534" width="87.047" height="14.994" fill="#fbd804"/>
            <rect id="Rectangle_3535" data-name="Rectangle 3535" width="4.381" height="14.994" transform="translate(4.869)" fill="#ffb900"/>
            <rect id="Rectangle_3536" data-name="Rectangle 3536" width="4.381" height="14.994" transform="translate(14.07)" fill="#ffb900"/>
            <rect id="Rectangle_3537" data-name="Rectangle 3537" width="4.381" height="14.994" transform="translate(23.271)" fill="#ffb900"/>
            <rect id="Rectangle_3538" data-name="Rectangle 3538" width="4.381" height="14.994" transform="translate(32.472)" fill="#ffb900"/>
            <rect id="Rectangle_3539" data-name="Rectangle 3539" width="4.381" height="14.994" transform="translate(41.673)" fill="#ffb900"/>
            <rect id="Rectangle_3540" data-name="Rectangle 3540" width="4.382" height="14.994" transform="translate(50.874)" fill="#ffb900"/>
            <rect id="Rectangle_3541" data-name="Rectangle 3541" width="4.382" height="14.994" transform="translate(60.076)" fill="#ffb900"/>
            <rect id="Rectangle_3542" data-name="Rectangle 3542" width="4.382" height="14.994" transform="translate(69.277)" fill="#ffb900"/>
            <rect id="Rectangle_3543" data-name="Rectangle 3543" width="4.382" height="14.994" transform="translate(78.478)" fill="#ffb900"/>
          </g>
          <g id="Group_3862" data-name="Group 3862" transform="translate(18.646 44.984)">
            <rect id="Rectangle_3544" data-name="Rectangle 3544" width="87.047" height="14.995" fill="#fbd804"/>
            <rect id="Rectangle_3545" data-name="Rectangle 3545" width="4.381" height="14.995" transform="translate(4.869)" fill="#ffb900"/>
            <rect id="Rectangle_3546" data-name="Rectangle 3546" width="4.381" height="14.995" transform="translate(14.07)" fill="#ffb900"/>
            <rect id="Rectangle_3547" data-name="Rectangle 3547" width="4.381" height="14.995" transform="translate(23.271)" fill="#ffb900"/>
            <rect id="Rectangle_3548" data-name="Rectangle 3548" width="4.381" height="14.995" transform="translate(32.472)" fill="#ffb900"/>
            <rect id="Rectangle_3549" data-name="Rectangle 3549" width="4.381" height="14.995" transform="translate(41.673)" fill="#ffb900"/>
            <rect id="Rectangle_3550" data-name="Rectangle 3550" width="4.381" height="14.995" transform="translate(50.875)" fill="#ffb900"/>
            <rect id="Rectangle_3551" data-name="Rectangle 3551" width="4.381" height="14.995" transform="translate(60.076)" fill="#ffb900"/>
            <rect id="Rectangle_3552" data-name="Rectangle 3552" width="4.381" height="14.995" transform="translate(69.277)" fill="#ffb900"/>
            <rect id="Rectangle_3553" data-name="Rectangle 3553" width="4.381" height="14.995" transform="translate(78.478)" fill="#ffb900"/>
          </g>
          <g id="Group_3863" data-name="Group 3863" transform="translate(11.051 29.989)">
            <rect id="Rectangle_3554" data-name="Rectangle 3554" width="87.046" height="14.995" fill="#fbd804"/>
            <rect id="Rectangle_3555" data-name="Rectangle 3555" width="4.381" height="14.995" transform="translate(4.868)" fill="#ffb900"/>
            <rect id="Rectangle_3556" data-name="Rectangle 3556" width="4.381" height="14.995" transform="translate(14.069)" fill="#ffb900"/>
            <rect id="Rectangle_3557" data-name="Rectangle 3557" width="4.381" height="14.995" transform="translate(23.271)" fill="#ffb900"/>
            <rect id="Rectangle_3558" data-name="Rectangle 3558" width="4.381" height="14.995" transform="translate(32.472)" fill="#ffb900"/>
            <rect id="Rectangle_3559" data-name="Rectangle 3559" width="4.381" height="14.995" transform="translate(41.673)" fill="#ffb900"/>
            <rect id="Rectangle_3560" data-name="Rectangle 3560" width="4.381" height="14.995" transform="translate(50.874)" fill="#ffb900"/>
            <rect id="Rectangle_3561" data-name="Rectangle 3561" width="4.381" height="14.995" transform="translate(60.075)" fill="#ffb900"/>
            <rect id="Rectangle_3562" data-name="Rectangle 3562" width="4.381" height="14.995" transform="translate(69.277)" fill="#ffb900"/>
            <rect id="Rectangle_3563" data-name="Rectangle 3563" width="4.381" height="14.995" transform="translate(78.478)" fill="#ffb900"/>
          </g>
          <g id="Group_3864" data-name="Group 3864" transform="translate(0 14.995)">
            <rect id="Rectangle_3564" data-name="Rectangle 3564" width="87.046" height="14.995" fill="#fbd804"/>
            <rect id="Rectangle_3565" data-name="Rectangle 3565" width="4.382" height="14.995" transform="translate(4.868)" fill="#ffb900"/>
            <rect id="Rectangle_3566" data-name="Rectangle 3566" width="4.382" height="14.995" transform="translate(14.07)" fill="#ffb900"/>
            <rect id="Rectangle_3567" data-name="Rectangle 3567" width="4.382" height="14.995" transform="translate(23.271)" fill="#ffb900"/>
            <rect id="Rectangle_3568" data-name="Rectangle 3568" width="4.382" height="14.995" transform="translate(32.472)" fill="#ffb900"/>
            <rect id="Rectangle_3569" data-name="Rectangle 3569" width="4.382" height="14.995" transform="translate(41.673)" fill="#ffb900"/>
            <rect id="Rectangle_3570" data-name="Rectangle 3570" width="4.382" height="14.995" transform="translate(50.874)" fill="#ffb900"/>
            <rect id="Rectangle_3571" data-name="Rectangle 3571" width="4.382" height="14.995" transform="translate(60.076)" fill="#ffb900"/>
            <rect id="Rectangle_3572" data-name="Rectangle 3572" width="4.382" height="14.995" transform="translate(69.277)" fill="#ffb900"/>
            <rect id="Rectangle_3573" data-name="Rectangle 3573" width="4.382" height="14.995" transform="translate(78.478)" fill="#ffb900"/>
          </g>
          <g id="Group_3865" data-name="Group 3865" transform="translate(11.733)">
            <rect id="Rectangle_3574" data-name="Rectangle 3574" width="87.047" height="14.995" fill="#fbd804"/>
            <rect id="Rectangle_3575" data-name="Rectangle 3575" width="4.381" height="14.995" transform="translate(4.868)" fill="#ffb900"/>
            <rect id="Rectangle_3576" data-name="Rectangle 3576" width="4.381" height="14.995" transform="translate(14.069)" fill="#ffb900"/>
            <rect id="Rectangle_3577" data-name="Rectangle 3577" width="4.381" height="14.995" transform="translate(23.271)" fill="#ffb900"/>
            <rect id="Rectangle_3578" data-name="Rectangle 3578" width="4.381" height="14.995" transform="translate(32.472)" fill="#ffb900"/>
            <rect id="Rectangle_3579" data-name="Rectangle 3579" width="4.381" height="14.995" transform="translate(41.673)" fill="#ffb900"/>
            <rect id="Rectangle_3580" data-name="Rectangle 3580" width="4.381" height="14.995" transform="translate(50.874)" fill="#ffb900"/>
            <rect id="Rectangle_3581" data-name="Rectangle 3581" width="4.381" height="14.995" transform="translate(60.076)" fill="#ffb900"/>
            <rect id="Rectangle_3582" data-name="Rectangle 3582" width="4.381" height="14.995" transform="translate(69.277)" fill="#ffb900"/>
            <rect id="Rectangle_3583" data-name="Rectangle 3583" width="4.381" height="14.995" transform="translate(78.478)" fill="#ffb900"/>
          </g>
        </g>
        <g id="Group_3867" data-name="Group 3867" transform="translate(54.777 71.033)">
          <path id="Path_8909" data-name="Path 8909" d="M841.161,316.782a15.7,15.7,0,0,1-3.663-1.47,4.872,4.872,0,0,0-3.108-.881c-.838.12-7.608,2.94-5.806,4.2.585.407,2.046-.307,2.629-.517.831-.3,1.667-.7,2.464-1.059-.727-.036-4.388,1.515-4,2.371.675,1.5,4.382-.506,5.244-.989-.659.1-2.951.962-2.947,1.8,0,1.314,2.728.217,3.318-.084a4.023,4.023,0,0,1,1.242-.6,4.937,4.937,0,0,1,1.658.293,9.655,9.655,0,0,0,2.886.056c.565-.052,1.879.068,2.159-.416a2.08,2.08,0,0,0-.364-2.055A4.148,4.148,0,0,0,841.161,316.782Z" transform="translate(-828.28 -314.398)" fill="#fcd4ca"/>
          <path id="Path_8910" data-name="Path 8910" d="M841.161,316.782a15.7,15.7,0,0,1-3.663-1.47,4.872,4.872,0,0,0-3.108-.881c-.838.12-7.608,2.94-5.806,4.2.585.407,2.046-.307,2.629-.517.831-.3,1.667-.7,2.464-1.059-.727-.036-4.388,1.515-4,2.371.675,1.5,4.382-.506,5.244-.989-.659.1-2.951.962-2.947,1.8,0,1.314,2.728.217,3.318-.084a4.023,4.023,0,0,1,1.242-.6,4.937,4.937,0,0,1,1.658.293,9.655,9.655,0,0,0,2.886.056c.565-.052,1.879.068,2.159-.416a2.08,2.08,0,0,0-.364-2.055A4.148,4.148,0,0,0,841.161,316.782Z" transform="translate(-828.28 -314.398)" fill="#e8a393"/>
        </g>
        <g id="Group_3869" data-name="Group 3869" transform="translate(32.995 42.968)">
          <g id="Group_3868" data-name="Group 3868">
            <path id="Path_8911" data-name="Path 8911" d="M820.286,298.76l-4.143,1.7,14.234,34.346,4.191-2.263Z" transform="translate(-816.143 -298.76)" fill="#242263"/>
            <rect id="Rectangle_3584" data-name="Rectangle 3584" width="27.1" height="4.21" transform="translate(16.907 33.185)" fill="#242263"/>
          </g>
        </g>
        <path id="Path_8912" data-name="Path 8912" d="M885.062,331.393c-3.625-2.075-4.232-4.363-2.224-11.947s-3.247-15.447-8.3-17.529c-3.713-1.529-6.972-2.2-9.23-6.159s2.021-12.4-5.131-18.648c-5.21-4.553-12.686-.917-12.686-.917-1.608-.89-2.27,8.489-2.387,15.543,9.054,13.86,6.475,31.968,3.175,47.483a7.128,7.128,0,0,1-.332,1.041c.713,12.008,1.283,21.951,1.283,21.951S871,374.535,885.8,363.984,892.323,335.548,885.062,331.393Z" transform="translate(-760.133 -274.818)" fill="#242263"/>
        <path id="Path_8913" data-name="Path 8913" d="M836.667,355.146l-5.528,3.178s-6.77,17.41-5.528,18.93,15.2-13.817,15.754-16.166S838.291,355.975,836.667,355.146Z" transform="translate(-775.744 -210.984)" fill="#82cec2"/>
        <path id="Path_8914" data-name="Path 8914" d="M852.935,321.061s-35.509,2.486-38.826,5.664,26.832,58.391,26.832,58.391l4.948-2.845s-7.462-26.254-9.4-32.333-5.664-13.4-4.973-14.37,36.478,4.42,36.2-5.666S852.935,321.061,852.935,321.061Z" transform="translate(-784.967 -238.109)" fill="#fcd4ca"/>
        <path id="Path_8915" data-name="Path 8915" d="M845.389,290.235s3.729,10.156,1.45,17.722l12.435-3.006s-5.088-17-7.263-19.9S845.389,290.235,845.389,290.235Z" transform="translate(-759.907 -267.184)" fill="#fcd4ca"/>
        <path id="Path_8916" data-name="Path 8916" d="M850.57,299.355a6.2,6.2,0,0,1,6.376,6.158l2.328-.562s-5.088-17-7.263-19.9-6.622,5.181-6.622,5.181a41.9,41.9,0,0,1,2.089,9.86A6.549,6.549,0,0,1,850.57,299.355Z" transform="translate(-759.907 -267.184)" fill="#e8a393"/>
        <path id="Path_8917" data-name="Path 8917" d="M847.6,280.436s-4.831,2.308-5.985,4.255-.145,4.639-.24,6.418-.587,4.424-.318,4.856,2.048,0,2.337.384,2.6,1.827,3.317,3.462,1.683,1.779,3.367.962,8.124-9.327,8.2-13.318S852.389,278.8,847.6,280.436Z" transform="translate(-763.409 -270.62)" fill="#fcd4ca"/>
        <path id="Path_8918" data-name="Path 8918" d="M848.063,277.269s-2.254,4.51-2.487,6.3,1.477,7.073,2.487,7.773.156-5.908,2.721-3.887-.156,5.831,0,6.608a4.749,4.749,0,0,0,3.965,3.5c2.644.233,7-12.9,4.12-16.168S851.094,277.269,848.063,277.269Z" transform="translate(-759.776 -272.87)" fill="#242263"/>
        <path id="Path_8919" data-name="Path 8919" d="M854.552,276.376a7.131,7.131,0,0,0-8.679.388c-4.431,3.577-4.277,8.939-7.931,8.473,0,0,2.41,6.22,7.7,4.743S856.393,280.107,854.552,276.376Z" transform="translate(-765.825 -274.619)" fill="#242263"/>
        <path id="Path_8920" data-name="Path 8920" d="M882.918,315.507l-16.471-1.244s-8.571,9.573-17.037,9.573H820.462s1.461,12.046,8.43,21.6c0,0,27.6,2.03,41.008.924S896.044,330.478,882.918,315.507Z" transform="translate(-779.715 -243.472)" fill="#f05260"/>
        <path id="Path_8921" data-name="Path 8921" d="M871.488,317.44c-.472-.642-.973-1.287-1.538-1.933l-16.471-1.244s-8.343,9.3-16.7,9.549C846.871,324.834,866.149,327.066,871.488,317.44Z" transform="translate(-766.747 -243.472)" fill="#ca0045" opacity="0.32" style="mix-blend-mode: multiply;isolation: isolate"/>
        <path id="Path_8922" data-name="Path 8922" d="M827.271,321.53c4.2-.409,8.272-1.411,12.4-1.933h-18.16C823.309,320.518,824.192,321.831,827.271,321.53Z" transform="translate(-778.88 -239.233)" fill="#ca0045" opacity="0.32" style="mix-blend-mode: multiply;isolation: isolate"/>
        <path id="Path_8923" data-name="Path 8923" d="M860.168,292.666s-7.561,2.974-10.124,3.25c0,0-5.326,11.744-7.4,14.921s5.255,15.337,5.668,20.589c0,0,4.4,4.2,17.746,1.619C866.059,333.044,869.54,300.055,860.168,292.666Z" transform="translate(-762.38 -260.634)" fill="#2d3192"/>
        <path id="Path_8924" data-name="Path 8924" d="M859.2,296.756c-2.315-1.061-6.339.025-7.464,2.344-1.395,2.871.038,7.97-.131,11.075a60.22,60.22,0,0,1-1.208,10.786,22.413,22.413,0,0,1-4.347,8.054c1.71,1.036,6.665,3.108,17.015,1.1,0,0,2.123-20.115-1.409-32.449C860.69,297.341,859.8,297.032,859.2,296.756Z" transform="translate(-759.384 -257.709)" fill="#29286a"/>
        <path id="Path_8925" data-name="Path 8925" d="M842.6,316.782a15.694,15.694,0,0,1-3.661-1.47,4.877,4.877,0,0,0-3.108-.881c-.838.12-7.608,2.94-5.806,4.2.585.407,2.044-.307,2.629-.517.829-.3,1.667-.7,2.464-1.059-.729-.036-4.39,1.515-4.006,2.371.676,1.5,4.382-.506,5.246-.989-.659.1-2.951.962-2.949,1.8.005,1.314,2.728.217,3.32-.084a3.986,3.986,0,0,1,1.242-.6,4.945,4.945,0,0,1,1.658.293,9.653,9.653,0,0,0,2.886.056c.565-.052,1.877.068,2.159-.416a2.085,2.085,0,0,0-.364-2.055A4.147,4.147,0,0,0,842.6,316.782Z" transform="translate(-772.356 -243.365)" fill="#fcd4ca"/>
        <path id="Path_8926" data-name="Path 8926" d="M836.265,332.428l1.45,5.452s35.649-4.146,36.478-10.467-1.45-35.75-10.052-32.693-.1,24.4-1.45,26.06S836.265,332.428,836.265,332.428Z" transform="translate(-767.157 -259.178)" fill="#2d3192"/>
      </g>
      <g id="Group_3877" data-name="Group 3877" transform="translate(836.583 168.934)">
        <g id="Group_3874" data-name="Group 3874" transform="translate(0 14.88)">
          <g id="Group_3873" data-name="Group 3873">
            <g id="Group_3871" data-name="Group 3871" transform="translate(0 47.083)">
              <path id="Path_8927" data-name="Path 8927" d="M751.246,209.556a1.383,1.383,0,0,1-1.134-2.177s.876-1.256,2.5-3.376a1.384,1.384,0,1,1,2.2,1.682c-1.567,2.046-2.417,3.266-2.428,3.279A1.374,1.374,0,0,1,751.246,209.556Z" transform="translate(-749.864 -203.46)" fill="#f05260"/>
            </g>
            <g id="Group_3872" data-name="Group 3872" transform="translate(7.742)">
              <path id="Path_8928" data-name="Path 8928" d="M898.473,250.234a25.953,25.953,0,0,1-4.671-.416,1.386,1.386,0,0,1,.5-2.726,17.29,17.29,0,0,0,7.724-.109,1.384,1.384,0,1,1,.709,2.676A16.71,16.71,0,0,1,898.473,250.234Zm-12.215-3.356a1.386,1.386,0,0,1-.711-.194,32.8,32.8,0,0,1-6.8-5.513,1.384,1.384,0,1,1,2-1.918,30.007,30.007,0,0,0,6.224,5.052,1.384,1.384,0,0,1-.711,2.574Zm23.657-.838a1.384,1.384,0,0,1-.786-2.525,50.916,50.916,0,0,0,6.3-5.248,1.382,1.382,0,1,1,1.918,1.99,52.86,52.86,0,0,1-6.646,5.54A1.379,1.379,0,0,1,909.916,246.04Zm-35.475-10.98a1.383,1.383,0,0,1-1.133-.589c-1.457-2.073-2.958-4.431-4.591-7.206a1.384,1.384,0,0,1,2.385-1.405c1.594,2.712,3.056,5.007,4.47,7.021a1.384,1.384,0,0,1-1.132,2.179Zm47.733-.549a1.383,1.383,0,0,1-1.043-2.294c1.656-1.9,3.406-4,5.348-6.446a1.385,1.385,0,1,1,2.168,1.725c-1.971,2.475-3.745,4.616-5.429,6.543A1.387,1.387,0,0,1,922.174,234.511Zm10.574-13.158a1.383,1.383,0,0,1-1.1-2.227l1.642-2.141c1.175-1.542,2.344-3.065,3.5-4.555a1.384,1.384,0,0,1,2.191,1.691c-1.152,1.488-2.315,3.01-3.491,4.546l-1.644,2.146A1.386,1.386,0,0,1,932.748,221.352Zm-66.977-.759a1.381,1.381,0,0,1-1.215-.721l-1.368-2.509q-1.327-2.442-2.674-4.889a1.384,1.384,0,0,1,2.423-1.341c.906,1.633,1.795,3.273,2.683,4.9l1.364,2.509a1.377,1.377,0,0,1-.551,1.875A1.354,1.354,0,0,1,865.771,220.593Zm-110.21-.081a1.383,1.383,0,0,1-1.057-2.277c1.825-2.168,3.715-4.311,5.617-6.375a1.385,1.385,0,0,1,2.037,1.877c-1.874,2.033-3.737,4.144-5.538,6.283A1.377,1.377,0,0,1,755.561,220.512Zm11.434-12.4a1.384,1.384,0,0,1-.973-2.367c2.048-2.026,4.135-3.982,6.2-5.824a1.384,1.384,0,0,1,1.838,2.069c-2.032,1.807-4.083,3.731-6.095,5.721A1.382,1.382,0,0,1,766.994,208.113Zm176.157-.05a1.386,1.386,0,0,1-1.062-2.272c2.118-2.539,3.993-4.618,5.737-6.358a1.386,1.386,0,0,1,1.958,1.963c-1.685,1.678-3.507,3.7-5.571,6.168A1.381,1.381,0,0,1,943.151,208.063Zm-85.632-2.191a1.38,1.38,0,0,1-1.185-.668c-1.585-2.611-3.078-4.889-4.567-6.956a1.383,1.383,0,0,1,2.245-1.617c1.533,2.129,3.069,4.463,4.691,7.141a1.383,1.383,0,0,1-1.184,2.1Zm-77.906-8.948a1.385,1.385,0,0,1-.856-2.475c2.308-1.811,4.63-3.5,6.9-5.023a1.385,1.385,0,0,1,1.543,2.3c-2.209,1.484-4.474,3.134-6.73,4.9A1.384,1.384,0,0,1,779.613,196.923Zm67.96-4.632a1.379,1.379,0,0,1-1.012-.441,43.748,43.748,0,0,0-6.064-5.441,1.384,1.384,0,1,1,1.635-2.233,46.15,46.15,0,0,1,6.454,5.788,1.386,1.386,0,0,1-1.012,2.328Zm-53.948-4.729a1.384,1.384,0,0,1-.668-2.6,75.285,75.285,0,0,1,7.746-3.7,1.384,1.384,0,0,1,1.046,2.563,73.3,73.3,0,0,0-7.46,3.568A1.371,1.371,0,0,1,793.625,187.562Zm40.4-5.023a1.356,1.356,0,0,1-.531-.106,32.078,32.078,0,0,0-7.272-2.048l-.479-.077a1.383,1.383,0,1,1,.407-2.735l.513.077a35.037,35.037,0,0,1,7.893,2.225,1.385,1.385,0,0,1-.531,2.663Zm-24.8-1.238a1.384,1.384,0,0,1-.33-2.728,48.528,48.528,0,0,1,8.56-1.341,1.37,1.37,0,0,1,1.468,1.3,1.386,1.386,0,0,1-1.3,1.468,45.677,45.677,0,0,0-8.067,1.265A1.439,1.439,0,0,1,809.223,181.3Z" transform="translate(-754.177 -177.225)" fill="#f05260"/>
            </g>
          </g>
        </g>
        <g id="Group_3876" data-name="Group 3876" transform="translate(196.257)">
          <path id="Path_8929" data-name="Path 8929" d="M911.732,173.272l-47.065,29.07,2.149-16.986Z" transform="translate(-854.891 -165.486)" fill="#29286a"/>
          <path id="Path_8930" data-name="Path 8930" d="M911.732,173.272l-47.065,29.07,5.912-12.1Z" transform="translate(-854.891 -165.486)" fill="#f05260"/>
          <g id="Group_3875" data-name="Group 3875">
            <path id="Path_8931" data-name="Path 8931" d="M888.52,211.5l-29.3-35.876,63.446-6.691Z" transform="translate(-859.22 -168.934)" fill="#fff"/>
            <path id="Path_8932" data-name="Path 8932" d="M915.5,169.544l-49.76,19.915,3.6,4.41Z" transform="translate(-854.041 -168.448)" fill="#2d3192"/>
          </g>
        </g>
      </g>
    </g>
  </g>
</svg>
