<svg xmlns="http://www.w3.org/2000/svg" width="500" height="443.554" viewBox="0 0 500 443.554">
  <g id="Group_3788" data-name="Group 3788" transform="translate(-305.404 -125.477)">
    <ellipse id="Ellipse_2" data-name="Ellipse 2" cx="250" cy="32.737" rx="250" ry="32.737" transform="translate(305.404 503.558)" fill="#e2e5e0"/>
    <g id="Group_3729" data-name="Group 3729" transform="translate(368.012 125.478)">
      <g id="Group_3720" data-name="Group 3720" transform="translate(91.551 60.505)">
        <path id="Path_8571" data-name="Path 8571" d="M613.01,269.065c0-.033,0-.064,0-.1s0-.064,0-.1c0-2.62-.129-5.208-.317-7.782-.019-.264-.038-.53-.06-.795a105.377,105.377,0,0,0-210.059,0c-.022.268-.041.537-.061.806-.188,2.571-.317,5.157-.317,7.775,0,.032,0,.062,0,.094s0,.065,0,.1c0,2.622.129,5.213.317,7.787.021.263.038.526.061.787a105.376,105.376,0,0,0,210.059,0c.022-.266.041-.53.06-.8C612.881,274.275,613.01,271.685,613.01,269.065Z" transform="translate(-402.196 -163.467)" fill="#82cec2"/>
        <g id="Group_3719" data-name="Group 3719" transform="translate(13.944 0.016)">
          <g id="Group_3718" data-name="Group 3718">
            <path id="Path_8572" data-name="Path 8572" d="M411.037,234.515c6.7.186,2.891,3.408,3.157,8.71.339,6.785,5.826,5.649,9.5,10.1,1.174,1.424,1.206,3.185,2.255,4.69,1.531,2.193,3.9,3,6.119,4.329,3.728,2.228,6.632,6.944,10.563,8.387,10.02,3.677-.53-12.065,0-15.261.36-2.171,2-2.2,1.118-4.31-.809-1.945-2.76-2.383-4.385-2.271-1.164.08-2.593,2.566-4.039,1.5-1.934-1.432,1.217-3.251,1.515-4.275,1.128-3.9-4.533-6.626-6.6-3.351-.9,1.43.586,5.337-2.1,4.466-1.79-.58-3.182-6.7-3.009-8.338.739-6.936,5.82-8.237,11.964-8.288,4.283-.037,6.482.691,7.4,5.32.879,4.436-1.092,5.9,2.8,8.381,4.335,2.763,7.277.827,5.124-4.42-1.08-2.631-4.375-6.13-3.126-9.29.475-1.2,2.348-2.047,3.126-3.037,1.459-1.855.04-1.629,2.27-3.087,2.133-1.392,4.267-1,5.127-4.327.741-2.872-.358-2.988,1.806-5.143,4.348-4.329,7.638,1.053,11.638-1.083a18.076,18.076,0,0,1-2.1-4.526c.956-1.179,10.8-.412,5.09-5.13,3.534-2.1,2.875,3.889,5.809,3.281,3.956-.822-2.735-4.4-2.873-5.068-.583-2.776,3.806-2.8,5.407-1.739,2.3,1.529,1.381,6.059,5.055,5.393.414,3.238,4.463,2.115,4.466-.414,0-2.364-2.824-1.846-2.862-4.692-.041-3.044,2.376-2.891.628-5.7-1.161-1.865-3.781-.75-3.316-3.988-1.443-.108-2.738,2.407-3.23,1.031-1.276-3.569-2.833-10.977-7.661-5.738-1.994-1.591-2.8-4.4-5.474-4.364-3.523.053-3.093,4.133-5.108,6.512-.909,1.073-2.488,1.7-3.391,2.849-1,1.268.3,2.851-2.082,3.283-3.969.72-2.77-4.573-2.246-6.45-5.934-.655-3.857-5.715.787-5.84,1.741-.046,4.3,1.295,6.211-.064,1.734-1.234,1.142-3.853,3.587-3.842.565,6.364,5.095.823,8.024.352-.256.726.01,2.055-.253,2.786,9.441,1.449.1-11.574,6.509-13.944,4.176-1.543,4.924,2.176,4.762,5.428-.183,3.711.011,5.315,2.244,7.849,2.373,2.692,4.663,5.622,6.947.722.424-.913.174-3.654.7-4.256.911-1.051,3.746-.814,5.052-1.779,4.506-3.327,1.776-9.008-2.206-12.388a105.138,105.138,0,0,0-36.337,6.684,5.509,5.509,0,0,0-1.287,2.3,5.159,5.159,0,0,1-3.5-.365,105.794,105.794,0,0,0-49.368,43.891,13.163,13.163,0,0,0,.108,1.655,4.288,4.288,0,0,0,.295.825A20.442,20.442,0,0,1,413.1,225.1C412.951,228.447,410.463,231.343,411.037,234.515Z" transform="translate(-410.951 -163.477)" fill="#fbd804"/>
            <path id="Path_8573" data-name="Path 8573" d="M565.892,268.011c0-2.62-.129-5.208-.317-7.782-.019-.264-.038-.53-.061-.795a104.851,104.851,0,0,0-8.42-33.575l-.01-.021q-.941-2.153-1.977-4.254c-.057-.115-.115-.229-.172-.346q-.96-1.935-2-3.822l-.311-.562q-.987-1.77-2.037-3.5c-.142-.233-.284-.468-.428-.7q-1.02-1.648-2.1-3.255c-.174-.258-.344-.519-.519-.776-.714-1.045-1.449-2.07-2.2-3.088-.193-.261-.381-.524-.575-.784-.761-1.013-1.547-2.008-2.343-2.993-.2-.241-.384-.489-.581-.728-.143-.174-.295-.339-.44-.511-2.666-.11-4.792,1.195-6.063,4.244-.835,2-.594,8.467-3.367,9.026-2.972.6-5.412-15.9-11.327-6.772-.782,1.207-.355,2.825-.984,3.977-.886,1.62-1.578,1.582-2.789,2.219,1.843-3.6-3.2-11.907,1.986-11.662,1.179-2.542-.674-5.229.064-7.882,1.432-5.16,2.532-.534,3.668,1.785.663,1.352,3.432,6.522,5.844,4.735,1.76-1.306-.425-6.876-.336-8.628,2.15.37,2.741,3.373,5.033,3.91a9.918,9.918,0,0,0,4.01.258l-.271-.287c-1.715-1.806-3.485-3.56-5.323-5.241l-.027-.024q-2.862-2.614-5.914-5.014c-.045-.035-.086-.07-.129-.105-1.978-1.553-4.02-3.029-6.108-4.442l-.538-.358a105.143,105.143,0,0,0-13.253-7.513c-.139-.067-.277-.137-.417-.2q-3.412-1.6-6.955-2.958c-.207-.08-.414-.154-.623-.233A104.4,104.4,0,0,0,482.805,165l-.382-.083a6.688,6.688,0,0,1,.019,2.8c-.368,2.2-1.483,1.8,0,3.967,1.183,1.725,4.382,2.085,5.852,3.59.951.972,1.183,2.139,2.164,3.157,1.242,1.29,3.133,1.65,4.111,3.329a19.713,19.713,0,0,1,1.343,2.118c-2.236.454-5.649-3.052-6.93-1.035-1.4,2.2,2.435,4.563,2.962,6.14.647,1.938-1.25,5.176,2.171,5.428,3.181.236,2.051-3.423,1.879-5.374,3.595-.44,4.018,2.566,5.511,4.534,2,2.639,4.8,2.021,6.839,4.044,4.2,4.173-.691,3.072-2.536,3.174-1.731.1-2.559-.449-3.951,1.188-1.785,2.1-.685.952.2,2.959.76,1.72,2.591,7.129,3.724,8.143.822.737,7.086,1.749,9.059,1.583-1.706,1.526-2.561,3.254-4.311,5.351-3.434,4.117-1.683,2.919-1.077,7.568.524,4.014-2.714,5.27-3.765,8.658-1.21,3.9,1.792,8.479,2.27,11.985.448,3.29,2.08,3.756,3.408,6.313,1.029,1.981.922,4.045,2.376,6.251,2.086,3.165,7.347,8.814,11.744,8.287,3.079-.37,1.835-3.029,3.713-4.364,1.978-1.4,4.915.849,4.734-3.165,1.169.04,4.115,2.169,5.063,1.792,1.752-.7,1.05-3.883,1.14-5.4,4.635-.78,3.822,5.56,2.773,7.882-.511,1.132-2.024,2.8-2.1,3.988-.132,2.166,1.258,1.561,2.214,3.588,1.693,3.593-.115,15.4-2.117,18.571-1.87,2.966-6.6,4.16-5.891,8.557.436,2.728,3.813,3.888,4.461,6.691.793,3.424-1.022,6.783.522,10.3,1.73,3.94,3.091,7.6,4.62,11.85.193.537.421.962.634,1.429a105.1,105.1,0,0,0,15.3-29.5c-.019-.413-.059-.825-.048-1.239l0-.143c.134-3.7,1.551-5.095,2.693-8.323.049-.14.084-.29.132-.432a105.389,105.389,0,0,0,2.174-14.374c.022-.266.041-.53.061-.8.188-2.558.314-5.133.315-7.739v-.062c0-.025,0-.051,0-.076s0-.064,0-.1Z" transform="translate(-369.023 -162.622)" fill="#fbd804"/>
            <path id="Path_8574" data-name="Path 8574" d="M511.96,253.952c-1.731-.72-4.147.648-5.836-.317-2.62-1.5-1.193-2.709-4.369-3.353-1.992-.4-3.834.57-5.766.28-2.023-.3-4.123-2.972-6.649-2.8-3.905-3.161-4.015-7.116-6.659-11.192-2.854-4.4-4.611-2.98-8.645-2.878-3.986.1-6.667-3.8-10.617-4.7a13.6,13.6,0,0,0-4.095-.1,13.1,13.1,0,0,1-4.662-.161c-1.207-.241-3.173-.033-4.278-.373a14.145,14.145,0,0,1-1.648.025c-.691-.169-.22-1.848-1.343-1.943-1.4-.118-8.693,3.7-9.236,4.725-1.3,2.446,1.249,3.461,1.5,5.409.291,2.249-.583,2.5-1.75,4.068-4.087,5.5-8.487,14.1-10.024,20.719-.863,3.722.239,4.647,1.749,7.71,1.774,3.595,1.511,7.517,3.187,11.115,1.97,4.23,4.6,3.619,8.134,5.992,3.168,2.126,3.391,4.88,3.845,8.4a69.753,69.753,0,0,1,.782,8.115c.021,1.464-1.1,2.035-.506,3.5.825,2.027,3.695,2.993,5.19,4.474,1.475,1.462,2.564,3.276,4.123,4.748,3.837,3.617,8.215,6.756,9.876,12.025a10.724,10.724,0,0,1-.013,5.837,104.545,104.545,0,0,0,10.282,2.306c.527.091.878-6.5,1.107-7.165.9-2.647,2.4-3.1,4.323-5.125,2.088-2.2,1.832-3.751,2.609-6.686,1.94-7.325,5.613-7.955,11.709-11.1,5.006-2.58,9.088-5.294,7.622-10.918-1.645-6.32,1.371-9.392,5.3-14.154a35.3,35.3,0,0,0,7.576-17.486C515.351,258.827,514.837,255.151,511.96,253.952Z" transform="translate(-401.094 -126.162)" fill="#fbd804"/>
          </g>
        </g>
      </g>
      <path id="Path_8575" data-name="Path 8575" d="M468.378,149.664l36.016,34.491-23.352-34.491Z" transform="translate(-271.42 -111.143)" fill="#242263"/>
      <path id="Path_8576" data-name="Path 8576" d="M572.474,221.708l-40.9,15.065,40.9-.869Z" transform="translate(-233.963 -68.443)" fill="#242263"/>
      <path id="Path_8577" data-name="Path 8577" d="M440.9,219.5l-54.88,47.14V250.457Z" transform="translate(-320.233 -69.752)" fill="#242263"/>
      <path id="Path_8578" data-name="Path 8578" d="M461.559,273.615l46.613,43.27h17.85Z" transform="translate(-275.462 -37.679)" fill="#242263"/>
      <path id="Path_8579" data-name="Path 8579" d="M508.1,180.292a8.971,8.971,0,1,1-8.97-8.972A8.971,8.971,0,0,1,508.1,180.292Z" transform="translate(-258.509 -98.308)" fill="#f05260"/>
      <circle id="Ellipse_3" data-name="Ellipse 3" cx="8.971" cy="8.971" r="8.971" transform="translate(120.665 135.324)" fill="#f05260"/>
      <circle id="Ellipse_4" data-name="Ellipse 4" cx="8.971" cy="8.971" r="8.971" transform="translate(170.267 215.371)" fill="#f05260"/>
      <path id="Path_8580" data-name="Path 8580" d="M537.482,237.084a8.971,8.971,0,1,1-8.97-8.97A8.971,8.971,0,0,1,537.482,237.084Z" transform="translate(-241.097 -64.647)" fill="#f05260"/>
      <rect id="Rectangle_3478" data-name="Rectangle 3478" width="69.127" height="38.521" transform="translate(165.562)" fill="#82cec2"/>
      <g id="Group_3721" data-name="Group 3721" transform="translate(173.888 8.733)">
        <path id="Path_8581" data-name="Path 8581" d="M461.653,148.16v3.083h-2.681v-3.1a10.4,10.4,0,0,1-5.079-2.156l1.43-2.884a9.033,9.033,0,0,0,5.121,2.139c1.089,0,1.774-.4,1.774-1.15,0-2.4-7.439-.948-7.439-5.949,0-2.239,1.612-3.789,4.194-4.214v-2.964h2.681V133.9a10.448,10.448,0,0,1,4.416,1.513l-1.392,2.923a11.016,11.016,0,0,0-4.555-1.511c-.887,0-1.472.32-1.472.968,0,2.338,7.439,1.01,7.439,6.089C466.09,146.367,464.194,147.818,461.653,148.16Z" transform="translate(-453.893 -130.961)" fill="#fff"/>
        <path id="Path_8582" data-name="Path 8582" d="M469.436,132.861v14.132h-3.69V135.882h-2.72v-3.021Z" transform="translate(-448.48 -129.835)" fill="#fff"/>
        <path id="Path_8583" data-name="Path 8583" d="M481.164,139.954c0,4.617-1.975,7.177-5.525,7.177-3.588,0-5.543-2.559-5.543-7.177s1.954-7.157,5.543-7.157C479.189,132.8,481.164,135.336,481.164,139.954Zm-7.54,0c0,3.228.585,4.581,2.015,4.581,1.413,0,2-1.352,2-4.581,0-3.244-.586-4.576-2-4.576C474.208,135.378,473.624,136.709,473.624,139.954Z" transform="translate(-444.29 -129.873)" fill="#fff"/>
        <path id="Path_8584" data-name="Path 8584" d="M488.968,139.954c0,4.617-1.975,7.177-5.525,7.177-3.588,0-5.543-2.559-5.543-7.177s1.954-7.157,5.543-7.157C486.993,132.8,488.968,135.336,488.968,139.954Zm-7.54,0c0,3.228.585,4.581,2.015,4.581,1.413,0,2-1.352,2-4.581,0-3.244-.586-4.576-2-4.576C482.012,135.378,481.428,136.709,481.428,139.954Z" transform="translate(-439.665 -129.873)" fill="#fff"/>
      </g>
      <rect id="Rectangle_3479" data-name="Rectangle 3479" width="69.127" height="38.521" transform="translate(337.5 138.842)" fill="#f05260"/>
      <g id="Group_3722" data-name="Group 3722" transform="translate(351.101 148.846)">
        <path id="Path_8585" data-name="Path 8585" d="M572.921,236.133v3.085h-2.682v-3.106a10.424,10.424,0,0,1-5.079-2.155l1.432-2.886a9.028,9.028,0,0,0,5.119,2.139c1.091,0,1.776-.4,1.776-1.15,0-2.4-7.44-.948-7.44-5.949,0-2.239,1.612-3.789,4.192-4.214v-2.964h2.682v2.945a10.389,10.389,0,0,1,4.415,1.513l-1.39,2.923a11.006,11.006,0,0,0-4.555-1.513c-.887,0-1.472.322-1.472.968,0,2.338,7.438,1.01,7.438,6.089C577.357,234.34,575.463,235.793,572.921,236.133Z" transform="translate(-565.16 -218.934)" fill="#fff"/>
        <path id="Path_8586" data-name="Path 8586" d="M579.23,225.941c3.327,0,5.485,1.752,5.485,4.275,0,2.985-2.277,4.918-5.767,4.918a10.423,10.423,0,0,1-5.6-1.773l1.472-2.865a5.12,5.12,0,0,0,3.69,1.777c1.432,0,2.238-.647,2.238-1.8,0-1.069-.806-1.674-2.219-1.674-.745,0-3.064.021-3.951.081v-8.062h9.5v2.983h-6.11v2.156C578.264,225.941,578.949,225.941,579.23,225.941Z" transform="translate(-560.309 -217.815)" fill="#fff"/>
        <path id="Path_8587" data-name="Path 8587" d="M592.431,227.926c0,4.617-1.975,7.178-5.525,7.178-3.588,0-5.542-2.561-5.542-7.178s1.954-7.156,5.542-7.156C590.457,220.77,592.431,223.309,592.431,227.926Zm-7.54,0c0,3.228.585,4.581,2.015,4.581,1.413,0,2-1.352,2-4.581,0-3.244-.585-4.576-2-4.576C585.476,223.35,584.892,224.682,584.892,227.926Z" transform="translate(-555.556 -217.846)" fill="#fff"/>
      </g>
      <rect id="Rectangle_3480" data-name="Rectangle 3480" width="69.127" height="38.521" transform="translate(215.997 279.206)" fill="#f8931d"/>
      <g id="Group_3723" data-name="Group 3723" transform="translate(225.376 288.024)">
        <path id="Path_8588" data-name="Path 8588" d="M493.982,323.519V326.6H491.3v-3.1a10.418,10.418,0,0,1-5.079-2.156l1.43-2.886a9.024,9.024,0,0,0,5.12,2.141c1.091,0,1.774-.4,1.774-1.15,0-2.4-7.439-.949-7.439-5.949,0-2.239,1.612-3.789,4.194-4.214V306.32h2.682v2.943a10.44,10.44,0,0,1,4.415,1.513l-1.392,2.923a11.021,11.021,0,0,0-4.555-1.513c-.887,0-1.472.322-1.472.97,0,2.336,7.439,1.01,7.439,6.089C498.418,321.726,496.522,323.177,493.982,323.519Z" transform="translate(-486.221 -306.32)" fill="#fff"/>
        <path id="Path_8589" data-name="Path 8589" d="M501.419,312.378c0-.763-.583-1.209-1.612-1.209a6.669,6.669,0,0,0-3.912,1.793l-1.389-2.72a9.915,9.915,0,0,1,5.845-2.136c2.864,0,4.939,1.492,4.939,3.727,0,1.534-1.169,3.125-2.741,4.721l-2.9,2.9h6.047v2.964H494.929l-.021-2.44,5.141-5.281A4.217,4.217,0,0,0,501.419,312.378Z" transform="translate(-481.31 -305.261)" fill="#fff"/>
        <path id="Path_8590" data-name="Path 8590" d="M513.491,315.312c0,4.617-1.975,7.177-5.523,7.177-3.588,0-5.544-2.559-5.544-7.177s1.956-7.157,5.544-7.157C511.517,308.155,513.491,310.7,513.491,315.312Zm-7.54,0c0,3.228.585,4.581,2.016,4.581,1.411,0,2-1.352,2-4.581,0-3.244-.586-4.576-2-4.576C506.536,310.737,505.952,312.068,505.952,315.312Z" transform="translate(-476.618 -305.232)" fill="#fff"/>
        <path id="Path_8591" data-name="Path 8591" d="M521.295,315.312c0,4.617-1.975,7.177-5.523,7.177-3.588,0-5.543-2.559-5.543-7.177s1.954-7.157,5.543-7.157C519.32,308.155,521.295,310.7,521.295,315.312Zm-7.54,0c0,3.228.586,4.581,2.016,4.581,1.411,0,2-1.352,2-4.581,0-3.244-.586-4.576-2-4.576C514.341,310.737,513.755,312.068,513.755,315.312Z" transform="translate(-471.992 -305.232)" fill="#fff"/>
      </g>
      <rect id="Rectangle_3481" data-name="Rectangle 3481" width="69.127" height="38.521" transform="translate(0 170.782)" fill="#2d3192"/>
      <g id="Group_3724" data-name="Group 3724" transform="translate(9.381 179.601)">
        <path id="Path_8592" data-name="Path 8592" d="M358.364,255.443v3.083h-2.681v-3.1a10.411,10.411,0,0,1-5.079-2.156l1.43-2.886a9.024,9.024,0,0,0,5.12,2.141c1.089,0,1.774-.4,1.774-1.15,0-2.4-7.439-.949-7.439-5.949,0-2.239,1.612-3.789,4.194-4.214v-2.964h2.681v2.943a10.447,10.447,0,0,1,4.416,1.513l-1.392,2.924a11,11,0,0,0-4.555-1.513c-.887,0-1.472.32-1.472.968,0,2.336,7.439,1.01,7.439,6.089C362.8,253.65,360.905,255.1,358.364,255.443Z" transform="translate(-350.604 -238.244)" fill="#fff"/>
        <path id="Path_8593" data-name="Path 8593" d="M370.009,249.812c0,2.722-2.238,4.617-5.746,4.617A9.621,9.621,0,0,1,358.7,252.7l1.492-2.845a5.276,5.276,0,0,0,3.791,1.752c1.553,0,2.418-.643,2.418-1.752,0-1.129-.865-1.715-2.438-1.715h-2.378v-1.975L364.89,243h-5.445l-.019-2.84H369.3v2.136l-3.811,3.55.7.1C368.437,246.282,370.009,247.655,370.009,249.812Z" transform="translate(-345.806 -237.11)" fill="#fff"/>
        <path id="Path_8594" data-name="Path 8594" d="M372.479,245.251c3.326,0,5.484,1.752,5.484,4.275,0,2.985-2.278,4.918-5.767,4.918a10.427,10.427,0,0,1-5.6-1.773l1.472-2.865a5.128,5.128,0,0,0,3.69,1.777c1.432,0,2.239-.648,2.239-1.8,0-1.067-.808-1.674-2.219-1.674-.747,0-3.066.021-3.951.083v-8.064h9.5v2.985h-6.11v2.156C371.511,245.251,372.2,245.251,372.479,245.251Z" transform="translate(-341.129 -237.126)" fill="#fff"/>
        <path id="Path_8595" data-name="Path 8595" d="M385.678,247.237c0,4.617-1.975,7.177-5.523,7.177-3.59,0-5.543-2.559-5.543-7.177s1.953-7.158,5.543-7.158C383.7,240.079,385.678,242.619,385.678,247.237Zm-7.54,0c0,3.228.586,4.581,2.016,4.581,1.411,0,2-1.352,2-4.581,0-3.244-.586-4.576-2-4.576C378.724,242.661,378.138,243.992,378.138,247.237Z" transform="translate(-336.375 -237.156)" fill="#fff"/>
      </g>
      <g id="Group_3726" data-name="Group 3726" transform="translate(55.475 62.195)">
        <g id="Group_3725" data-name="Group 3725">
          <path id="Path_8596" data-name="Path 8596" d="M410.561,212.706a1.36,1.36,0,0,0-1.8,2.039q4.967,4.384,10.378,8.862a1.361,1.361,0,0,0,1.734-2.1Q415.5,217.066,410.561,212.706Z" transform="translate(-362.502 -136.176)" fill="#242263"/>
          <path id="Path_8597" data-name="Path 8597" d="M433.049,176.514a1.361,1.361,0,0,0,.463-2.641c-4.471-1.617-8.823-3.09-12.941-4.381a1.36,1.36,0,1,0-.814,2.6c4.079,1.279,8.395,2.739,12.827,4.343A1.349,1.349,0,0,0,433.049,176.514Z" transform="translate(-356.277 -161.625)" fill="#242263"/>
          <path id="Path_8598" data-name="Path 8598" d="M398.306,200.979a1.36,1.36,0,1,0-1.972,1.873c3.005,3.161,6.259,6.412,9.672,9.666a1.361,1.361,0,0,0,1.876-1.973C404.5,207.324,401.28,204.1,398.306,200.979Z" transform="translate(-369.816 -143.176)" fill="#242263"/>
          <path id="Path_8599" data-name="Path 8599" d="M437.317,233.691a1.361,1.361,0,0,0-1.57,2.223q5.485,3.87,11.219,7.744a1.338,1.338,0,0,0,.758.236,1.361,1.361,0,0,0,.763-2.488Q442.781,237.552,437.317,233.691Z" transform="translate(-346.577 -123.681)" fill="#242263"/>
          <path id="Path_8600" data-name="Path 8600" d="M423.651,223.55a1.359,1.359,0,1,0-1.672,2.144q5.263,4.109,10.853,8.258a1.359,1.359,0,0,0,1.62-2.184Q428.894,227.642,423.651,223.55Z" transform="translate(-354.706 -129.717)" fill="#242263"/>
          <path id="Path_8601" data-name="Path 8601" d="M403.374,168.046c4.1.667,8.54,1.6,13.2,2.77a1.336,1.336,0,0,0,.333.043,1.361,1.361,0,0,0,.331-2.68c-4.73-1.191-9.247-2.137-13.425-2.816a1.359,1.359,0,1,0-.435,2.684Z" transform="translate(-366.1 -164.045)" fill="#242263"/>
          <path id="Path_8602" data-name="Path 8602" d="M567.525,275.312a1.362,1.362,0,0,0,1.215.747,1.4,1.4,0,0,0,.613-.147,1.365,1.365,0,0,0,.6-1.83,87.883,87.883,0,0,0-7.295-11.709,1.359,1.359,0,1,0-2.2,1.593A85.165,85.165,0,0,1,567.525,275.312Z" transform="translate(-272.476 -106.871)" fill="#242263"/>
          <path id="Path_8603" data-name="Path 8603" d="M382.264,175.993a13.606,13.606,0,0,1,.269-2.754,1.36,1.36,0,1,0-2.663-.551,16.37,16.37,0,0,0-.325,3.3,28.81,28.81,0,0,0,2.438,10.714,1.362,1.362,0,0,0,1.258.847,1.325,1.325,0,0,0,.514-.1,1.357,1.357,0,0,0,.744-1.773A26.17,26.17,0,0,1,382.264,175.993Z" transform="translate(-379.545 -160.334)" fill="#242263"/>
          <path id="Path_8604" data-name="Path 8604" d="M400.1,164.534l-.819-.006a38.489,38.489,0,0,0-13.063,1.926,1.363,1.363,0,0,0,.468,2.641,1.341,1.341,0,0,0,.468-.084,35.757,35.757,0,0,1,12.127-1.76l.785.008h.016a1.362,1.362,0,0,0,.018-2.723Z" transform="translate(-376.12 -164.528)" fill="#242263"/>
          <path id="Path_8605" data-name="Path 8605" d="M387.615,187.979a1.36,1.36,0,0,0-2.26,1.515,134.109,134.109,0,0,0,8.279,10.962,1.36,1.36,0,1,0,2.091-1.739A130.358,130.358,0,0,1,387.615,187.979Z" transform="translate(-376.238 -150.988)" fill="#242263"/>
          <path id="Path_8606" data-name="Path 8606" d="M540.285,285.046c-4.1-1.113-8.459-2.427-12.952-3.905a1.36,1.36,0,0,0-.85,2.583c4.538,1.494,8.941,2.819,13.092,3.945a1.312,1.312,0,0,0,.357.049,1.36,1.36,0,0,0,.354-2.672Z" transform="translate(-293.012 -95.455)" fill="#242263"/>
          <path id="Path_8607" data-name="Path 8607" d="M462.906,250.465q-5.834-3.6-11.48-7.248a1.36,1.36,0,0,0-1.475,2.286q5.664,3.66,11.526,7.28a1.361,1.361,0,0,0,1.429-2.317Z" transform="translate(-338.185 -118.018)" fill="#242263"/>
          <path id="Path_8608" data-name="Path 8608" d="M556.96,287.324a110.848,110.848,0,0,1-13.3-1.814,1.359,1.359,0,1,0-.514,2.669,113.4,113.4,0,0,0,13.633,1.86c.032,0,.062,0,.094,0a1.361,1.361,0,0,0,.091-2.719Z" transform="translate(-283.238 -92.838)" fill="#242263"/>
          <path id="Path_8609" data-name="Path 8609" d="M574.806,278.426a1.4,1.4,0,0,0-1.432-1.285,1.361,1.361,0,0,0-1.285,1.432c.018.315.027.624.027.93a11.542,11.542,0,0,1-1.566,6.089c-1.849,3.042-5.366,5.1-10.454,6.113a1.362,1.362,0,0,0,.264,2.7,1.413,1.413,0,0,0,.268-.027c5.864-1.172,9.986-3.649,12.246-7.368a14.241,14.241,0,0,0,1.961-7.5C574.835,279.151,574.825,278.788,574.806,278.426Z" transform="translate(-273.184 -97.784)" fill="#242263"/>
          <path id="Path_8610" data-name="Path 8610" d="M551.377,249.3a1.359,1.359,0,1,0-1.938,1.9c3.306,3.367,6.4,6.7,9.2,9.908a1.361,1.361,0,0,0,2.053-1.787C557.856,256.073,554.723,252.7,551.377,249.3Z" transform="translate(-279.084 -114.528)" fill="#242263"/>
          <path id="Path_8611" data-name="Path 8611" d="M548.05,249.039a1.362,1.362,0,0,0,.927-2.359c-3.2-2.978-6.624-6.043-10.169-9.11a1.36,1.36,0,1,0-1.779,2.058c3.52,3.045,6.915,6.087,10.1,9.045A1.355,1.355,0,0,0,548.05,249.039Z" transform="translate(-286.486 -121.435)" fill="#242263"/>
          <path id="Path_8612" data-name="Path 8612" d="M477.667,258.95q-5.843-3.292-11.752-6.786a1.362,1.362,0,0,0-1.386,2.344q5.93,3.5,11.8,6.814a1.361,1.361,0,1,0,1.335-2.372Z" transform="translate(-329.572 -112.698)" fill="#242263"/>
          <path id="Path_8613" data-name="Path 8613" d="M524.04,280.178c-4.106-1.54-8.347-3.217-12.609-4.98a1.358,1.358,0,1,0-1.038,2.51c4.288,1.776,8.558,3.462,12.692,5.014a1.359,1.359,0,1,0,.956-2.544Z" transform="translate(-302.493 -99.001)" fill="#242263"/>
          <path id="Path_8614" data-name="Path 8614" d="M492.77,266.819q-5.958-3.032-12.026-6.291a1.361,1.361,0,0,0-1.289,2.4q6.094,3.273,12.079,6.318a1.36,1.36,0,0,0,1.236-2.424Z" transform="translate(-320.754 -107.726)" fill="#242263"/>
          <path id="Path_8615" data-name="Path 8615" d="M508.216,273.956q-6.059-2.714-12.307-5.707a1.358,1.358,0,1,0-1.175,2.45q6.276,3.01,12.37,5.742a1.376,1.376,0,0,0,.556.119,1.362,1.362,0,0,0,.556-2.6Z" transform="translate(-311.732 -103.136)" fill="#242263"/>
        </g>
      </g>
      <g id="Group_3728" data-name="Group 3728" transform="translate(47.594 86.176)">
        <g id="Group_3727" data-name="Group 3727">
          <path id="Path_8616" data-name="Path 8616" d="M422.846,290.142c-4.34,1.392-8.577,2.639-12.595,3.711a1.32,1.32,0,0,0,.28,2.594,1.266,1.266,0,0,0,.4-.043c4.061-1.085,8.341-2.344,12.722-3.749a1.32,1.32,0,0,0-.806-2.513Z" transform="translate(-354.046 -114.095)" fill="#242263"/>
          <path id="Path_8617" data-name="Path 8617" d="M407.126,294.327a124.093,124.093,0,0,1-12.915,1.878,1.32,1.32,0,0,0,.053,2.633,1.569,1.569,0,0,0,.174,0,126.765,126.765,0,0,0,13.2-1.916,1.319,1.319,0,0,0-.506-2.59Z" transform="translate(-363.687 -111.595)" fill="#242263"/>
          <path id="Path_8618" data-name="Path 8618" d="M453.229,277.943q-6.085,2.831-12,5.41a1.321,1.321,0,0,0,1.056,2.421q5.939-2.592,12.06-5.441a1.319,1.319,0,0,0-1.115-2.391Z" transform="translate(-335.575 -121.365)" fill="#242263"/>
          <path id="Path_8619" data-name="Path 8619" d="M438.206,284.519q-6.278,2.523-12.281,4.711a1.32,1.32,0,0,0,.392,2.558,1.277,1.277,0,0,0,.513-.08q6.035-2.2,12.359-4.74a1.32,1.32,0,1,0-.983-2.45Z" transform="translate(-344.69 -117.448)" fill="#242263"/>
          <path id="Path_8620" data-name="Path 8620" d="M522.038,187.341a1.362,1.362,0,0,0,.421-.048c4.429-1.26,8.709-2.344,12.716-3.219a1.32,1.32,0,0,0-.565-2.579c-4.058.887-8.39,1.983-12.872,3.255a1.321,1.321,0,0,0,.3,2.59Z" transform="translate(-287.958 -178.469)" fill="#242263"/>
          <path id="Path_8621" data-name="Path 8621" d="M467.928,270.619q-5.918,3.091-11.735,5.971a1.32,1.32,0,0,0,.527,2.5,1.345,1.345,0,0,0,.643-.135q5.836-2.891,11.787-6a1.319,1.319,0,0,0-1.223-2.338Z" transform="translate(-326.672 -125.722)" fill="#242263"/>
          <path id="Path_8622" data-name="Path 8622" d="M404.9,252.859a1.323,1.323,0,0,0-1.865-.1c-3.391,3.053-6.643,6.1-9.661,9.075a1.32,1.32,0,0,0-.018,1.867,1.34,1.34,0,0,0,.882.395,1.321,1.321,0,0,0,.984-.379c2.993-2.942,6.215-5.971,9.578-9A1.32,1.32,0,0,0,404.9,252.859Z" transform="translate(-363.701 -136.415)" fill="#242263"/>
          <path id="Path_8623" data-name="Path 8623" d="M381,277.517a1.321,1.321,0,0,0-1.789.529,38.094,38.094,0,0,0-4.606,12.786,1.316,1.316,0,0,0,1.136,1.478.925.925,0,0,0,.115.013,1.321,1.321,0,0,0,1.367-1.148,35.524,35.524,0,0,1,4.31-11.87A1.316,1.316,0,0,0,381,277.517Z" transform="translate(-374.597 -121.637)" fill="#242263"/>
          <path id="Path_8624" data-name="Path 8624" d="M390.745,297.175c-5.076-.612-8.937-2.035-11.477-4.237a1.319,1.319,0,1,0-1.728,1.992c2.945,2.555,7.282,4.19,12.89,4.861.033,0,.067.01.1.011a1.319,1.319,0,0,0,.215-2.628Z" transform="translate(-373.122 -112.595)" fill="#242263"/>
          <path id="Path_8625" data-name="Path 8625" d="M390.723,264.5c-3.176,3.517-6.041,6.958-8.518,10.23a1.319,1.319,0,1,0,2.1,1.591c2.43-3.209,5.248-6.591,8.371-10.05a1.32,1.32,0,1,0-1.957-1.771Z" transform="translate(-370.246 -129.512)" fill="#242263"/>
          <path id="Path_8626" data-name="Path 8626" d="M510,245q-5.325,3.7-10.9,7.392a1.319,1.319,0,1,0,1.456,2.2q5.6-3.705,10.95-7.422A1.32,1.32,0,0,0,510,245Z" transform="translate(-301.155 -140.95)" fill="#242263"/>
          <path id="Path_8627" data-name="Path 8627" d="M551.509,179.633a83.041,83.041,0,0,0-13.382.688,1.322,1.322,0,0,0,.1,2.631,1.337,1.337,0,0,0,.224-.01,79.89,79.89,0,0,1,12.949-.67,1.324,1.324,0,0,0,1.371-1.266A1.352,1.352,0,0,0,551.509,179.633Z" transform="translate(-278.361 -179.585)" fill="#242263"/>
          <path id="Path_8628" data-name="Path 8628" d="M547.323,213.408c-2.856,3.04-5.968,6.175-9.25,9.309a1.32,1.32,0,1,0,1.824,1.908c3.316-3.166,6.465-6.334,9.351-9.41a1.32,1.32,0,1,0-1.924-1.808Z" transform="translate(-277.95 -159.784)" fill="#242263"/>
          <path id="Path_8629" data-name="Path 8629" d="M558.645,200.218a1.325,1.325,0,0,0-1.816.432,105.539,105.539,0,0,1-7.581,10.59,1.32,1.32,0,1,0,2.058,1.653,108.215,108.215,0,0,0,7.771-10.859A1.319,1.319,0,0,0,558.645,200.218Z" transform="translate(-271.257 -167.471)" fill="#242263"/>
          <path id="Path_8630" data-name="Path 8630" d="M561.44,187.056a14.46,14.46,0,0,0-6.256-5.587,1.32,1.32,0,0,0-1.171,2.367A11.033,11.033,0,0,1,560.628,195a22.1,22.1,0,0,1-.913,5.144,1.32,1.32,0,1,0,2.534.739,24.725,24.725,0,0,0,1.014-5.766A14.4,14.4,0,0,0,561.44,187.056Z" transform="translate(-268.696 -178.55)" fill="#242263"/>
          <path id="Path_8631" data-name="Path 8631" d="M496.347,254.127q-5.507,3.478-11.208,6.92a1.321,1.321,0,0,0,.624,2.45,1.336,1.336,0,0,0,.741-.188q5.719-3.459,11.252-6.95a1.32,1.32,0,0,0-1.41-2.231Z" transform="translate(-309.459 -135.527)" fill="#242263"/>
          <path id="Path_8632" data-name="Path 8632" d="M535.746,224.8c-3.171,2.789-6.544,5.652-10.028,8.508a1.32,1.32,0,1,0,1.672,2.042c3.509-2.876,6.906-5.759,10.1-8.569a1.319,1.319,0,1,0-1.742-1.981Z" transform="translate(-285.317 -152.985)" fill="#242263"/>
          <path id="Path_8633" data-name="Path 8633" d="M482.305,262.663q-5.762,3.321-11.475,6.46a1.32,1.32,0,1,0,1.269,2.314q5.734-3.151,11.525-6.489a1.319,1.319,0,1,0-1.319-2.286Z" transform="translate(-317.968 -130.452)" fill="#242263"/>
          <path id="Path_8634" data-name="Path 8634" d="M523.191,235.264q-5.1,3.935-10.529,7.908a1.319,1.319,0,1,0,1.559,2.128q5.449-3.987,10.582-7.944a1.32,1.32,0,0,0-1.612-2.091Z" transform="translate(-293.09 -146.749)" fill="#242263"/>
        </g>
      </g>
    </g>
    <g id="Group_3730" data-name="Group 3730" transform="translate(657.806 336.429)">
      <path id="Path_8635" data-name="Path 8635" d="M596.849,280.382l10.768,23.9s-3.15,3.545-4.2,2.757-17.2-20.179-18.779-21.186S596.849,280.382,596.849,280.382Z" transform="translate(-492.384 -244.62)" fill="#2d3192"/>
      <path id="Path_8636" data-name="Path 8636" d="M588.091,288.979c2.486-1.381,5.324-1.682,7.967-2.666,1.029-.384,1.977-.8,2.937-1.171l-2.145-4.761s-13.788,4.466-12.213,5.472a33.192,33.192,0,0,1,3.176,3.318C587.911,289.11,587.986,289.038,588.091,288.979Z" transform="translate(-492.384 -244.62)" fill="#068"/>
      <path id="Path_8637" data-name="Path 8637" d="M575.493,293.67s.043,6.872,4.246,8.449c0,0,21.536-8.924,25.87-9.781s20.092-.987,20.092-.987l-15.889-28.366s-7.618,15.232-14.578,20.224S575.493,293.67,575.493,293.67Z" transform="translate(-497.729 -254.931)" fill="#fbd804"/>
      <path id="Path_8638" data-name="Path 8638" d="M585.851,289.462c1.7-.677,3.48-1.376,5.23-2.051a21.929,21.929,0,0,1-4.533-9.72c-1.632.937-3.325,1.838-4.963,2.676A19.752,19.752,0,0,0,585.851,289.462Z" transform="translate(-494.118 -246.215)" fill="#242263"/>
      <path id="Path_8639" data-name="Path 8639" d="M620.33,273.277c4.487,10.821,2.9,21.756-3.541,24.427s-15.3-3.936-19.786-14.756-2.9-21.756,3.54-24.427S615.843,262.457,620.33,273.277Z" transform="translate(-486.492 -257.928)" fill="#fee08d"/>
      <path id="Path_8640" data-name="Path 8640" d="M618.346,272.649c3.816,9.2,2.467,18.509-3.012,20.78s-13.015-3.348-16.831-12.552-2.467-18.507,3.012-20.78S614.53,263.445,618.346,272.649Z" transform="translate(-485.378 -256.941)" fill="#242263"/>
      <path id="Path_8641" data-name="Path 8641" d="M592.187,292.441c-.395-.239-.284-1.723-.2-2.109.126-.6.543-1.392.124-1.969-.741-1.021-1.782,1.725-1.918,2.125a2.874,2.874,0,0,0-.189,1.83,7.2,7.2,0,0,0,1.588,2.4c-.076.274-.161.557-.264.86a18.27,18.27,0,0,1,2,1.013c.8.462.76,1.034,1.51,1.55l.75-1.722A35.126,35.126,0,0,0,592.187,292.441Z" transform="translate(-489.179 -240.023)" fill="#fcd4ca"/>
      <path id="Path_8642" data-name="Path 8642" d="M597.463,286.363c-.718-.772-1.836-.476-2.7.158-.634.462-2.461,1.94-1.969,3.01.409.892,2.759-1.08,2.759-1.08-.865.745-2.478,1.341-2.072,2.085.452.833,2.5-.352,2.953-.682-.462.118-2.752,1.508-1.835,2.235.629.5,2.313-.546,2.817-.9-.675.205-1.6.806-1.417,1.742.295.513,1.316.174,1.884-.059.86-.349,1.668-.483,1.738-1.55a4.935,4.935,0,0,0,.029-.578,5.856,5.856,0,0,0-.755-2.322A10.093,10.093,0,0,0,597.463,286.363Z" transform="translate(-487.527 -241.349)" fill="#fcd4ca"/>
      <path id="Path_8643" data-name="Path 8643" d="M580.484,274.487s-8.315-4.018-14.618.534-6.044,12.948-5.869,18.2-1.575,8.054-5.253,11.732-4.026,6.654-2.1,14.358,3.445,12.025-.252,15.467c-4.057,3.776-7.978,13.425.952,20.6s21.1,5.7,29.24,5.253c4.544-.25,10.9-.529,14.481-3.738,3.639-3.265,6.409-6.7,4.651-11.9-.7-2.064-1.706-4.012-2.351-6.094a15.091,15.091,0,0,1-.4-5.681c.124-2.5,1.065-4.773,1.188-7.258a42.659,42.659,0,0,0-.476-7.549,25.772,25.772,0,0,0-2.074-7.409c-2.1-4.917-7.739-7.428-8.954-12.977a35.263,35.263,0,0,1-.937-9.811C588.161,280.793,584.607,275.9,580.484,274.487Z" transform="translate(-514.061 -249.085)" fill="#242263"/>
      <path id="Path_8644" data-name="Path 8644" d="M563.058,381.335s-.175,4.66.613,6.849,6.412,5.538,6.412,5.538-5.089.984-7.043-.526-6.589-9.411-6.286-10.44,1.707-4.2,1.707-4.2Z" transform="translate(-508.844 -186.436)" fill="#fcd4ca"/>
      <path id="Path_8645" data-name="Path 8645" d="M582.091,381.061s-.175,4.659.613,6.847,6.412,5.538,6.412,5.538-5.089.986-7.043-.526-6.589-9.411-6.286-10.44,1.707-4.2,1.707-4.2Z" transform="translate(-497.563 -186.599)" fill="#fcd4ca"/>
      <path id="Path_8646" data-name="Path 8646" d="M558.735,380.3s-4.27,1.424-3.2,5.159a32.541,32.541,0,0,1,.89,8.538h1.244s.268-5.336,1.069-5.159S561.313,394,563.092,394h10.05s1.067-1.067,0-1.69-7.879-.355-8.653-1.868S558.735,380.3,558.735,380.3Z" transform="translate(-509.661 -185.401)" fill="#242263"/>
      <path id="Path_8647" data-name="Path 8647" d="M577.919,379.95s-4.27,1.424-3.2,5.159a32.534,32.534,0,0,1,.89,8.538h1.244s.268-5.335,1.069-5.159,2.579,5.159,4.358,5.159h10.05s1.067-1.067,0-1.69-7.879-.355-8.653-1.868S577.919,379.95,577.919,379.95Z" transform="translate(-498.291 -185.608)" fill="#242263"/>
      <path id="Path_8648" data-name="Path 8648" d="M562.213,284.3s3.967,15.47,1.7,16.685c0,0,8.105,16.809,11.7,16.022s1.7-15.132,1.7-15.132a6.278,6.278,0,0,1-2.771-1.589c-.685-.612-2.171-1.644-2.381-2.666a55.684,55.684,0,0,1-.854-7.49Z" transform="translate(-505.6 -242.295)" fill="#fcd4ca"/>
      <path id="Path_8649" data-name="Path 8649" d="M569,309.958a9.387,9.387,0,0,1-2.008-6.344,7.947,7.947,0,0,1,5.03-6.713,59.138,59.138,0,0,1-.721-6.767l-9.088-5.829s3.967,15.47,1.7,16.685c0,0,8.105,16.809,11.7,16.022.932-.205,1.489-1.333,1.813-2.876C573.988,314.759,571,312.631,569,309.958Z" transform="translate(-505.6 -242.295)" fill="#e8a393"/>
      <path id="Path_8650" data-name="Path 8650" d="M544.392,296.286a9.408,9.408,0,0,1-.96-2.042c-.213-.612-.365-1.238-.577-1.849a4.8,4.8,0,0,1-.412-1.811,5.387,5.387,0,0,1,.221-1.105c.123-.47.3-.925.392-1.4.086-.424.049-.836.129-1.258a7.5,7.5,0,0,1,.733-2.322,8.694,8.694,0,0,1,1.065-1.468,5.6,5.6,0,0,1,.632-.674,1.668,1.668,0,0,0,.578-.712.681.681,0,0,0-.5-.917,2.553,2.553,0,0,0-2.354.771c-.626.862-.921,1.914-1.618,2.744-2.129,2.539-4.128-.449-6.614-1.523a14.973,14.973,0,0,1-2.4-1.548c-.444-.334-2.352-2.147-3.255-1.676-.663.349.635,1.871,1.264,2.244.247.147,2.376,1.875,2.653,1.959a13.494,13.494,0,0,1-3.569-2.212c-.943-.737-1.857-1.464-2.37-1.043-1.582,1.3,4.624,4.262,5.108,4.533-.518.045-5.375-3.4-5.836-2.131-.252.7.757,1.386,1.58,1.833,1.035.562,2.77.964,3.16,1.268-.731.248-3.948-1.94-3.95-.6,0,.873,2,1.527,2.749,1.757.776.236,3.05,1.782,3.771,2.126,2.4,1.144,3.391,1.011,4.339,2.45.6.917,1.679,5.759,2.55,7.6Z" transform="translate(-526.667 -245.193)" fill="#fcd4ca"/>
      <path id="Path_8651" data-name="Path 8651" d="M600.562,292.4c-2.141,6.232-6.723,19.944-8.234,19.169-2.835-1.451-8.731-5.963-13.363-11.627-2.817-3.443-5.434-3.606-5.434-3.606l4.123,14.218s14.1,12.257,17.247,10.505c2.478-1.376,8.58-18.751,10.732-25.95C605.633,295.108,600.6,292.424,600.562,292.4Z" transform="translate(-498.892 -237.499)" fill="#f05260"/>
      <path id="Path_8652" data-name="Path 8652" d="M585.549,312c-2.528-3.281-4.088-6.039-6.659-9.292a46.593,46.593,0,0,1-3.48-5.17c-.578-.655-1.145-1.319-1.685-2l3.815,13.154s13.762,11.961,17.118,10.537C591.769,317.369,587.608,314.676,585.549,312Z" transform="translate(-498.777 -235.638)" fill="#ca0045" opacity="0.32" style="mix-blend-mode: multiply;isolation: isolate"/>
      <path id="Path_8653" data-name="Path 8653" d="M582.538,295.488l-5.7-.839s2.91,12.343.721,12.256-10.7-13.079-10.7-13.079a71.424,71.424,0,0,0-8.526,4.243s1.193,9.975.491,11.287c0,0,2.273,6.391,3.762,9.368s1.693,19.531,1.693,19.531a26.414,26.414,0,0,0,11.877,3.056c6.565,0,8.543-2.755,8.543-2.755s.037-18.956.823-20.576,4.649-7.8,1.317-13.738C585.077,301.1,582.538,295.488,582.538,295.488Z" transform="translate(-507.899 -236.653)" fill="#f05260"/>
      <path id="Path_8654" data-name="Path 8654" d="M566.349,321.472c-2.321-4.245-1.951-9.223-3.133-14.161-.811-3.386-2.969-6.841-4.756-9.671.307,2.942.8,8.5.29,9.453,0,0,2.273,6.391,3.762,9.368s1.693,19.531,1.693,19.531a26.835,26.835,0,0,0,9.253,2.9A18.97,18.97,0,0,1,566.349,321.472Z" transform="translate(-507.824 -234.391)" fill="#ca0045" opacity="0.32" style="mix-blend-mode: multiply;isolation: isolate"/>
      <path id="Path_8655" data-name="Path 8655" d="M562.422,306.1s4.786,2.561,6.927,2.534c5.737-.073,6.793-3.775,6.793-3.775s3,3.563,5.665,3.341c2.606-.218,3.055-2.056,3.055-2.056s-.2,5.511-4.842,6.035a5.457,5.457,0,0,1-3.577-.6,4.105,4.105,0,0,0-3.939-.062,8.038,8.038,0,0,1-2.837.718C565.529,312.573,562.86,309.8,562.422,306.1Z" transform="translate(-505.476 -230.114)" fill="#ca0045" opacity="0.32" style="mix-blend-mode: multiply;isolation: isolate"/>
      <path id="Path_8656" data-name="Path 8656" d="M575.477,301.682s-22.325,6.39-24.338,5.864-11.907-21.011-11.907-21.011l-5.6,2.276s8.317,25.618,12.17,26.905,27.668-2.042,27.668-2.042S577.665,308.072,575.477,301.682Z" transform="translate(-522.541 -240.973)" fill="#f05260"/>
      <path id="Path_8657" data-name="Path 8657" d="M567.717,277.049s5.6-2.231,8.217,1.324,1.555,6.411,2.114,8.164.3,10.571-1.977,11.743c-1.969,1.016-7.1.223-10-2.61-2.465-2.418-3.13-1.416-4.875-4.042C556.8,285.016,563.084,276.455,567.717,277.049Z" transform="translate(-507.085 -247.005)" fill="#fcd4ca"/>
      <path id="Path_8658" data-name="Path 8658" d="M566.467,275.806s.828,8.608,8.1,8.008C574.569,283.814,574.293,272.1,566.467,275.806Z" transform="translate(-503.079 -247.762)" fill="#242263"/>
      <path id="Path_8659" data-name="Path 8659" d="M565.121,297.245a12.19,12.19,0,0,0,.441-1.768c-.7-.809-1.535-1.967-1.991-2.035-1.261-.191-3.247-2.695-1.916-4.058,1.394-1.425,2.722-.135,3.236.962a1.21,1.21,0,0,0,.569.464c.22-.588,1.011-5.622,3.467-6.35,8.4-2.488,2.762-9.134,2.762-9.134-13.852-2.614-14.7,16.319-11.238,20.061C562.328,297.418,563.991,297.547,565.121,297.245Z" transform="translate(-507.661 -247.764)" fill="#242263"/>
      <path id="Path_8660" data-name="Path 8660" d="M560.988,284.06a1.844,1.844,0,0,1,1.693,1.306c.389,1.218-.583,2.508-1.11,1.647s-.029-1.2.027-1.7A1.524,1.524,0,0,0,560.988,284.06Z" transform="translate(-506.326 -242.44)" fill="#e8a393"/>
      <path id="Path_8661" data-name="Path 8661" d="M586.133,321.661s-11.958,4.2-20.625,0c0,0-5.249,4.405-6.081,13.4a48.971,48.971,0,0,0,.354,10.11c.6,5,2.058,18.123,1.148,26.216-1.333,11.848-5.014,43.805-5.014,43.805l8.245,1.282s7.572-39.078,8.468-44.2,3.779-25.927,3.779-25.927,5.13,16.089,6.454,23.878c.2,1.2,3.862,45.253,3.862,45.253l7.991-.048s-.448-48.938-.448-46.363C594.267,370.118,592.105,336.064,586.133,321.661Z" transform="translate(-509.333 -220.155)" fill="#82cec2"/>
      <path id="Path_8662" data-name="Path 8662" d="M574.728,346.075c-1.793-5.444-2.892-8.174-6.579-13.055.374,2.233.718,4.46.976,6.713l.032-.116s4.389,13.77,6.1,22C575.061,352.739,576.049,350.082,574.728,346.075Z" transform="translate(-502.082 -213.423)" fill="#00a1cc" opacity="0.65" style="mix-blend-mode: multiply;isolation: isolate"/>
      <path id="Path_8663" data-name="Path 8663" d="M606.682,273.65c-1.1-3.386-4.4-5.347-7.377-4.382a5.123,5.123,0,0,0-2.478,1.795,29.681,29.681,0,0,0,1.382,4.225,28.639,28.639,0,0,0,3.7,6.458,5.011,5.011,0,0,0,1.368-.221C606.256,280.561,607.78,277.034,606.682,273.65Z" transform="translate(-485.085 -251.353)" fill="#f8931d"/>
    </g>
    <g id="Group_3787" data-name="Group 3787" transform="translate(356.838 363.422)">
      <g id="Group_3760" data-name="Group 3760" transform="translate(129.571 103.939)">
        <path id="Path_8664" data-name="Path 8664" d="M445.059,412.761a166.814,166.814,0,0,0-4.006-58.037h2.5c8.088,25.983,6.272,52.907,5.828,58.037Z" transform="translate(-406.012 -331.491)" fill="#82cec2"/>
        <path id="Path_8665" data-name="Path 8665" d="M445.585,387.844v-4.676s16.2-7.992,23.422-19.333l2.357.662S464.146,375.84,445.585,387.844Z" transform="translate(-403.326 -326.091)" fill="#82cec2"/>
        <path id="Path_8666" data-name="Path 8666" d="M456.945,393.063v-4.706s-19.6-10.966-28.356-21.656l-1.363,1.894S436.263,380.983,456.945,393.063Z" transform="translate(-414.207 -324.392)" fill="#82cec2"/>
        <path id="Path_8667" data-name="Path 8667" d="M454.3,365.036a25.142,25.142,0,0,1,.443,10.459l-2.873,2.577s2.211-7.881.589-12.447Z" transform="translate(-399.599 -325.379)" fill="#82cec2"/>
        <path id="Path_8668" data-name="Path 8668" d="M427.7,373.187c2.68.577,6.253-.2,8.852-.984l.024.025a5.72,5.72,0,0,0,1.109,1.98,25.2,25.2,0,0,1-10.332.881Z" transform="translate(-414.132 -321.131)" fill="#82cec2"/>
        <path id="Path_8669" data-name="Path 8669" d="M430.866,381.614a25.147,25.147,0,0,1,8.892-5.523l3.657,1.234s-7.951,1.948-11.131,5.6Z" transform="translate(-412.05 -318.827)" fill="#82cec2"/>
        <path id="Path_8670" data-name="Path 8670" d="M453.36,372.9a25.43,25.43,0,0,1,5.224,8.4l-1.846.573c-.8-2.875-3.5-5.944-5.465-7.879A4.665,4.665,0,0,0,453.36,372.9Z" transform="translate(-399.955 -320.719)" fill="#82cec2"/>
        <path id="Path_8671" data-name="Path 8671" d="M466.146,375.857s-8.065-.2-13.047-2.475l1.621-2.265s6.468,3.308,11.289,2.811Z" transform="translate(-398.873 -321.775)" fill="#82cec2"/>
        <path id="Path_8672" data-name="Path 8672" d="M436.688,368.226s3.416,7.31,3.606,12.781l-2.751-.441s.075-7.264-2.52-11.357Z" transform="translate(-409.586 -323.488)" fill="#82cec2"/>
        <g id="Group_3735" data-name="Group 3735" transform="translate(23.272)">
          <path id="Path_8673" data-name="Path 8673" d="M451.024,358.5a4.53,4.53,0,0,0-.726,1.453,7.8,7.8,0,0,0,.046,1.451l-7.331,1.658c-.2-.693-.4-1.194-.6-1.285-.707-.333-9.054-3.316-8.745-10.717s4.748-9.785,6.879-10.561,10.336-.906,13.351,6.239C456.363,352.565,451.751,357.045,451.024,358.5Z" transform="translate(-433.664 -340.136)" fill="#fbd804"/>
          <g id="Group_3733" data-name="Group 3733" transform="translate(5.934 8.629)">
            <g id="Group_3732" data-name="Group 3732">
              <path id="Path_8674" data-name="Path 8674" d="M443.656,358.57s-1.279-5.652-1.046-6.554,1.5-4.157,1.685-4.826-.631-1.21-.938-.215a51.7,51.7,0,0,0-1.707,5c-.174,1.148.815,7.166.815,7.166Z" transform="translate(-434.877 -345.036)" fill="#242263"/>
              <path id="Path_8675" data-name="Path 8675" d="M443.036,358.555s-1.276-5.654-1.875-6.368-3.139-3.109-3.6-3.631.048-1.363.755-.6a51.727,51.727,0,0,1,3.689,3.776c.651.962,2.348,6.818,2.348,6.818Z" transform="translate(-437.39 -344.312)" fill="#242263"/>
              <g id="Group_3731" data-name="Group 3731" transform="translate(0.449)">
                <path id="Path_8676" data-name="Path 8676" d="M437.755,349.021a4.315,4.315,0,0,0,2.44-.4,1.433,1.433,0,0,1-.538-1.03.956.956,0,0,1,.516-.929,1.029,1.029,0,0,1,1.115.261.962.962,0,0,1,.314,1.209,1.574,1.574,0,0,1-.336.438,1.943,1.943,0,0,0,1.539-.6,1.513,1.513,0,0,1-.463-.283,1.3,1.3,0,0,1-.14-1.769,1.04,1.04,0,0,1,1.5-.083c.478.363.506,1.05.083,1.785a9.153,9.153,0,0,0,2.233-.174l.118.54a9.1,9.1,0,0,1-2.715.143,2.377,2.377,0,0,1-2.661.844l-.032-.013a4.9,4.9,0,0,1-3.055.575Zm2.652-1.862a.449.449,0,0,0-.215.432.97.97,0,0,0,.5.747,1.257,1.257,0,0,0,.42-.451c.064-.132.1-.314-.174-.558a.921.921,0,0,0-.233-.154A.365.365,0,0,0,440.407,347.159Zm2.884.2c.213-.366.362-.871.076-1.091s-.557-.215-.744.006a.745.745,0,0,0,.089,1.018,1.1,1.1,0,0,0,.473.233C443.223,347.471,443.257,347.417,443.291,347.362Z" transform="translate(-437.672 -345.554)" fill="#242263"/>
              </g>
            </g>
          </g>
          <g id="Group_3734" data-name="Group 3734" transform="translate(8.612 19.645)">
            <path id="Path_8677" data-name="Path 8677" d="M443.325,354.1a11.773,11.773,0,0,0,3.937-1.628c-.014.046-.03.092-.041.139-.148.626.57,5.393.242,7.369a1.449,1.449,0,0,1-.282.749,5.212,5.212,0,0,1-4.487,1.015,1.462,1.462,0,0,1-.575-.556c-1.147-1.644-2.55-6.254-2.953-6.756-.03-.037-.064-.072-.1-.107A11.74,11.74,0,0,0,443.325,354.1Z" transform="translate(-439.071 -352.471)" fill="#1e1ea4"/>
            <path id="Path_8678" data-name="Path 8678" d="M443.646,355.883a13.509,13.509,0,0,1-3.77.293c-.2-.538-.385-1.026-.537-1.4a11.161,11.161,0,0,0,7.72-1.744c.024.4.067.916.115,1.489A13.475,13.475,0,0,1,443.646,355.883Z" transform="translate(-438.912 -352.136)" fill="#242263"/>
            <path id="Path_8679" data-name="Path 8679" d="M443.838,357.306a13.989,13.989,0,0,1-3.364.317c-.19-.449-.373-.916-.549-1.371a11.153,11.153,0,0,0,6.992-1.582c.038.489.072.987.1,1.475A14.088,14.088,0,0,1,443.838,357.306Z" transform="translate(-438.565 -351.168)" fill="#242263"/>
            <path id="Path_8680" data-name="Path 8680" d="M446.662,356.331a8.622,8.622,0,0,1-.086,1.36c-.009.061-.022.113-.033.169a13.237,13.237,0,0,1-5.208,1.177c-.033-.045-.068-.088-.1-.139a8.7,8.7,0,0,1-.664-1.19A11.163,11.163,0,0,0,446.662,356.331Z" transform="translate(-438.184 -350.183)" fill="#242263"/>
          </g>
        </g>
        <g id="Group_3739" data-name="Group 3739" transform="translate(62.084 27.615)">
          <g id="Group_3736" data-name="Group 3736">
            <path id="Path_8681" data-name="Path 8681" d="M472.3,364.607a7.131,7.131,0,1,1-7.132-7.132A7.132,7.132,0,0,1,472.3,364.607Z" transform="translate(-458.033 -357.475)" fill="#fbd804"/>
            <circle id="Ellipse_5" data-name="Ellipse 5" cx="5.821" cy="5.821" r="5.821" transform="translate(1.31 1.311)" fill="#ffb900"/>
          </g>
          <g id="Group_3738" data-name="Group 3738" transform="translate(3.889 2.706)">
            <g id="Group_3737" data-name="Group 3737">
              <path id="Path_8682" data-name="Path 8682" d="M463.023,360.6c1.169-.362,2.394-.285,2.848.847l-1.887.755c-.182-.424-.656-.341-.932-.229-.174.068-.734.293-.6.639.311.776,3.464-1.421,4.342.771.527,1.315-.307,2.217-1.534,2.814l.64,1.365-1.151.46-.492-1.435c-1.222.346-2.534.233-3.007-.951l1.887-.755.016.041c.218.516.839.385,1.136.268s.838-.36.686-.737c-.322-.8-3.5,1.32-4.353-.8-.491-1.223.271-2.072,1.4-2.644l-.634-1.379,1.152-.46Z" transform="translate(-460.475 -359.174)" fill="#fbd804"/>
            </g>
          </g>
        </g>
        <g id="Group_3743" data-name="Group 3743" transform="translate(45.511 30.609)">
          <g id="Group_3740" data-name="Group 3740">
            <path id="Path_8683" data-name="Path 8683" d="M461.168,369.618a7.132,7.132,0,1,1-3.279-9.539A7.131,7.131,0,0,1,461.168,369.618Z" transform="translate(-447.627 -359.355)" fill="#fbd804"/>
            <path id="Path_8684" data-name="Path 8684" d="M459.5,368.554a5.821,5.821,0,1,1-2.677-7.783A5.822,5.822,0,0,1,459.5,368.554Z" transform="translate(-447.139 -358.867)" fill="#ffb900"/>
          </g>
          <g id="Group_3742" data-name="Group 3742" transform="translate(4.019 2.551)">
            <g id="Group_3741" data-name="Group 3741">
              <path id="Path_8685" data-name="Path 8685" d="M453.956,362.542c1.209.188,2.276.795,2.187,2.012l-2.027-.15c.024-.46-.44-.594-.736-.615-.186-.014-.788-.059-.815.314-.062.831,3.736.242,3.563,2.6-.1,1.413-1.249,1.857-2.614,1.855l-.022,1.508-1.237-.092.188-1.505c-1.25-.225-2.379-.9-2.286-2.172l2.026.148,0,.045c-.03.559.586.715.9.737s.909.046.94-.36c.064-.865-3.728-.35-3.561-2.63.1-1.314,1.153-1.742,2.421-1.76l.035-1.516,1.238.091Z" transform="translate(-450.151 -360.957)" fill="#fbd804"/>
            </g>
          </g>
        </g>
        <g id="Group_3747" data-name="Group 3747" transform="translate(18.459 32.524)">
          <g id="Group_3744" data-name="Group 3744">
            <path id="Path_8686" data-name="Path 8686" d="M444.747,369.194a7.131,7.131,0,1,1-5.468-8.475A7.131,7.131,0,0,1,444.747,369.194Z" transform="translate(-430.642 -360.558)" fill="#fbd804"/>
            <path id="Path_8687" data-name="Path 8687" d="M442.977,368.43a5.821,5.821,0,1,1-4.463-6.917A5.822,5.822,0,0,1,442.977,368.43Z" transform="translate(-430.155 -360.07)" fill="#ffb900"/>
          </g>
          <g id="Group_3746" data-name="Group 3746" transform="translate(4.066 2.56)">
            <g id="Group_3745" data-name="Group 3745">
              <path id="Path_8688" data-name="Path 8688" d="M436.216,363.662c1.218-.107,2.4.228,2.6,1.429l-2,.341c-.088-.452-.57-.471-.863-.422-.183.032-.779.134-.717.5.14.823,3.687-.658,4.082,1.669.237,1.4-.768,2.1-2.093,2.427l.338,1.468-1.223.209-.178-1.508c-1.266.083-2.524-.306-2.738-1.562l2-.339.006.043c.105.551.741.554,1.054.5s.9-.174.827-.575c-.145-.855-3.7.553-4.087-1.7-.221-1.3.7-1.969,1.929-2.289l-.33-1.481,1.223-.207Z" transform="translate(-433.195 -362.165)" fill="#fbd804"/>
            </g>
          </g>
        </g>
        <g id="Group_3751" data-name="Group 3751" transform="translate(1.907 32.512)">
          <g id="Group_3748" data-name="Group 3748">
            <path id="Path_8689" data-name="Path 8689" d="M431.748,373.32a7.132,7.132,0,1,1,1.273-10.005A7.133,7.133,0,0,1,431.748,373.32Z" transform="translate(-420.25 -360.55)" fill="#fbd804"/>
            <path id="Path_8690" data-name="Path 8690" d="M430.457,371.8a5.82,5.82,0,1,1,1.039-8.166A5.82,5.82,0,0,1,430.457,371.8Z" transform="translate(-419.762 -360.062)" fill="#ffb900"/>
          </g>
          <g id="Group_3750" data-name="Group 3750" transform="translate(3.765 2.867)">
            <g id="Group_3749" data-name="Group 3749">
              <path id="Path_8691" data-name="Path 8691" d="M427.926,364.231c1,.7,1.69,1.718,1.072,2.77l-1.752-1.029c.225-.4-.132-.728-.389-.878-.161-.094-.682-.4-.87-.08-.424.72,3.244,1.87,2.048,3.905-.717,1.222-1.94,1.113-3.165.51l-.686,1.341-1.07-.627.835-1.269c-1.023-.752-1.734-1.859-1.089-2.958l1.752,1.029-.022.038c-.274.489.209.9.484,1.061s.8.444,1,.094c.44-.749-3.189-1.964-2.032-3.934.669-1.136,1.8-1.054,2.95-.508l.7-1.346,1.07.629Z" transform="translate(-422.613 -362.35)" fill="#fbd804"/>
            </g>
          </g>
        </g>
        <g id="Group_3755" data-name="Group 3755" transform="translate(51.707 57.263)">
          <g id="Group_3752" data-name="Group 3752">
            <path id="Path_8692" data-name="Path 8692" d="M465.677,384.443a7.132,7.132,0,1,1-5.807-8.247A7.131,7.131,0,0,1,465.677,384.443Z" transform="translate(-451.517 -376.09)" fill="#fbd804"/>
            <path id="Path_8693" data-name="Path 8693" d="M463.9,383.731a5.821,5.821,0,1,1-4.74-6.731A5.821,5.821,0,0,1,463.9,383.731Z" transform="translate(-451.029 -375.602)" fill="#ffb900"/>
          </g>
          <g id="Group_3754" data-name="Group 3754" transform="translate(4.029 2.572)">
            <g id="Group_3753" data-name="Group 3753">
              <path id="Path_8694" data-name="Path 8694" d="M456.981,379.2c1.212-.156,2.406.129,2.66,1.322l-1.988.42c-.107-.448-.589-.448-.879-.385-.183.038-.772.164-.7.529.174.817,3.657-.808,4.146,1.5.295,1.386-.682,2.131-1.994,2.51l.4,1.454-1.214.256-.239-1.5c-1.263.134-2.536-.2-2.8-1.449l1.988-.42.009.041c.127.546.761.524,1.073.459s.887-.21.8-.608c-.18-.849-3.679.7-4.152-1.534-.274-1.288.621-2,1.833-2.364l-.389-1.467,1.214-.258Z" transform="translate(-454.047 -377.705)" fill="#fbd804"/>
            </g>
          </g>
        </g>
        <g id="Group_3759" data-name="Group 3759" transform="translate(12.637 59.835)">
          <g id="Group_3756" data-name="Group 3756">
            <path id="Path_8695" data-name="Path 8695" d="M441.146,386.058a7.132,7.132,0,1,1-5.807-8.247A7.131,7.131,0,0,1,441.146,386.058Z" transform="translate(-426.986 -377.705)" fill="#fbd804"/>
            <path id="Path_8696" data-name="Path 8696" d="M439.367,385.346a5.821,5.821,0,1,1-4.74-6.731A5.819,5.819,0,0,1,439.367,385.346Z" transform="translate(-426.498 -377.217)" fill="#ffb900"/>
          </g>
          <g id="Group_3758" data-name="Group 3758" transform="translate(4.029 2.572)">
            <g id="Group_3757" data-name="Group 3757">
              <path id="Path_8697" data-name="Path 8697" d="M432.45,380.811c1.212-.156,2.407.129,2.66,1.322l-1.988.42c-.107-.449-.589-.447-.879-.385-.182.038-.772.164-.7.529.174.815,3.657-.809,4.146,1.5.295,1.387-.682,2.133-1.992,2.512l.4,1.453-1.215.258-.239-1.5c-1.263.132-2.536-.2-2.8-1.449l1.988-.422.008.043c.127.546.761.524,1.073.457s.887-.21.8-.607c-.18-.849-3.679.7-4.152-1.534-.274-1.29.621-2,1.833-2.365l-.389-1.467,1.214-.256Z" transform="translate(-429.516 -379.32)" fill="#fbd804"/>
            </g>
          </g>
        </g>
        <path id="Path_8698" data-name="Path 8698" d="M456.584,374.271s3.547-3.574,6.9-3.685,8.543,4.2,8.543,4.2-4.558,5.781-8.543,5.046C458.892,378.982,456.584,374.271,456.584,374.271Z" transform="translate(-396.807 -322.091)" fill="#82cec2"/>
        <path id="Path_8699" data-name="Path 8699" d="M419.052,374.271s3.545-3.574,6.9-3.685,8.543,4.2,8.543,4.2-4.558,5.781-8.543,5.046C421.358,378.982,419.052,374.271,419.052,374.271Z" transform="translate(-419.052 -322.091)" fill="#82cec2"/>
      </g>
      <g id="Group_3782" data-name="Group 3782" transform="translate(208.646 103.939)">
        <path id="Path_8700" data-name="Path 8700" d="M496.013,412.761a166.816,166.816,0,0,1,4.006-58.037h-2.505c-8.086,25.983-6.27,52.907-5.826,58.037Z" transform="translate(-455.367 -331.491)" fill="#82cec2"/>
        <path id="Path_8701" data-name="Path 8701" d="M501.8,387.844v-4.676s-16.2-7.992-23.422-19.333l-2.357.662S483.237,375.84,501.8,387.844Z" transform="translate(-464.364 -326.091)" fill="#82cec2"/>
        <path id="Path_8702" data-name="Path 8702" d="M491.9,393.063v-4.706s19.6-10.966,28.356-21.656l1.363,1.894S512.586,380.983,491.9,393.063Z" transform="translate(-454.949 -324.392)" fill="#82cec2"/>
        <path id="Path_8703" data-name="Path 8703" d="M484.691,365.036a25.141,25.141,0,0,0-.443,10.459l2.873,2.577s-2.211-7.881-.589-12.447Z" transform="translate(-459.704 -325.379)" fill="#82cec2"/>
        <path id="Path_8704" data-name="Path 8704" d="M513.935,373.187c-2.68.577-6.253-.2-8.852-.984l-.024.025a5.748,5.748,0,0,1-1.109,1.98,25.194,25.194,0,0,0,10.33.881Z" transform="translate(-447.81 -321.131)" fill="#82cec2"/>
        <path id="Path_8705" data-name="Path 8705" d="M509.483,380.213a20.91,20.91,0,0,0-7.4-4.6l-3.042,1.027s6.613,1.621,9.26,4.662Z" transform="translate(-450.717 -319.108)" fill="#82cec2"/>
        <path id="Path_8706" data-name="Path 8706" d="M490.931,374.149a25.43,25.43,0,0,0-8.006,5.8l1.492,1.228c1.824-2.362,5.487-4.182,8.035-5.234A4.654,4.654,0,0,1,490.931,374.149Z" transform="translate(-460.271 -319.978)" fill="#82cec2"/>
        <path id="Path_8707" data-name="Path 8707" d="M476.5,375.857s8.065-.2,13.047-2.475l-1.621-2.265s-6.468,3.308-11.289,2.811Z" transform="translate(-464.08 -321.775)" fill="#82cec2"/>
        <path id="Path_8708" data-name="Path 8708" d="M503.063,368.226s-3.416,7.31-3.606,12.781l2.751-.441s-.075-7.264,2.52-11.357Z" transform="translate(-450.473 -323.488)" fill="#82cec2"/>
        <g id="Group_3765" data-name="Group 3765" transform="translate(35.466)">
          <path id="Path_8709" data-name="Path 8709" d="M494.563,358.5a4.532,4.532,0,0,1,.726,1.453,7.8,7.8,0,0,1-.046,1.451l7.329,1.658c.206-.693.406-1.194.6-1.285.707-.333,9.054-3.316,8.744-10.717s-4.746-9.785-6.877-10.561-10.336-.906-13.351,6.239C489.225,352.565,493.837,357.045,494.563,358.5Z" transform="translate(-490.969 -340.136)" fill="#fbd804"/>
          <g id="Group_3763" data-name="Group 3763" transform="translate(5.574 8.629)">
            <g id="Group_3762" data-name="Group 3762">
              <path id="Path_8710" data-name="Path 8710" d="M495.136,358.57s1.279-5.652,1.046-6.554-1.5-4.157-1.685-4.826.631-1.21.938-.215a51.246,51.246,0,0,1,1.706,5c.175,1.148-.814,7.166-.814,7.166Z" transform="translate(-494.469 -345.036)" fill="#242263"/>
              <path id="Path_8711" data-name="Path 8711" d="M497.346,358.555s1.276-5.654,1.875-6.368,3.138-3.109,3.6-3.631-.048-1.363-.755-.6a51.72,51.72,0,0,0-3.689,3.776c-.651.962-2.348,6.818-2.348,6.818Z" transform="translate(-493.547 -344.312)" fill="#242263"/>
              <g id="Group_3761" data-name="Group 3761" transform="translate(0.533)">
                <path id="Path_8712" data-name="Path 8712" d="M503.268,349.534a4.9,4.9,0,0,1-3.055-.575l-.032.013a2.377,2.377,0,0,1-2.661-.844,9.1,9.1,0,0,1-2.716-.143l.118-.54a9.152,9.152,0,0,0,2.233.174c-.424-.736-.395-1.422.083-1.785a1.04,1.04,0,0,1,1.5.083,1.3,1.3,0,0,1-.14,1.769,1.514,1.514,0,0,1-.464.283,1.943,1.943,0,0,0,1.539.6,1.544,1.544,0,0,1-.336-.438.961.961,0,0,1,.312-1.209,1.032,1.032,0,0,1,1.117-.261.956.956,0,0,1,.516.929,1.438,1.438,0,0,1-.538,1.03,4.316,4.316,0,0,0,2.44.4Zm-3.033-2.359a.9.9,0,0,0-.233.154c-.276.244-.237.425-.174.558a1.257,1.257,0,0,0,.42.451.97.97,0,0,0,.5-.747.447.447,0,0,0-.217-.432A.361.361,0,0,0,500.235,347.175Zm-2.481.352a1.1,1.1,0,0,0,.473-.233.745.745,0,0,0,.089-1.018c-.186-.221-.459-.223-.744-.006s-.137.725.076,1.091C497.682,347.417,497.717,347.471,497.754,347.527Z" transform="translate(-494.804 -345.554)" fill="#242263"/>
              </g>
            </g>
          </g>
          <g id="Group_3764" data-name="Group 3764" transform="translate(3.864 19.645)">
            <path id="Path_8713" data-name="Path 8713" d="M497.62,354.1a11.774,11.774,0,0,1-3.937-1.628c.014.046.03.092.041.139.148.626-.57,5.393-.242,7.369a1.449,1.449,0,0,0,.282.749,5.21,5.21,0,0,0,4.485,1.015,1.453,1.453,0,0,0,.577-.556c1.147-1.644,2.55-6.254,2.953-6.756.029-.037.064-.072.1-.107A11.74,11.74,0,0,1,497.62,354.1Z" transform="translate(-493.396 -352.471)" fill="#1e1ea4"/>
            <path id="Path_8714" data-name="Path 8714" d="M497.06,355.883a13.509,13.509,0,0,0,3.77.293c.2-.538.385-1.026.537-1.4a11.159,11.159,0,0,1-7.72-1.744c-.024.4-.067.916-.116,1.489A13.485,13.485,0,0,0,497.06,355.883Z" transform="translate(-493.315 -352.136)" fill="#242263"/>
            <path id="Path_8715" data-name="Path 8715" d="M496.589,357.306a13.989,13.989,0,0,0,3.364.317c.188-.449.373-.916.549-1.371a11.153,11.153,0,0,1-6.992-1.582c-.038.489-.072.987-.1,1.475A14.088,14.088,0,0,0,496.589,357.306Z" transform="translate(-493.384 -351.168)" fill="#242263"/>
            <path id="Path_8716" data-name="Path 8716" d="M493.4,356.331a8.622,8.622,0,0,0,.086,1.36c.01.061.022.113.033.169a13.236,13.236,0,0,0,5.208,1.177c.033-.045.067-.088.1-.139a8.69,8.69,0,0,0,.664-1.19A11.163,11.163,0,0,1,493.4,356.331Z" transform="translate(-493.395 -350.183)" fill="#242263"/>
          </g>
        </g>
        <g id="Group_3769" data-name="Group 3769" transform="translate(19.915 30.609)">
          <g id="Group_3766" data-name="Group 3766">
            <path id="Path_8717" data-name="Path 8717" d="M494.747,369.618a7.132,7.132,0,1,1-3.279-9.539A7.131,7.131,0,0,1,494.747,369.618Z" transform="translate(-481.205 -359.355)" fill="#fbd804"/>
            <path id="Path_8718" data-name="Path 8718" d="M493.081,368.554a5.821,5.821,0,1,1-2.676-7.783A5.82,5.82,0,0,1,493.081,368.554Z" transform="translate(-480.717 -358.867)" fill="#ffb900"/>
          </g>
          <g id="Group_3768" data-name="Group 3768" transform="translate(4.021 2.551)">
            <g id="Group_3767" data-name="Group 3767">
              <path id="Path_8719" data-name="Path 8719" d="M487.535,362.542c1.207.188,2.274.795,2.185,2.012l-2.026-.15c.022-.46-.441-.594-.737-.615-.185-.014-.788-.059-.815.314-.061.831,3.738.242,3.564,2.6-.105,1.413-1.249,1.857-2.615,1.855l-.022,1.508-1.237-.092.188-1.505c-1.25-.225-2.378-.9-2.284-2.172l2.026.148,0,.045c-.03.559.586.715.9.737s.911.046.94-.36c.064-.865-3.728-.35-3.561-2.63.1-1.314,1.153-1.742,2.421-1.76l.035-1.516,1.238.091Z" transform="translate(-483.729 -360.957)" fill="#fbd804"/>
            </g>
          </g>
        </g>
        <g id="Group_3773" data-name="Group 3773" transform="translate(46.967 32.524)">
          <g id="Group_3770" data-name="Group 3770">
            <path id="Path_8720" data-name="Path 8720" d="M512.294,369.194a7.131,7.131,0,1,1-5.466-8.475A7.13,7.13,0,0,1,512.294,369.194Z" transform="translate(-498.19 -360.558)" fill="#fbd804"/>
            <path id="Path_8721" data-name="Path 8721" d="M510.526,368.43a5.821,5.821,0,1,1-4.463-6.917A5.822,5.822,0,0,1,510.526,368.43Z" transform="translate(-497.703 -360.07)" fill="#ffb900"/>
          </g>
          <g id="Group_3772" data-name="Group 3772" transform="translate(4.067 2.56)">
            <g id="Group_3771" data-name="Group 3771">
              <path id="Path_8722" data-name="Path 8722" d="M503.765,363.662c1.217-.107,2.4.228,2.6,1.429l-2,.341c-.088-.452-.57-.471-.863-.422-.183.032-.779.134-.717.5.14.823,3.687-.658,4.082,1.669.237,1.4-.768,2.1-2.094,2.427l.339,1.468-1.223.209-.178-1.508c-1.266.083-2.524-.306-2.738-1.562l2-.339.008.043c.105.551.741.554,1.054.5s.9-.174.827-.575c-.145-.855-3.7.553-4.087-1.7-.221-1.3.7-1.969,1.927-2.289l-.328-1.481,1.223-.207Z" transform="translate(-500.744 -362.165)" fill="#fbd804"/>
            </g>
          </g>
        </g>
        <g id="Group_3777" data-name="Group 3777" transform="translate(0 45.476)">
          <g id="Group_3774" data-name="Group 3774">
            <path id="Path_8723" data-name="Path 8723" d="M482.861,377.042a7.132,7.132,0,1,1-5.807-8.247A7.132,7.132,0,0,1,482.861,377.042Z" transform="translate(-468.701 -368.69)" fill="#fbd804"/>
            <path id="Path_8724" data-name="Path 8724" d="M481.082,376.33a5.821,5.821,0,1,1-4.74-6.731A5.822,5.822,0,0,1,481.082,376.33Z" transform="translate(-468.213 -368.202)" fill="#ffb900"/>
          </g>
          <g id="Group_3776" data-name="Group 3776" transform="translate(4.028 2.571)">
            <g id="Group_3775" data-name="Group 3775">
              <path id="Path_8725" data-name="Path 8725" d="M474.165,371.795c1.212-.156,2.407.131,2.66,1.322l-1.988.42c-.107-.448-.589-.446-.879-.385-.183.04-.774.164-.7.529.174.817,3.657-.808,4.146,1.5.293,1.386-.682,2.131-1.994,2.51l.4,1.454-1.214.256-.239-1.5c-1.263.134-2.536-.2-2.8-1.449l1.988-.42.01.043c.126.545.761.522,1.073.457s.887-.21.8-.608c-.18-.849-3.679.7-4.154-1.534-.272-1.288.623-1.994,1.835-2.364l-.389-1.467,1.214-.258Z" transform="translate(-471.23 -370.304)" fill="#fbd804"/>
            </g>
          </g>
        </g>
        <g id="Group_3781" data-name="Group 3781" transform="translate(65.106 46.016)">
          <g id="Group_3778" data-name="Group 3778">
            <path id="Path_8726" data-name="Path 8726" d="M523.738,377.381a7.131,7.131,0,1,1-5.807-8.247A7.132,7.132,0,0,1,523.738,377.381Z" transform="translate(-509.579 -369.028)" fill="#fbd804"/>
            <path id="Path_8727" data-name="Path 8727" d="M521.959,376.669a5.821,5.821,0,1,1-4.74-6.731A5.821,5.821,0,0,1,521.959,376.669Z" transform="translate(-509.092 -368.54)" fill="#ffb900"/>
          </g>
          <g id="Group_3780" data-name="Group 3780" transform="translate(4.027 2.572)">
            <g id="Group_3779" data-name="Group 3779">
              <path id="Path_8728" data-name="Path 8728" d="M515.042,372.134c1.214-.156,2.407.129,2.66,1.322l-1.988.42c-.105-.448-.589-.448-.879-.385-.182.038-.772.164-.7.529.174.817,3.657-.807,4.147,1.5.293,1.386-.683,2.131-1.994,2.51l.4,1.454-1.214.256-.241-1.5c-1.261.132-2.534-.2-2.8-1.449l1.988-.422.008.043c.127.546.763.524,1.074.457s.887-.209.8-.607c-.178-.849-3.679.7-4.152-1.534-.274-1.288.621-2,1.835-2.363l-.39-1.467,1.214-.258Z" transform="translate(-512.108 -370.643)" fill="#fbd804"/>
            </g>
          </g>
        </g>
        <path id="Path_8729" data-name="Path 8729" d="M489.99,376.711s-4.745-1.685-7.814-.333-5.88,7.486-5.88,7.486,6.613,3.235,9.886.846C489.952,381.956,489.99,376.711,489.99,376.711Z" transform="translate(-464.2 -318.968)" fill="#82cec2"/>
        <path id="Path_8730" data-name="Path 8730" d="M481.511,370.858s.978-4.941-.808-7.779-8.261-4.729-8.261-4.729-2.238,7.013.6,9.9C476.318,371.583,481.511,370.858,481.511,370.858Z" transform="translate(-466.98 -329.341)" fill="#82cec2"/>
        <path id="Path_8731" data-name="Path 8731" d="M520.426,361.669s-5.018-.4-7.634,1.7-3.749,8.75-3.749,8.75,7.224,1.416,9.77-1.736C521.745,366.747,520.426,361.669,520.426,361.669Z" transform="translate(-444.791 -327.392)" fill="#82cec2"/>
        <path id="Path_8732" data-name="Path 8732" d="M516.111,382.732s-1.65-3.85-4.209-4.96-7.893.635-7.893.635,1.76,5.866,5.068,6.516C512.886,385.672,516.111,382.732,516.111,382.732Z" transform="translate(-447.776 -318.049)" fill="#82cec2"/>
      </g>
      <g id="Group_3786" data-name="Group 3786" transform="translate(0 0)">
        <g id="Group_3783" data-name="Group 3783" transform="translate(81.693 86.893)">
          <path id="Path_8733" data-name="Path 8733" d="M391,334.281c.366.312,1.107-.522,1.427-.682.647-.32,1.129.15,1.741.342.236.075.769.333.9.073.088-.175-.113-.444.013-.578.167-.177.624.148.8.205.44.142,1.066.207.839-.455a3.6,3.6,0,0,0-2.032-1.68,3.121,3.121,0,0,0-2.438-.162,2.8,2.8,0,0,0-1.394,2.567A.543.543,0,0,0,391,334.281Z" transform="translate(-387.889 -328.415)" fill="#e8a393"/>
          <path id="Path_8734" data-name="Path 8734" d="M389.047,333.424a3.794,3.794,0,0,1,.5-1.889,9.235,9.235,0,0,1,1.433-2.1c.213,0,1.1,1,1.456,1.215a4.956,4.956,0,0,0,1.83.346,9.943,9.943,0,0,1,1.5.089c.874.271,1.7.508,2.577.765a16.975,16.975,0,0,1,2.574,1.338c.567.249,2.094,1.723,1.413,2.475-.58.639-1.932-.983-2.285-1.3a12.1,12.1,0,0,0-2.389-1.172,9.763,9.763,0,0,1,1.408.44,1.857,1.857,0,0,1,.694.876c.253.534-.03.667-.476.683a1.976,1.976,0,0,1-1.376-.653,5.423,5.423,0,0,0-2.313-1.115,2.138,2.138,0,0,0-1.225-.053,3.2,3.2,0,0,0-1.164.484c-.682.594.661,1.284.847,1.841a1.313,1.313,0,0,1-.1,1.112c-.257.312-.761.027-1.005-.188a7.042,7.042,0,0,1-.678-.862c-.28-.341-.557-.691-.841-1.029a2.464,2.464,0,0,0-1.059-.858,5.614,5.614,0,0,1-1.373-.436C388.972,333.412,389.069,333.443,389.047,333.424Z" transform="translate(-388.991 -329.434)" fill="#fcd4ca"/>
        </g>
        <g id="Group_3784" data-name="Group 3784" transform="translate(78.23 91.511)">
          <path id="Path_8735" data-name="Path 8735" d="M407.814,339.991s-10.507-11.948-16.62-5.995.446,14.1,5.093,18.943l2.524-2.228s-10.711-8.272-5.719-13.883c4.533-5.093,12.4,5.6,12.4,5.6Z" transform="translate(-385.69 -332.333)" fill="#f05260"/>
          <path id="Path_8736" data-name="Path 8736" d="M400.109,335.738a24.877,24.877,0,0,1,2.249,2.234l-2.324,2.442a30.04,30.04,0,0,0-2.112-2.462Z" transform="translate(-380.234 -330.315)" fill="#ca0045" opacity="0.32" style="mix-blend-mode: multiply;isolation: isolate"/>
          <path id="Path_8737" data-name="Path 8737" d="M393.822,341.981a29.5,29.5,0,0,0,3.193,3.012l-2.524,2.228c-.886-.924-1.83-1.975-2.744-3.106Z" transform="translate(-383.894 -326.615)" fill="#ca0045" opacity="0.32" style="mix-blend-mode: multiply;isolation: isolate"/>
          <path id="Path_8738" data-name="Path 8738" d="M411.6,349.849l37.613,5.689-.679,6.453-47.122-4.67Z" transform="translate(-378.169 -321.952)" fill="#f05260"/>
          <path id="Path_8739" data-name="Path 8739" d="M430.748,353.254l1.76.266-.679,6.452-2.244-.221C429.8,358.059,430.7,353.765,430.748,353.254Z" transform="translate(-361.468 -319.934)" fill="#ca0045" opacity="0.32" style="mix-blend-mode: multiply;isolation: isolate"/>
          <path id="Path_8740" data-name="Path 8740" d="M406.2,353.155c.108-.131.221-.256.331-.385,8.424,1.158,41.129,5.146,41.129,5.146l-.247,2.343-44.119-4.372A17.911,17.911,0,0,0,406.2,353.155Z" transform="translate(-377.051 -320.221)" fill="#ca0045" opacity="0.32" style="mix-blend-mode: multiply;isolation: isolate"/>
          <path id="Path_8741" data-name="Path 8741" d="M406.325,338.663s6.232-8.1,11.7-2.567c5.773,5.847-1.7,12.141-1.7,12.141l-1.953-2s5.34-5.114,1.57-8.363c-3.375-2.908-7.64,2.915-7.64,2.915Z" transform="translate(-375.254 -331.249)" fill="#f05260"/>
          <path id="Path_8742" data-name="Path 8742" d="M407.878,340.13l-.842-.831c1.237-1.429,5.506-6.414,9.534-2.625,3.668,3.45-.605,8.475-1.962,9.789l-.659-.884s5.34-5.114,1.57-8.363C412.144,334.307,407.878,340.13,407.878,340.13Z" transform="translate(-374.833 -330.586)" fill="#ca0045" opacity="0.32" style="mix-blend-mode: multiply;isolation: isolate"/>
          <path id="Path_8743" data-name="Path 8743" d="M386.816,360.259l19.544,19.095,27-26.17-20.292-19.868Z" transform="translate(-386.816 -331.75)" fill="#f05260"/>
          <path id="Path_8744" data-name="Path 8744" d="M427.03,346.659l-27,26.171-4.065-3.971,27.149-26.034Z" transform="translate(-381.395 -326.115)" fill="#ca0045" opacity="0.32" style="mix-blend-mode: multiply;isolation: isolate"/>
          <path id="Path_8745" data-name="Path 8745" d="M400.9,336.326l1.442-1.48L422.44,354.77l-1.484,1.438Z" transform="translate(-378.467 -330.844)" fill="#ca0045" opacity="0.32" style="mix-blend-mode: multiply;isolation: isolate"/>
          <path id="Path_8746" data-name="Path 8746" d="M431.141,353.707l4.061-1a.741.741,0,0,1,.909.843l-1.357,8.064a.741.741,0,0,1-1.1.522l-3.45-1.948Z" transform="translate(-361.099 -320.272)" fill="#f05260"/>
          <path id="Path_8747" data-name="Path 8747" d="M435.341,356.353l-.586,3.483a.741.741,0,0,1-1.1.522l-3.45-1.948.393-2.73Z" transform="translate(-361.099 -318.495)" fill="#ca0045" opacity="0.32" style="mix-blend-mode: multiply;isolation: isolate"/>
        </g>
        <path id="Path_8748" data-name="Path 8748" d="M369.146,287.438c.1.185.188.373.3.556a29.33,29.33,0,0,0,3.367,4.819c.8.876,2.185,1.663,2.841,2.536a9.768,9.768,0,0,0,.85.986c-1.148,2.566-4.1,9.33-4.6,12.131,0,0-8.435-2.749-10.7-7C361.2,301.465,367.151,292.789,369.146,287.438Z" transform="translate(-323.768 -267.431)" fill="#fcd4ca"/>
        <path id="Path_8749" data-name="Path 8749" d="M368.31,302.943a12.837,12.837,0,0,0-2.3-7.449,20.44,20.44,0,0,0-1.677-2.04,45.065,45.065,0,0,0,2.95-6.016c.1.185.188.373.3.556a29.332,29.332,0,0,0,3.367,4.819c.8.876,2.185,1.663,2.841,2.536a9.772,9.772,0,0,0,.85.986c-1.148,2.566-4.1,9.33-4.6,12.131a35.015,35.015,0,0,1-3.3-1.327A6.633,6.633,0,0,0,368.31,302.943Z" transform="translate(-321.909 -267.431)" fill="#e8a393"/>
        <path id="Path_8750" data-name="Path 8750" d="M365.611,383.058s-.452,8.814.83,10.125,18.738,3.216,20.37,1.728.962-4.257-2.712-5.6c-3.939-1.435-6-.494-8.44-1.744S374.2,382.4,374.2,382.4Z" transform="translate(-321.201 -211.15)" fill="#242263"/>
        <path id="Path_8751" data-name="Path 8751" d="M339.362,382.4s-2.512,8.33-1.363,9.757,18.671,5.256,20.439,3.934,1.367-4.146-2.16-5.832c-3.783-1.809-5.923-1.072-8.233-2.55s-.954-5.291-.954-5.291Z" transform="translate(-337.698 -211.15)" fill="#242263"/>
        <path id="Path_8752" data-name="Path 8752" d="M341.119,370.906a263.116,263.116,0,0,1,2.773-49.122,22.405,22.405,0,0,1,8.793,1.535c5.4,2.343,10.833,4.584,16.257,6.831-4.208,9.121-13.238,38.807-14.278,45.006-1.293,7.709-7.009,46.39-7.009,46.39l-9.956-.416C337.741,414.811,341.191,373.024,341.119,370.906Z" transform="translate(-337.698 -247.075)" fill="#2d3192"/>
        <path id="Path_8753" data-name="Path 8753" d="M358.236,326.146a89,89,0,0,0,8.734,3.37c-4.128,8.946-13.06,38.4-14.286,44.91-1.438-4.09-7.076-18.644-9.8-29.487a58.1,58.1,0,0,1-1.222-22.183l.013-.088C347.13,322.945,352.416,323.44,358.236,326.146Z" transform="translate(-335.675 -246.55)" fill="#29286a"/>
        <path id="Path_8754" data-name="Path 8754" d="M350.753,324.907c3.81,1.21,10.733,2.918,15.97,4.682,3.791,9.091,14.017,35.3,15.922,44.9,2.636,13.286,7.041,45.614,7.041,45.614l-11.23,1.478s-11.281-45.857-12.893-48.789c-5.312-9.663-11.126-17.293-14.462-23.306-8.062-14.533-8.569-21.638-9.661-26.76C344.41,323.516,347.563,323.9,350.753,324.907Z" transform="translate(-335.48 -246.513)" fill="#2d3192"/>
        <path id="Path_8755" data-name="Path 8755" d="M360.959,299.087a9.818,9.818,0,0,1,12.213,3.566c4.423,6.493,12.686,18.536,15.476,22.025,3.883,4.853,22.046,23.568,22.046,23.568l-4.714,5.27s-23.847-18.4-26.9-22.3-21.767-22.482-21.351-28.028A5.03,5.03,0,0,1,360.959,299.087Z" transform="translate(-325.829 -261.054)" fill="#82cec2"/>
        <path id="Path_8756" data-name="Path 8756" d="M360.959,299.087a9.818,9.818,0,0,1,12.213,3.566c4.423,6.493,12.686,18.536,15.476,22.025,3.883,4.853,22.046,23.568,22.046,23.568l-4.714,5.27s-23.847-18.4-26.9-22.3-21.767-22.482-21.351-28.028A5.03,5.03,0,0,1,360.959,299.087Z" transform="translate(-325.829 -261.054)" fill="#00a1cc" opacity="0.65" style="mix-blend-mode: multiply;isolation: isolate"/>
        <g id="Group_3785" data-name="Group 3785" transform="translate(4.546 32.656)">
          <path id="Path_8757" data-name="Path 8757" d="M371.149,352.462a77.927,77.927,0,0,1-17.8-3.762c-6.449-2.285-11.95-6.062-12.8-8.87,0,0,10.891-26.528,18.193-35.493s15.616-8.957,15.616-8.957,5.275,5.124,10.335,6.3c0,0-5.062,19.76-7.419,27.568S371.149,352.462,371.149,352.462Z" transform="translate(-340.552 -295.38)" fill="#82cec2"/>
          <path id="Path_8758" data-name="Path 8758" d="M360.657,317.21c.019-3.568-.594-9.207,1.008-13.3.42.355.852.7,1.244,1.085,2.325,2.29,4.625,4.737,7.624,6.137a6.7,6.7,0,0,0,1.2.389c-1.279,4.791-2.606,9.639-3.523,12.678-2.357,7.807-6.129,23.212-6.129,23.212s-2.545-.191-6.224-.825C360.055,338.077,360.608,327.091,360.657,317.21Z" transform="translate(-331.482 -290.326)" fill="#00a1cc" opacity="0.65" style="mix-blend-mode: multiply;isolation: isolate"/>
        </g>
        <path id="Path_8759" data-name="Path 8759" d="M367.384,280.93s7.28-4.853,11.439-2.01,6.517,5.2,6.1,7.209-2.179,7.188-2.082,9.543,1.158,6.009.65,6.748-3.142-.462-3.466-.231-4.987,5.038-6.237,5.084-7.629-8.134-7.444-11.369S364.4,285.089,367.384,280.93Z" transform="translate(-321.053 -273.008)" fill="#fcd4ca"/>
        <path id="Path_8760" data-name="Path 8760" d="M378.078,288.575c.554,1.526,2.7,4.206,8.527,4.829s10.051-11.021,0-15.944-11.647-1.247-13.864-1.524a7.783,7.783,0,0,0-6.141,1.4c-3.357,2.561-5.82,6.508-3.663,13.159,2.179,6.724,5.616,7.828,5.616,7.828.889-1.093,1.973-3.173,1.277-4.4a7.79,7.79,0,0,1-1.11-1.768,2.168,2.168,0,0,1,3.639-2.08c.979.784.392,2.966.624,4.021.247,1.121.766,1.21,1.214,1.282.866.139,2.617-1.723,2.4-4.864C376.462,288.482,377.524,287.05,378.078,288.575Z" transform="translate(-323.22 -274.876)" fill="#242263"/>
        <path id="Path_8761" data-name="Path 8761" d="M389.219,332.333a6.441,6.441,0,0,1,1.07.347,4.549,4.549,0,0,0,2.392.663c1.242.04,3.179,0,4.2.656.6.381,4.074,2.872,2.475,4.06-.215.159-.823.3-.938.189-.333-.312-1.274-1.174-1.274-1.174a9.339,9.339,0,0,1,.844.86,2.3,2.3,0,0,1,.373.607c.075.416-.538.986-.921.962s-.5-.46-.712-.731l.014.022c.18.322.7.709,0,1.373-.777.742-.817.054-1.163-.2a2.633,2.633,0,0,1-.347-.336c.11.143.545.623.615.768.228.468-1.011,1.209-1.688.823-.414-.237-1.193-1.3-1.467-1.332a5.646,5.646,0,0,1-.932-.268,5.714,5.714,0,0,1-2.386-1.594c-.293-.314-.892-.892-1.171-1.231a8.2,8.2,0,0,1-1.066-1.516A5.626,5.626,0,0,0,389.219,332.333Z" transform="translate(-308.392 -240.822)" fill="#fcd4ca"/>
        <path id="Path_8762" data-name="Path 8762" d="M403.713,356.539l4.784-6.1s-16.43-16.307-22.53-24.306-11.818-23.4-17.054-25.005-11.013.647-8.881,8.5,16.553,19.78,19.326,23.478S400.8,354.367,403.713,356.539Z" transform="translate(-324.73 -259.606)" fill="#82cec2"/>
      </g>
    </g>
  </g>
</svg>
