<svg id="Iconly_Light_Heart" data-name="Iconly/Light/Heart" xmlns="http://www.w3.org/2000/svg" width="20" height="20" viewBox="0 0 20 20">
  <g id="Heart" transform="translate(2.083 2.5)">
    <path id="Path_33961" d="M7.718,14.878A29.033,29.033,0,0,1,2.7,10.971,9.992,9.992,0,0,1,.311,7.163C-.586,4.375.462,1.184,3.393.24A4.982,4.982,0,0,1,7.913,1h0A4.989,4.989,0,0,1,12.434.24c2.931.944,3.986,4.136,3.089,6.923a9.992,9.992,0,0,1-2.388,3.808,29.033,29.033,0,0,1-5.018,3.907l-.2.122Z" transform="translate(0 0)" fill="none" stroke="#212529" stroke-linecap="round" stroke-linejoin="round" stroke-miterlimit="10" stroke-width="1.5"/>
    <path id="Path_33964" d="M0,0A2.318,2.318,0,0,1,1.6,2.018" transform="translate(11.033 3.378)" fill="none" stroke="#212529" stroke-linecap="round" stroke-linejoin="round" stroke-miterlimit="10" stroke-width="1.5"/>
  </g>
</svg>
