<svg id="Iconly_Light_3_User" data-name="Iconly/Light/3 User" xmlns="http://www.w3.org/2000/svg" width="18" height="18" viewBox="0 0 18 18">
  <g id="_3_User" data-name="3 User" transform="translate(1.266 3.141)">
    <path id="Stroke_1" data-name="Stroke 1" d="M0,4.352A2.176,2.176,0,1,0,0,0" transform="translate(11.93 0.706)" fill="none" stroke="#28a745" stroke-linecap="round" stroke-linejoin="round" stroke-miterlimit="10" stroke-width="1.5"/>
    <path id="Stroke_3" data-name="Stroke 3" d="M0,0A7.076,7.076,0,0,1,1.067.155,1.753,1.753,0,0,1,2.351.888a1.036,1.036,0,0,1,0,.888,1.771,1.771,0,0,1-1.284.738" transform="translate(12.931 7.423)" fill="none" stroke="#28a745" stroke-linecap="round" stroke-linejoin="round" stroke-miterlimit="10" stroke-width="1.5"/>
    <path id="Stroke_5" data-name="Stroke 5" d="M2.177,4.352A2.176,2.176,0,1,1,2.177,0" transform="translate(1.275 0.706)" fill="none" stroke="#28a745" stroke-linecap="round" stroke-linejoin="round" stroke-miterlimit="10" stroke-width="1.5"/>
    <path id="Stroke_7" data-name="Stroke 7" d="M2.451,0A7.076,7.076,0,0,0,1.384.155,1.75,1.75,0,0,0,.1.888a1.031,1.031,0,0,0,0,.888,1.768,1.768,0,0,0,1.284.738" transform="translate(0 7.423)" fill="none" stroke="#28a745" stroke-linecap="round" stroke-linejoin="round" stroke-miterlimit="10" stroke-width="1.5"/>
    <path id="Stroke_9" data-name="Stroke 9" d="M4.516,0C6.951,0,9.031.368,9.031,1.843S6.964,3.7,4.516,3.7,0,3.331,0,1.856,2.067,0,4.516,0Z" transform="translate(3.172 7.892)" fill="none" stroke="#28a745" stroke-linecap="round" stroke-linejoin="round" stroke-miterlimit="10" stroke-width="1.5"/>
    <path id="Stroke_11" data-name="Stroke 11" d="M2.894,5.788A2.894,2.894,0,1,1,5.787,2.894,2.884,2.884,0,0,1,2.894,5.788Z" transform="translate(4.794)" fill="none" stroke="#28a745" stroke-linecap="round" stroke-linejoin="round" stroke-miterlimit="10" stroke-width="1.5"/>
  </g>
</svg>
