<svg id="Iconly_Light_Wallet" data-name="Iconly/Light/Wallet" xmlns="http://www.w3.org/2000/svg" width="18" height="18" viewBox="0 0 18 18">
  <g id="Wallet" transform="translate(1.875 2.25)">
    <path id="Stroke_1" data-name="Stroke 1" d="M5.055,4.037H2.019A2.018,2.018,0,1,1,2.019,0H5.055" transform="translate(9.299 4.51)" fill="none" stroke="#28a745" stroke-linecap="round" stroke-linejoin="round" stroke-miterlimit="10" stroke-width="1.5"/>
    <path id="Stroke_3" data-name="Stroke 3" d="M.534.456H.3" transform="translate(11.128 6.026)" fill="none" stroke="#28a745" stroke-linecap="round" stroke-linejoin="round" stroke-miterlimit="10" stroke-width="1.5"/>
    <path id="Stroke_5" data-name="Stroke 5" d="M3.936,0h6.483a3.936,3.936,0,0,1,3.936,3.936V9.319a3.936,3.936,0,0,1-3.936,3.936H3.936A3.936,3.936,0,0,1,0,9.319V3.936A3.936,3.936,0,0,1,3.936,0Z" transform="translate(0)" fill="none" stroke="#28a745" stroke-linecap="round" stroke-linejoin="round" stroke-miterlimit="10" stroke-width="1.5"/>
    <path id="Stroke_7" data-name="Stroke 7" d="M0,.456H4.049" transform="translate(3.402 2.948)" fill="none" stroke="#28a745" stroke-linecap="round" stroke-linejoin="round" stroke-miterlimit="10" stroke-width="1.5"/>
  </g>
</svg>
