<svg xmlns="http://www.w3.org/2000/svg" viewBox="0 0 32 32"><title>favicon-Artboard 1</title><circle cx="16" cy="16" r="16" style="fill:#242424"/><path d="M24.7048,15.897c0-3.0207-.0053-6.0415.008-9.0622.0018-.4258-.0654-.6329-.5775-.6222-1.6294.0339-3.26.03-4.89,0-.4671-.0084-.5536.16-.55.5754.0169,2.1168.01,4.2338.0054,6.3506-.0038,1.5933.0292,3.1887-.0411,4.7793a3.2084,3.2084,0,0,1-1.8284,3.0082,3.4181,3.4181,0,0,1-4.9167-3.0919c-.0384-3.6148-.0224-7.23-.0094-10.8452.002-.5378-.06-.6935-.5971-.3582-1.5155.9468-3.0562,1.854-4.5889,2.7735a1.6415,1.6415,0,0,1-.8322.3821v9.1347c.2338.1134.14.3307.15.5044a6.6481,6.6481,0,0,0,4.4491,6.3472,7.3571,7.3571,0,0,0,7.6742-1.04c.1323-.1077.2193-.3832.451-.2415.1872.1144.07.3492.09.53a1.3874,1.3874,0,0,1,.0015.3561c-.0755.489.1109.6613.6223.6524,1.5815-.0274,3.1642-.0241,4.7458.0016.4961.008.6489-.1391.6453-.6446C24.6925,22.224,24.7044,19.0605,24.7048,15.897Z" style="fill:#6ebf50"/></svg>