<svg id="ripple-seeklogo.com" xmlns="http://www.w3.org/2000/svg" xmlns:xlink="http://www.w3.org/1999/xlink" width="116.476" height="33.466" viewBox="0 0 116.476 33.466">
  <defs>
    <clipPath id="clip-path">
      <path id="Path_8961" data-name="Path 8961" d="M17.282,36.358a5.967,5.967,0,0,0-2.955,5.14,6.7,6.7,0,0,0,.987,3.171,2.223,2.223,0,0,1-.876,3.171,2.342,2.342,0,0,1-3.171-.876A9.917,9.917,0,0,0,8.86,44.558a5.73,5.73,0,0,0-5.9,0,5.952,5.952,0,0,0,0,10.285,5.73,5.73,0,0,0,5.9,0,6.031,6.031,0,0,0,2.3-2.406,2.252,2.252,0,0,1,3.171-.876,2.449,2.449,0,0,1,.876,3.171,6.581,6.581,0,0,0-.876,3.171,5.955,5.955,0,0,0,2.955,5.14,5.73,5.73,0,0,0,5.9,0,5.947,5.947,0,0,0,0-10.279A6.594,6.594,0,0,0,19.9,52a2.3,2.3,0,1,1,0-4.591,6.884,6.884,0,0,0,3.282-.765,5.947,5.947,0,0,0,0-10.279,5.659,5.659,0,0,0-2.955-.765,5.635,5.635,0,0,0-2.95.76" transform="translate(0 -35.598)"/>
    </clipPath>
    <linearGradient id="linear-gradient" x1="0.877" y1="0.332" x2="0.897" y2="0.332" gradientUnits="objectBoundingBox">
      <stop offset="0" stop-color="#11aae2"/>
      <stop offset="0.594" stop-color="#0880b7"/>
      <stop offset="1" stop-color="#016197"/>
    </linearGradient>
  </defs>
  <path id="Path_8959" data-name="Path 8959" d="M591.974,12.685a5.894,5.894,0,0,0-1.641-.216c-1.968,0-4.047,1.53-4.047,3.5v9.3H581.8V8.749h4.264V10.39a6.323,6.323,0,0,1,4.813-1.968c.654,0,.987.111,1.53.111l-.432,4.153ZM597.008,0a2.849,2.849,0,1,1-3.066,2.844A3.019,3.019,0,0,1,597.008,0m2.185,25.266h-4.485V8.749h4.485ZM612.316,8.422a7.969,7.969,0,0,0-4.812,1.641V8.749h-4.374V33.466h4.485v-9.4a7.161,7.161,0,0,0,4.485,1.53,8.18,8.18,0,0,0,6.232-2.844,8.719,8.719,0,0,0,2.079-5.794,8.25,8.25,0,0,0-8.095-8.533m-.543,13.123a4.359,4.359,0,0,1-4.591-4.591,4.359,4.359,0,0,1,4.591-4.591,4.418,4.418,0,0,1,4.264,4.591,4.42,4.42,0,0,1-4.264,4.591M642.938.987h4.485V25.266h-4.485ZM665.47,22.638a9.269,9.269,0,0,1-6.781,2.955,8.263,8.263,0,0,1-8.638-8.638c0-4.591,3.171-8.638,8.095-8.638,4.591,0,7.873,3.826,7.873,8.422a5.266,5.266,0,0,1-.111,1.314H654.315a4.339,4.339,0,0,0,4.485,3.936,6.2,6.2,0,0,0,4.158-1.857Zm-4.158-7.762a3.329,3.329,0,0,0-3.282-2.955,3.459,3.459,0,0,0-3.5,2.955ZM632.22,8.422a7.969,7.969,0,0,0-4.812,1.641V8.749h-4.264V33.466h4.485v-9.4a7.162,7.162,0,0,0,4.485,1.53,8.18,8.18,0,0,0,6.232-2.844,8.719,8.719,0,0,0,2.079-5.794,8.412,8.412,0,0,0-8.206-8.533m-.543,13.123a4.359,4.359,0,0,1-4.591-4.591,4.359,4.359,0,0,1,4.591-4.591,4.418,4.418,0,0,1,4.264,4.591,4.42,4.42,0,0,1-4.264,4.591" transform="translate(-549.543)" fill="#474d55"/>
  <g id="Group_3977" data-name="Group 3977" transform="translate(0 1.974)" clip-path="url(#clip-path)">
    <path id="Path_8960" data-name="Path 8960" d="M-230.95-201.2l27.339,27.45-27.339,27.339L-258.4-173.75Z" transform="translate(244.073 188.071)" fill="url(#linear-gradient)"/>
  </g>
</svg>
